<mxfile host="app.diagrams.net" agent="Mozilla/5.0 (Windows NT 10.0; Win64; x64) AppleWebKit/537.36 (KHTML, like Gecko) Chrome/132.0.0.0 Safari/537.36 OPR/117.0.0.0" version="26.2.10">
  <diagram name="PÃ¡gina-1" id="iVZSDqrNF2nzEe89y8sN">
    <mxGraphModel dx="659" dy="365" grid="1" gridSize="10" guides="1" tooltips="1" connect="1" arrows="1" fold="1" page="1" pageScale="1" pageWidth="827" pageHeight="1169" math="0" shadow="0">
      <root>
        <mxCell id="0" />
        <mxCell id="1" parent="0" />
        <mxCell id="c9yHNogpHMQOPI-Mq2PM-4" value="" style="endArrow=classic;html=1;rounded=0;" parent="1" edge="1">
          <mxGeometry width="50" height="50" relative="1" as="geometry">
            <mxPoint x="200" y="440" as="sourcePoint" />
            <mxPoint x="200" y="280" as="targetPoint" />
          </mxGeometry>
        </mxCell>
        <mxCell id="c9yHNogpHMQOPI-Mq2PM-5" value="" style="endArrow=classic;html=1;rounded=0;" parent="1" edge="1">
          <mxGeometry width="50" height="50" relative="1" as="geometry">
            <mxPoint x="200" y="400" as="sourcePoint" />
            <mxPoint x="600" y="400" as="targetPoint" />
          </mxGeometry>
        </mxCell>
        <mxCell id="c9yHNogpHMQOPI-Mq2PM-6" value="" style="endArrow=classic;html=1;rounded=0;" parent="1" edge="1">
          <mxGeometry width="50" height="50" relative="1" as="geometry">
            <mxPoint x="200" y="320" as="sourcePoint" />
            <mxPoint x="600" y="320" as="targetPoint" />
          </mxGeometry>
        </mxCell>
        <mxCell id="c9yHNogpHMQOPI-Mq2PM-9" value="" style="endArrow=none;dashed=1;html=1;rounded=0;" parent="1" edge="1">
          <mxGeometry width="50" height="50" relative="1" as="geometry">
            <mxPoint x="240" y="440" as="sourcePoint" />
            <mxPoint x="240" y="280" as="targetPoint" />
          </mxGeometry>
        </mxCell>
        <mxCell id="c9yHNogpHMQOPI-Mq2PM-10" value="" style="endArrow=none;dashed=1;html=1;rounded=0;" parent="1" edge="1">
          <mxGeometry width="50" height="50" relative="1" as="geometry">
            <mxPoint x="560" y="440" as="sourcePoint" />
            <mxPoint x="560" y="280" as="targetPoint" />
          </mxGeometry>
        </mxCell>
        <mxCell id="c9yHNogpHMQOPI-Mq2PM-11" value="" style="endArrow=none;dashed=1;html=1;rounded=0;" parent="1" edge="1">
          <mxGeometry width="50" height="50" relative="1" as="geometry">
            <mxPoint x="440" y="440" as="sourcePoint" />
            <mxPoint x="440" y="280" as="targetPoint" />
          </mxGeometry>
        </mxCell>
        <mxCell id="c9yHNogpHMQOPI-Mq2PM-12" value="" style="endArrow=none;dashed=1;html=1;rounded=0;" parent="1" edge="1">
          <mxGeometry width="50" height="50" relative="1" as="geometry">
            <mxPoint x="480" y="440" as="sourcePoint" />
            <mxPoint x="480" y="280" as="targetPoint" />
          </mxGeometry>
        </mxCell>
        <mxCell id="c9yHNogpHMQOPI-Mq2PM-13" value="" style="endArrow=none;dashed=1;html=1;rounded=0;" parent="1" edge="1">
          <mxGeometry width="50" height="50" relative="1" as="geometry">
            <mxPoint x="400" y="440" as="sourcePoint" />
            <mxPoint x="400" y="280" as="targetPoint" />
          </mxGeometry>
        </mxCell>
        <mxCell id="c9yHNogpHMQOPI-Mq2PM-14" value="" style="endArrow=none;dashed=1;html=1;rounded=0;" parent="1" edge="1">
          <mxGeometry width="50" height="50" relative="1" as="geometry">
            <mxPoint x="360" y="440" as="sourcePoint" />
            <mxPoint x="360" y="280" as="targetPoint" />
          </mxGeometry>
        </mxCell>
        <mxCell id="c9yHNogpHMQOPI-Mq2PM-15" value="" style="endArrow=none;dashed=1;html=1;rounded=0;" parent="1" edge="1">
          <mxGeometry width="50" height="50" relative="1" as="geometry">
            <mxPoint x="520" y="440" as="sourcePoint" />
            <mxPoint x="520" y="280" as="targetPoint" />
          </mxGeometry>
        </mxCell>
        <mxCell id="c9yHNogpHMQOPI-Mq2PM-16" value="" style="endArrow=none;dashed=1;html=1;rounded=0;" parent="1" edge="1">
          <mxGeometry width="50" height="50" relative="1" as="geometry">
            <mxPoint x="320" y="440" as="sourcePoint" />
            <mxPoint x="320" y="280" as="targetPoint" />
          </mxGeometry>
        </mxCell>
        <mxCell id="c9yHNogpHMQOPI-Mq2PM-17" value="" style="endArrow=none;dashed=1;html=1;rounded=0;" parent="1" edge="1">
          <mxGeometry width="50" height="50" relative="1" as="geometry">
            <mxPoint x="280" y="440" as="sourcePoint" />
            <mxPoint x="280" y="280" as="targetPoint" />
          </mxGeometry>
        </mxCell>
        <mxCell id="c9yHNogpHMQOPI-Mq2PM-18" value="1" style="text;html=1;align=center;verticalAlign=middle;resizable=0;points=[];autosize=1;strokeColor=none;fillColor=none;" parent="1" vertex="1">
          <mxGeometry x="70" y="584" width="30" height="30" as="geometry" />
        </mxCell>
        <mxCell id="c9yHNogpHMQOPI-Mq2PM-19" value="1" style="text;html=1;align=center;verticalAlign=middle;resizable=0;points=[];autosize=1;strokeColor=none;fillColor=none;" parent="1" vertex="1">
          <mxGeometry x="70" y="584" width="30" height="30" as="geometry" />
        </mxCell>
        <mxCell id="c9yHNogpHMQOPI-Mq2PM-20" value="1" style="text;html=1;align=center;verticalAlign=middle;resizable=0;points=[];autosize=1;strokeColor=none;fillColor=none;" parent="1" vertex="1">
          <mxGeometry x="80" y="594" width="30" height="30" as="geometry" />
        </mxCell>
        <mxCell id="c9yHNogpHMQOPI-Mq2PM-21" value="1" style="text;html=1;align=center;verticalAlign=middle;resizable=0;points=[];autosize=1;strokeColor=none;fillColor=none;" parent="1" vertex="1">
          <mxGeometry x="90" y="604" width="30" height="30" as="geometry" />
        </mxCell>
        <mxCell id="c9yHNogpHMQOPI-Mq2PM-22" value="1" style="text;html=1;align=center;verticalAlign=middle;resizable=0;points=[];autosize=1;strokeColor=none;fillColor=none;" parent="1" vertex="1">
          <mxGeometry x="530" y="240" width="30" height="30" as="geometry" />
        </mxCell>
        <mxCell id="c9yHNogpHMQOPI-Mq2PM-23" value="0" style="text;html=1;align=center;verticalAlign=middle;resizable=0;points=[];autosize=1;strokeColor=none;fillColor=none;" parent="1" vertex="1">
          <mxGeometry x="450" y="240" width="30" height="30" as="geometry" />
        </mxCell>
        <mxCell id="c9yHNogpHMQOPI-Mq2PM-24" value="1" style="text;html=1;align=center;verticalAlign=middle;resizable=0;points=[];autosize=1;strokeColor=none;fillColor=none;" parent="1" vertex="1">
          <mxGeometry x="410" y="240" width="30" height="30" as="geometry" />
        </mxCell>
        <mxCell id="c9yHNogpHMQOPI-Mq2PM-25" value="0" style="text;html=1;align=center;verticalAlign=middle;resizable=0;points=[];autosize=1;strokeColor=none;fillColor=none;" parent="1" vertex="1">
          <mxGeometry x="370" y="240" width="30" height="30" as="geometry" />
        </mxCell>
        <mxCell id="c9yHNogpHMQOPI-Mq2PM-26" value="1" style="text;html=1;align=center;verticalAlign=middle;resizable=0;points=[];autosize=1;strokeColor=none;fillColor=none;" parent="1" vertex="1">
          <mxGeometry x="210" y="240" width="30" height="30" as="geometry" />
        </mxCell>
        <mxCell id="c9yHNogpHMQOPI-Mq2PM-27" value="1" style="text;html=1;align=center;verticalAlign=middle;resizable=0;points=[];autosize=1;strokeColor=none;fillColor=none;" parent="1" vertex="1">
          <mxGeometry x="330" y="240" width="30" height="30" as="geometry" />
        </mxCell>
        <mxCell id="c9yHNogpHMQOPI-Mq2PM-28" value="0" style="text;html=1;align=center;verticalAlign=middle;resizable=0;points=[];autosize=1;strokeColor=none;fillColor=none;" parent="1" vertex="1">
          <mxGeometry x="290" y="240" width="30" height="30" as="geometry" />
        </mxCell>
        <mxCell id="c9yHNogpHMQOPI-Mq2PM-29" value="1" style="text;html=1;align=center;verticalAlign=middle;resizable=0;points=[];autosize=1;strokeColor=none;fillColor=none;" parent="1" vertex="1">
          <mxGeometry x="250" y="240" width="30" height="30" as="geometry" />
        </mxCell>
        <mxCell id="c9yHNogpHMQOPI-Mq2PM-30" value="1" style="text;html=1;align=center;verticalAlign=middle;resizable=0;points=[];autosize=1;strokeColor=none;fillColor=none;" parent="1" vertex="1">
          <mxGeometry x="490" y="240" width="30" height="30" as="geometry" />
        </mxCell>
        <mxCell id="c9yHNogpHMQOPI-Mq2PM-31" value="&lt;font style=&quot;font-size: 10px;&quot;&gt;1&lt;/font&gt;" style="text;html=1;align=center;verticalAlign=middle;resizable=0;points=[];autosize=1;strokeColor=none;fillColor=none;" parent="1" vertex="1">
          <mxGeometry x="50" y="240" width="30" height="30" as="geometry" />
        </mxCell>
        <mxCell id="c9yHNogpHMQOPI-Mq2PM-33" value="" style="endArrow=none;html=1;rounded=0;fillColor=light-dark(#FFFFFF,#FF0000);strokeColor=light-dark(#000000,#FF0000);" parent="1" edge="1">
          <mxGeometry width="50" height="50" relative="1" as="geometry">
            <mxPoint x="280" y="340" as="sourcePoint" />
            <mxPoint x="200" y="340" as="targetPoint" />
          </mxGeometry>
        </mxCell>
        <mxCell id="c9yHNogpHMQOPI-Mq2PM-34" value="" style="endArrow=none;html=1;rounded=0;fillColor=light-dark(#FFFFFF,#FF0000);strokeColor=light-dark(#000000,#FF0000);" parent="1" edge="1">
          <mxGeometry width="50" height="50" relative="1" as="geometry">
            <mxPoint x="320" y="340" as="sourcePoint" />
            <mxPoint x="320" y="300" as="targetPoint" />
          </mxGeometry>
        </mxCell>
        <mxCell id="c9yHNogpHMQOPI-Mq2PM-35" value="" style="endArrow=none;html=1;rounded=0;fillColor=light-dark(#FFFFFF,#FF0000);strokeColor=light-dark(#000000,#FF0000);" parent="1" edge="1">
          <mxGeometry width="50" height="50" relative="1" as="geometry">
            <mxPoint x="320" y="300" as="sourcePoint" />
            <mxPoint x="280" y="300" as="targetPoint" />
          </mxGeometry>
        </mxCell>
        <mxCell id="c9yHNogpHMQOPI-Mq2PM-36" value="" style="endArrow=none;html=1;rounded=0;fillColor=light-dark(#FFFFFF,#FF0000);strokeColor=light-dark(#000000,#FF0000);" parent="1" edge="1">
          <mxGeometry width="50" height="50" relative="1" as="geometry">
            <mxPoint x="360" y="340" as="sourcePoint" />
            <mxPoint x="320" y="340" as="targetPoint" />
          </mxGeometry>
        </mxCell>
        <mxCell id="c9yHNogpHMQOPI-Mq2PM-37" value="" style="endArrow=none;html=1;rounded=0;fillColor=light-dark(#FFFFFF,#FF0000);strokeColor=light-dark(#000000,#FF0000);" parent="1" edge="1">
          <mxGeometry width="50" height="50" relative="1" as="geometry">
            <mxPoint x="360" y="300" as="sourcePoint" />
            <mxPoint x="360" y="340" as="targetPoint" />
          </mxGeometry>
        </mxCell>
        <mxCell id="c9yHNogpHMQOPI-Mq2PM-38" value="" style="endArrow=none;html=1;rounded=0;fillColor=light-dark(#FFFFFF,#FF0000);strokeColor=light-dark(#000000,#FF0000);" parent="1" edge="1">
          <mxGeometry width="50" height="50" relative="1" as="geometry">
            <mxPoint x="400" y="300" as="sourcePoint" />
            <mxPoint x="360" y="300" as="targetPoint" />
          </mxGeometry>
        </mxCell>
        <mxCell id="c9yHNogpHMQOPI-Mq2PM-39" value="" style="endArrow=none;html=1;rounded=0;fillColor=light-dark(#FFFFFF,#FF0000);strokeColor=light-dark(#000000,#FF0000);" parent="1" edge="1">
          <mxGeometry width="50" height="50" relative="1" as="geometry">
            <mxPoint x="400" y="340" as="sourcePoint" />
            <mxPoint x="400" y="300" as="targetPoint" />
          </mxGeometry>
        </mxCell>
        <mxCell id="c9yHNogpHMQOPI-Mq2PM-40" value="" style="endArrow=none;html=1;rounded=0;fillColor=light-dark(#FFFFFF,#FF0000);strokeColor=light-dark(#000000,#FF0000);" parent="1" edge="1">
          <mxGeometry width="50" height="50" relative="1" as="geometry">
            <mxPoint x="440" y="340" as="sourcePoint" />
            <mxPoint x="400" y="340" as="targetPoint" />
          </mxGeometry>
        </mxCell>
        <mxCell id="c9yHNogpHMQOPI-Mq2PM-41" value="" style="endArrow=none;html=1;rounded=0;fillColor=light-dark(#FFFFFF,#FF0000);strokeColor=light-dark(#000000,#FF0000);" parent="1" edge="1">
          <mxGeometry width="50" height="50" relative="1" as="geometry">
            <mxPoint x="280" y="340" as="sourcePoint" />
            <mxPoint x="280" y="300" as="targetPoint" />
          </mxGeometry>
        </mxCell>
        <mxCell id="c9yHNogpHMQOPI-Mq2PM-42" value="" style="endArrow=none;html=1;rounded=0;fillColor=light-dark(#FFFFFF,#FF0000);strokeColor=light-dark(#000000,#FF0000);" parent="1" edge="1">
          <mxGeometry width="50" height="50" relative="1" as="geometry">
            <mxPoint x="440" y="300" as="sourcePoint" />
            <mxPoint x="440" y="340" as="targetPoint" />
          </mxGeometry>
        </mxCell>
        <mxCell id="c9yHNogpHMQOPI-Mq2PM-43" value="" style="endArrow=none;html=1;rounded=0;fillColor=light-dark(#FFFFFF,#FF0000);strokeColor=light-dark(#000000,#FF0000);" parent="1" edge="1">
          <mxGeometry width="50" height="50" relative="1" as="geometry">
            <mxPoint x="480" y="340" as="sourcePoint" />
            <mxPoint x="480" y="300" as="targetPoint" />
          </mxGeometry>
        </mxCell>
        <mxCell id="c9yHNogpHMQOPI-Mq2PM-44" value="" style="endArrow=none;html=1;rounded=0;fillColor=light-dark(#FFFFFF,#FF0000);strokeColor=light-dark(#000000,#FF0000);" parent="1" edge="1">
          <mxGeometry width="50" height="50" relative="1" as="geometry">
            <mxPoint x="480" y="300" as="sourcePoint" />
            <mxPoint x="440" y="300" as="targetPoint" />
          </mxGeometry>
        </mxCell>
        <mxCell id="c9yHNogpHMQOPI-Mq2PM-45" value="" style="endArrow=none;html=1;rounded=0;fillColor=light-dark(#FFFFFF,#FF0000);strokeColor=light-dark(#000000,#FF0000);" parent="1" edge="1">
          <mxGeometry width="50" height="50" relative="1" as="geometry">
            <mxPoint x="560" y="340" as="sourcePoint" />
            <mxPoint x="480" y="340" as="targetPoint" />
          </mxGeometry>
        </mxCell>
        <mxCell id="c9yHNogpHMQOPI-Mq2PM-46" value="" style="endArrow=none;html=1;rounded=0;fillColor=light-dark(#FFFFFF,#FF0000);strokeColor=light-dark(#000000,#FF0000);" parent="1" edge="1">
          <mxGeometry width="50" height="50" relative="1" as="geometry">
            <mxPoint x="330" y="584" as="sourcePoint" />
            <mxPoint x="250" y="584" as="targetPoint" />
          </mxGeometry>
        </mxCell>
        <mxCell id="c9yHNogpHMQOPI-Mq2PM-47" value="" style="endArrow=none;html=1;rounded=0;fillColor=light-dark(#FFFFFF,#FF0000);strokeColor=light-dark(#000000,#FF0000);" parent="1" edge="1">
          <mxGeometry width="50" height="50" relative="1" as="geometry">
            <mxPoint x="340" y="594" as="sourcePoint" />
            <mxPoint x="260" y="594" as="targetPoint" />
          </mxGeometry>
        </mxCell>
        <mxCell id="c9yHNogpHMQOPI-Mq2PM-48" value="" style="endArrow=none;html=1;rounded=0;fillColor=light-dark(#FFFFFF,#FF0000);strokeColor=light-dark(#000000,#FF0000);" parent="1" edge="1">
          <mxGeometry width="50" height="50" relative="1" as="geometry">
            <mxPoint x="350" y="604" as="sourcePoint" />
            <mxPoint x="270" y="604" as="targetPoint" />
          </mxGeometry>
        </mxCell>
        <mxCell id="c9yHNogpHMQOPI-Mq2PM-49" value="" style="endArrow=none;html=1;rounded=0;fillColor=light-dark(#FFFFFF,#FF0000);strokeColor=light-dark(#000000,#FF0000);" parent="1" edge="1">
          <mxGeometry width="50" height="50" relative="1" as="geometry">
            <mxPoint x="360" y="614" as="sourcePoint" />
            <mxPoint x="280" y="614" as="targetPoint" />
          </mxGeometry>
        </mxCell>
        <mxCell id="c9yHNogpHMQOPI-Mq2PM-51" value="" style="endArrow=none;html=1;rounded=0;fillColor=light-dark(#FFFFFF,#FF0000);strokeColor=light-dark(#000000,#0000FF);" parent="1" edge="1">
          <mxGeometry width="50" height="50" relative="1" as="geometry">
            <mxPoint x="350" y="634" as="sourcePoint" />
            <mxPoint x="270" y="634" as="targetPoint" />
          </mxGeometry>
        </mxCell>
        <mxCell id="c9yHNogpHMQOPI-Mq2PM-52" value="" style="endArrow=none;html=1;rounded=0;fillColor=light-dark(#FFFFFF,#FF0000);strokeColor=light-dark(#000000,#00FF00);movable=1;resizable=1;rotatable=1;deletable=1;editable=1;locked=0;connectable=1;" parent="1" edge="1">
          <mxGeometry width="50" height="50" relative="1" as="geometry">
            <mxPoint x="240" y="420" as="sourcePoint" />
            <mxPoint x="200" y="420" as="targetPoint" />
          </mxGeometry>
        </mxCell>
        <mxCell id="c9yHNogpHMQOPI-Mq2PM-53" value="" style="endArrow=none;html=1;rounded=0;fillColor=light-dark(#FFFFFF,#FF0000);strokeColor=light-dark(#000000,#0000FF);" parent="1" edge="1">
          <mxGeometry width="50" height="50" relative="1" as="geometry">
            <mxPoint x="130" y="574" as="sourcePoint" />
            <mxPoint x="50" y="574" as="targetPoint" />
          </mxGeometry>
        </mxCell>
        <mxCell id="c9yHNogpHMQOPI-Mq2PM-54" value="" style="endArrow=none;html=1;rounded=0;fillColor=light-dark(#FFFFFF,#FF0000);strokeColor=light-dark(#000000,#0000FF);" parent="1" edge="1">
          <mxGeometry width="50" height="50" relative="1" as="geometry">
            <mxPoint x="140" y="584" as="sourcePoint" />
            <mxPoint x="60" y="584" as="targetPoint" />
          </mxGeometry>
        </mxCell>
        <mxCell id="c9yHNogpHMQOPI-Mq2PM-55" value="" style="endArrow=none;html=1;rounded=0;fillColor=light-dark(#FFFFFF,#FF0000);strokeColor=light-dark(#000000,#0000FF);" parent="1" edge="1">
          <mxGeometry width="50" height="50" relative="1" as="geometry">
            <mxPoint x="150" y="594" as="sourcePoint" />
            <mxPoint x="70" y="594" as="targetPoint" />
          </mxGeometry>
        </mxCell>
        <mxCell id="c9yHNogpHMQOPI-Mq2PM-56" value="" style="endArrow=none;html=1;rounded=0;fillColor=light-dark(#FFFFFF,#FF0000);strokeColor=light-dark(#000000,#0000FF);" parent="1" edge="1">
          <mxGeometry width="50" height="50" relative="1" as="geometry">
            <mxPoint x="160" y="604" as="sourcePoint" />
            <mxPoint x="80" y="604" as="targetPoint" />
          </mxGeometry>
        </mxCell>
        <mxCell id="c9yHNogpHMQOPI-Mq2PM-57" value="" style="endArrow=none;html=1;rounded=0;fillColor=light-dark(#FFFFFF,#FF0000);strokeColor=light-dark(#000000,#0000FF);" parent="1" edge="1">
          <mxGeometry width="50" height="50" relative="1" as="geometry">
            <mxPoint x="170" y="614" as="sourcePoint" />
            <mxPoint x="90" y="614" as="targetPoint" />
          </mxGeometry>
        </mxCell>
        <mxCell id="c9yHNogpHMQOPI-Mq2PM-58" value="" style="endArrow=none;html=1;rounded=0;fillColor=light-dark(#FFFFFF,#FF0000);strokeColor=light-dark(#000000,#0000FF);" parent="1" edge="1">
          <mxGeometry width="50" height="50" relative="1" as="geometry">
            <mxPoint x="180" y="624" as="sourcePoint" />
            <mxPoint x="100" y="624" as="targetPoint" />
          </mxGeometry>
        </mxCell>
        <mxCell id="c9yHNogpHMQOPI-Mq2PM-59" value="" style="endArrow=none;html=1;rounded=0;fillColor=light-dark(#FFFFFF,#FF0000);strokeColor=light-dark(#000000,#0000FF);movable=1;resizable=1;rotatable=1;deletable=1;editable=1;locked=0;connectable=1;" parent="1" edge="1">
          <mxGeometry width="50" height="50" relative="1" as="geometry">
            <mxPoint x="200" y="564" as="sourcePoint" />
            <mxPoint x="120" y="564" as="targetPoint" />
          </mxGeometry>
        </mxCell>
        <mxCell id="c9yHNogpHMQOPI-Mq2PM-60" value="" style="endArrow=none;html=1;rounded=0;fillColor=light-dark(#FFFFFF,#FF0000);strokeColor=light-dark(#000000,#00FF00);movable=1;resizable=1;rotatable=1;deletable=1;editable=1;locked=0;connectable=1;" parent="1" edge="1">
          <mxGeometry width="50" height="50" relative="1" as="geometry">
            <mxPoint x="400" y="420" as="sourcePoint" />
            <mxPoint x="320" y="420" as="targetPoint" />
          </mxGeometry>
        </mxCell>
        <mxCell id="c9yHNogpHMQOPI-Mq2PM-61" value="" style="endArrow=none;html=1;rounded=0;fillColor=light-dark(#FFFFFF,#FF0000);strokeColor=light-dark(#000000,#00FF00);movable=1;resizable=1;rotatable=1;deletable=1;editable=1;locked=0;connectable=1;" parent="1" edge="1">
          <mxGeometry width="50" height="50" relative="1" as="geometry">
            <mxPoint x="320" y="380" as="sourcePoint" />
            <mxPoint x="240" y="380" as="targetPoint" />
          </mxGeometry>
        </mxCell>
        <mxCell id="c9yHNogpHMQOPI-Mq2PM-62" value="" style="endArrow=none;html=1;rounded=0;fillColor=light-dark(#FFFFFF,#FF0000);strokeColor=light-dark(#000000,#00FF00);movable=1;resizable=1;rotatable=1;deletable=1;editable=1;locked=0;connectable=1;" parent="1" edge="1">
          <mxGeometry width="50" height="50" relative="1" as="geometry">
            <mxPoint x="480" y="380" as="sourcePoint" />
            <mxPoint x="400" y="380" as="targetPoint" />
          </mxGeometry>
        </mxCell>
        <mxCell id="c9yHNogpHMQOPI-Mq2PM-63" value="" style="endArrow=none;html=1;rounded=0;fillColor=light-dark(#FFFFFF,#FF0000);strokeColor=light-dark(#000000,#00FF00);movable=1;resizable=1;rotatable=1;deletable=1;editable=1;locked=0;connectable=1;" parent="1" edge="1">
          <mxGeometry width="50" height="50" relative="1" as="geometry">
            <mxPoint x="380" y="554" as="sourcePoint" />
            <mxPoint x="300" y="554" as="targetPoint" />
          </mxGeometry>
        </mxCell>
        <mxCell id="c9yHNogpHMQOPI-Mq2PM-64" value="" style="endArrow=none;html=1;rounded=0;fillColor=light-dark(#FFFFFF,#FF0000);strokeColor=light-dark(#000000,#00FF00);movable=1;resizable=1;rotatable=1;deletable=1;editable=1;locked=0;connectable=1;" parent="1" edge="1">
          <mxGeometry width="50" height="50" relative="1" as="geometry">
            <mxPoint x="390" y="564" as="sourcePoint" />
            <mxPoint x="310" y="564" as="targetPoint" />
          </mxGeometry>
        </mxCell>
        <mxCell id="c9yHNogpHMQOPI-Mq2PM-65" value="" style="endArrow=none;html=1;rounded=0;fillColor=light-dark(#FFFFFF,#FF0000);strokeColor=light-dark(#000000,#00FF00);movable=1;resizable=1;rotatable=1;deletable=1;editable=1;locked=0;connectable=1;" parent="1" edge="1">
          <mxGeometry width="50" height="50" relative="1" as="geometry">
            <mxPoint x="450" y="1200" as="sourcePoint" />
            <mxPoint x="370" y="1200" as="targetPoint" />
          </mxGeometry>
        </mxCell>
        <mxCell id="c9yHNogpHMQOPI-Mq2PM-66" value="" style="endArrow=none;html=1;rounded=0;fillColor=light-dark(#FFFFFF,#FF0000);strokeColor=light-dark(#000000,#00FF00);movable=1;resizable=1;rotatable=1;deletable=1;editable=1;locked=0;connectable=1;" parent="1" edge="1">
          <mxGeometry width="50" height="50" relative="1" as="geometry">
            <mxPoint x="270" y="1324" as="sourcePoint" />
            <mxPoint x="190" y="1324" as="targetPoint" />
          </mxGeometry>
        </mxCell>
        <mxCell id="c9yHNogpHMQOPI-Mq2PM-67" value="" style="endArrow=none;html=1;rounded=0;fillColor=light-dark(#FFFFFF,#FF0000);strokeColor=light-dark(#000000,#00FF00);movable=1;resizable=1;rotatable=1;deletable=1;editable=1;locked=0;connectable=1;" parent="1" edge="1">
          <mxGeometry width="50" height="50" relative="1" as="geometry">
            <mxPoint x="280" y="1334" as="sourcePoint" />
            <mxPoint x="200" y="1334" as="targetPoint" />
          </mxGeometry>
        </mxCell>
        <mxCell id="c9yHNogpHMQOPI-Mq2PM-68" value="" style="endArrow=none;html=1;rounded=0;fillColor=light-dark(#FFFFFF,#FF0000);strokeColor=light-dark(#000000,#00FF00);movable=1;resizable=1;rotatable=1;deletable=1;editable=1;locked=0;connectable=1;" parent="1" edge="1">
          <mxGeometry width="50" height="50" relative="1" as="geometry">
            <mxPoint x="290" y="1344" as="sourcePoint" />
            <mxPoint x="210" y="1344" as="targetPoint" />
          </mxGeometry>
        </mxCell>
        <mxCell id="c9yHNogpHMQOPI-Mq2PM-69" value="" style="endArrow=none;html=1;rounded=0;fillColor=light-dark(#FFFFFF,#FF0000);strokeColor=light-dark(#000000,#00FF00);movable=1;resizable=1;rotatable=1;deletable=1;editable=1;locked=0;connectable=1;" parent="1" edge="1">
          <mxGeometry width="50" height="50" relative="1" as="geometry">
            <mxPoint x="300" y="1354" as="sourcePoint" />
            <mxPoint x="220" y="1354" as="targetPoint" />
          </mxGeometry>
        </mxCell>
        <mxCell id="c9yHNogpHMQOPI-Mq2PM-70" value="" style="endArrow=none;html=1;rounded=0;fillColor=light-dark(#FFFFFF,#FF0000);strokeColor=light-dark(#000000,#00FF00);movable=1;resizable=1;rotatable=1;deletable=1;editable=1;locked=0;connectable=1;" parent="1" edge="1">
          <mxGeometry width="50" height="50" relative="1" as="geometry">
            <mxPoint x="310" y="1364" as="sourcePoint" />
            <mxPoint x="230" y="1364" as="targetPoint" />
          </mxGeometry>
        </mxCell>
        <mxCell id="c9yHNogpHMQOPI-Mq2PM-71" value="" style="endArrow=none;html=1;rounded=0;fillColor=light-dark(#FFFFFF,#FF0000);strokeColor=light-dark(#000000,#00FF00);movable=1;resizable=1;rotatable=1;deletable=1;editable=1;locked=0;connectable=1;" parent="1" edge="1">
          <mxGeometry width="50" height="50" relative="1" as="geometry">
            <mxPoint x="320" y="1374" as="sourcePoint" />
            <mxPoint x="240" y="1374" as="targetPoint" />
          </mxGeometry>
        </mxCell>
        <mxCell id="c9yHNogpHMQOPI-Mq2PM-72" value="" style="endArrow=none;html=1;rounded=0;fillColor=light-dark(#FFFFFF,#FF0000);strokeColor=light-dark(#000000,#00FF00);movable=1;resizable=1;rotatable=1;deletable=1;editable=1;locked=0;connectable=1;" parent="1" edge="1">
          <mxGeometry width="50" height="50" relative="1" as="geometry">
            <mxPoint x="330" y="1384" as="sourcePoint" />
            <mxPoint x="250" y="1384" as="targetPoint" />
          </mxGeometry>
        </mxCell>
        <mxCell id="c9yHNogpHMQOPI-Mq2PM-73" value="" style="endArrow=none;html=1;rounded=0;fillColor=light-dark(#FFFFFF,#FF0000);strokeColor=light-dark(#000000,#00FF00);movable=1;resizable=1;rotatable=1;deletable=1;editable=1;locked=0;connectable=1;" parent="1" edge="1">
          <mxGeometry width="50" height="50" relative="1" as="geometry">
            <mxPoint x="520" y="420" as="sourcePoint" />
            <mxPoint x="480" y="420" as="targetPoint" />
          </mxGeometry>
        </mxCell>
        <mxCell id="c9yHNogpHMQOPI-Mq2PM-74" value="" style="endArrow=none;html=1;rounded=0;fillColor=light-dark(#FFFFFF,#FF0000);strokeColor=light-dark(#000000,#00FF00);movable=1;resizable=1;rotatable=1;deletable=1;editable=1;locked=0;connectable=1;" parent="1" edge="1">
          <mxGeometry width="50" height="50" relative="1" as="geometry">
            <mxPoint x="270" y="554" as="sourcePoint" />
            <mxPoint x="230" y="554" as="targetPoint" />
          </mxGeometry>
        </mxCell>
        <mxCell id="c9yHNogpHMQOPI-Mq2PM-75" value="" style="endArrow=none;html=1;rounded=0;fillColor=light-dark(#FFFFFF,#FF0000);strokeColor=light-dark(#000000,#00FF00);movable=1;resizable=1;rotatable=1;deletable=1;editable=1;locked=0;connectable=1;" parent="1" edge="1">
          <mxGeometry width="50" height="50" relative="1" as="geometry">
            <mxPoint x="560" y="380" as="sourcePoint" />
            <mxPoint x="520" y="380" as="targetPoint" />
          </mxGeometry>
        </mxCell>
        <mxCell id="c9yHNogpHMQOPI-Mq2PM-76" value="" style="endArrow=none;html=1;rounded=0;fillColor=light-dark(#FFFFFF,#FF0000);strokeColor=light-dark(#000000,#00FF00);movable=1;resizable=1;rotatable=1;deletable=1;editable=1;locked=0;connectable=1;" parent="1" edge="1">
          <mxGeometry width="50" height="50" relative="1" as="geometry">
            <mxPoint x="310" y="1294" as="sourcePoint" />
            <mxPoint x="270" y="1294" as="targetPoint" />
          </mxGeometry>
        </mxCell>
        <mxCell id="c9yHNogpHMQOPI-Mq2PM-77" value="" style="endArrow=none;html=1;rounded=0;fillColor=light-dark(#FFFFFF,#FF0000);strokeColor=light-dark(#000000,#00FF00);movable=1;resizable=1;rotatable=1;deletable=1;editable=1;locked=0;connectable=1;" parent="1" edge="1">
          <mxGeometry width="50" height="50" relative="1" as="geometry">
            <mxPoint x="320" y="1304" as="sourcePoint" />
            <mxPoint x="280" y="1304" as="targetPoint" />
          </mxGeometry>
        </mxCell>
        <mxCell id="c9yHNogpHMQOPI-Mq2PM-78" value="" style="endArrow=none;html=1;rounded=0;fillColor=light-dark(#FFFFFF,#FF0000);strokeColor=light-dark(#000000,#00FF00);movable=1;resizable=1;rotatable=1;deletable=1;editable=1;locked=0;connectable=1;" parent="1" edge="1">
          <mxGeometry width="50" height="50" relative="1" as="geometry">
            <mxPoint x="330" y="1314" as="sourcePoint" />
            <mxPoint x="290" y="1314" as="targetPoint" />
          </mxGeometry>
        </mxCell>
        <mxCell id="c9yHNogpHMQOPI-Mq2PM-79" value="" style="endArrow=none;html=1;rounded=0;fillColor=light-dark(#FFFFFF,#FF0000);strokeColor=light-dark(#000000,#00FF00);movable=1;resizable=1;rotatable=1;deletable=1;editable=1;locked=0;connectable=1;" parent="1" edge="1">
          <mxGeometry width="50" height="50" relative="1" as="geometry">
            <mxPoint x="340" y="1324" as="sourcePoint" />
            <mxPoint x="300" y="1324" as="targetPoint" />
          </mxGeometry>
        </mxCell>
        <mxCell id="c9yHNogpHMQOPI-Mq2PM-80" value="" style="endArrow=none;html=1;rounded=0;fillColor=light-dark(#FFFFFF,#FF0000);strokeColor=light-dark(#000000,#00FF00);movable=1;resizable=1;rotatable=1;deletable=1;editable=1;locked=0;connectable=1;" parent="1" edge="1">
          <mxGeometry width="50" height="50" relative="1" as="geometry">
            <mxPoint x="500" y="520" as="sourcePoint" />
            <mxPoint x="460" y="520" as="targetPoint" />
          </mxGeometry>
        </mxCell>
        <mxCell id="c9yHNogpHMQOPI-Mq2PM-81" value="" style="endArrow=none;html=1;rounded=0;fillColor=light-dark(#FFFFFF,#FF0000);strokeColor=light-dark(#000000,#00FF00);movable=1;resizable=1;rotatable=1;deletable=1;editable=1;locked=0;connectable=1;" parent="1" edge="1">
          <mxGeometry width="50" height="50" relative="1" as="geometry">
            <mxPoint x="510" y="530" as="sourcePoint" />
            <mxPoint x="470" y="530" as="targetPoint" />
          </mxGeometry>
        </mxCell>
        <mxCell id="c9yHNogpHMQOPI-Mq2PM-82" value="" style="endArrow=none;html=1;rounded=0;fillColor=light-dark(#FFFFFF,#FF0000);strokeColor=light-dark(#000000,#00FF00);movable=1;resizable=1;rotatable=1;deletable=1;editable=1;locked=0;connectable=1;" parent="1" edge="1">
          <mxGeometry width="50" height="50" relative="1" as="geometry">
            <mxPoint x="380" y="1280" as="sourcePoint" />
            <mxPoint x="340" y="1280" as="targetPoint" />
          </mxGeometry>
        </mxCell>
        <mxCell id="c9yHNogpHMQOPI-Mq2PM-83" value="" style="endArrow=none;html=1;rounded=0;fillColor=light-dark(#FFFFFF,#FF0000);strokeColor=light-dark(#000000,#00FF00);movable=1;resizable=1;rotatable=1;deletable=1;editable=1;locked=0;connectable=1;" parent="1" edge="1">
          <mxGeometry width="50" height="50" relative="1" as="geometry">
            <mxPoint x="390" y="1290" as="sourcePoint" />
            <mxPoint x="350" y="1290" as="targetPoint" />
          </mxGeometry>
        </mxCell>
        <mxCell id="c9yHNogpHMQOPI-Mq2PM-84" value="" style="endArrow=none;html=1;rounded=0;fillColor=light-dark(#FFFFFF,#FF0000);strokeColor=light-dark(#000000,#00FF00);movable=1;resizable=1;rotatable=1;deletable=1;editable=1;locked=0;connectable=1;" parent="1" edge="1">
          <mxGeometry width="50" height="50" relative="1" as="geometry">
            <mxPoint x="400" y="1300" as="sourcePoint" />
            <mxPoint x="360" y="1300" as="targetPoint" />
          </mxGeometry>
        </mxCell>
        <mxCell id="c9yHNogpHMQOPI-Mq2PM-85" value="" style="endArrow=none;html=1;rounded=0;fillColor=light-dark(#FFFFFF,#FF0000);strokeColor=light-dark(#000000,#00FF00);movable=1;resizable=1;rotatable=1;deletable=1;editable=1;locked=0;connectable=1;" parent="1" edge="1">
          <mxGeometry width="50" height="50" relative="1" as="geometry">
            <mxPoint x="160" y="654" as="sourcePoint" />
            <mxPoint x="160" y="614" as="targetPoint" />
          </mxGeometry>
        </mxCell>
        <mxCell id="c9yHNogpHMQOPI-Mq2PM-86" value="" style="endArrow=none;html=1;rounded=0;fillColor=light-dark(#FFFFFF,#FF0000);strokeColor=light-dark(#000000,#00FF00);movable=1;resizable=1;rotatable=1;deletable=1;editable=1;locked=0;connectable=1;" parent="1" edge="1">
          <mxGeometry width="50" height="50" relative="1" as="geometry">
            <mxPoint x="230" y="684" as="sourcePoint" />
            <mxPoint x="230" y="644" as="targetPoint" />
          </mxGeometry>
        </mxCell>
        <mxCell id="c9yHNogpHMQOPI-Mq2PM-87" value="" style="endArrow=none;html=1;rounded=0;fillColor=light-dark(#FFFFFF,#FF0000);strokeColor=light-dark(#000000,#00FF00);movable=1;resizable=1;rotatable=1;deletable=1;editable=1;locked=0;connectable=1;" parent="1" edge="1">
          <mxGeometry width="50" height="50" relative="1" as="geometry">
            <mxPoint x="270" y="684" as="sourcePoint" />
            <mxPoint x="270" y="644" as="targetPoint" />
          </mxGeometry>
        </mxCell>
        <mxCell id="c9yHNogpHMQOPI-Mq2PM-88" value="" style="endArrow=none;html=1;rounded=0;fillColor=light-dark(#FFFFFF,#FF0000);strokeColor=light-dark(#000000,#00FF00);movable=1;resizable=1;rotatable=1;deletable=1;editable=1;locked=0;connectable=1;" parent="1" edge="1">
          <mxGeometry width="50" height="50" relative="1" as="geometry">
            <mxPoint x="200" y="564" as="sourcePoint" />
            <mxPoint x="200" y="524" as="targetPoint" />
          </mxGeometry>
        </mxCell>
        <mxCell id="c9yHNogpHMQOPI-Mq2PM-89" value="" style="endArrow=none;html=1;rounded=0;fillColor=light-dark(#FFFFFF,#FF0000);strokeColor=light-dark(#000000,#00FF00);movable=1;resizable=1;rotatable=1;deletable=1;editable=1;locked=0;connectable=1;" parent="1" edge="1">
          <mxGeometry width="50" height="50" relative="1" as="geometry">
            <mxPoint x="214.82999999999998" y="564" as="sourcePoint" />
            <mxPoint x="214.82999999999998" y="524" as="targetPoint" />
          </mxGeometry>
        </mxCell>
        <mxCell id="c9yHNogpHMQOPI-Mq2PM-90" value="" style="endArrow=none;html=1;rounded=0;fillColor=light-dark(#FFFFFF,#FF0000);strokeColor=light-dark(#000000,#00FF00);movable=1;resizable=1;rotatable=1;deletable=1;editable=1;locked=0;connectable=1;" parent="1" edge="1">
          <mxGeometry width="50" height="50" relative="1" as="geometry">
            <mxPoint x="520" y="420" as="sourcePoint" />
            <mxPoint x="520" y="380" as="targetPoint" />
          </mxGeometry>
        </mxCell>
        <mxCell id="c9yHNogpHMQOPI-Mq2PM-91" value="" style="endArrow=none;html=1;rounded=0;fillColor=light-dark(#FFFFFF,#FF0000);strokeColor=light-dark(#000000,#00FF00);movable=1;resizable=1;rotatable=1;deletable=1;editable=1;locked=0;connectable=1;" parent="1" edge="1">
          <mxGeometry width="50" height="50" relative="1" as="geometry">
            <mxPoint x="480" y="420" as="sourcePoint" />
            <mxPoint x="480" y="380" as="targetPoint" />
          </mxGeometry>
        </mxCell>
        <mxCell id="c9yHNogpHMQOPI-Mq2PM-92" value="" style="endArrow=none;html=1;rounded=0;fillColor=light-dark(#FFFFFF,#FF0000);strokeColor=light-dark(#000000,#00FF00);movable=1;resizable=1;rotatable=1;deletable=1;editable=1;locked=0;connectable=1;" parent="1" edge="1">
          <mxGeometry width="50" height="50" relative="1" as="geometry">
            <mxPoint x="400" y="420" as="sourcePoint" />
            <mxPoint x="400" y="380" as="targetPoint" />
          </mxGeometry>
        </mxCell>
        <mxCell id="c9yHNogpHMQOPI-Mq2PM-93" value="" style="endArrow=none;html=1;rounded=0;fillColor=light-dark(#FFFFFF,#FF0000);strokeColor=light-dark(#000000,#00FF00);movable=1;resizable=1;rotatable=1;deletable=1;editable=1;locked=0;connectable=1;" parent="1" edge="1">
          <mxGeometry width="50" height="50" relative="1" as="geometry">
            <mxPoint x="320" y="420" as="sourcePoint" />
            <mxPoint x="320" y="380" as="targetPoint" />
          </mxGeometry>
        </mxCell>
        <mxCell id="c9yHNogpHMQOPI-Mq2PM-94" value="" style="endArrow=none;html=1;rounded=0;fillColor=light-dark(#FFFFFF,#FF0000);strokeColor=light-dark(#000000,#00FF00);movable=1;resizable=1;rotatable=1;deletable=1;editable=1;locked=0;connectable=1;" parent="1" edge="1">
          <mxGeometry width="50" height="50" relative="1" as="geometry">
            <mxPoint x="240" y="420" as="sourcePoint" />
            <mxPoint x="240" y="380" as="targetPoint" />
          </mxGeometry>
        </mxCell>
        <mxCell id="c9yHNogpHMQOPI-Mq2PM-95" value="&lt;i&gt;&lt;b&gt;NRZ-L&lt;/b&gt;&lt;/i&gt;" style="text;html=1;align=center;verticalAlign=middle;resizable=0;points=[];autosize=1;strokeColor=none;fillColor=none;" parent="1" vertex="1">
          <mxGeometry x="130" y="300" width="60" height="30" as="geometry" />
        </mxCell>
        <mxCell id="c9yHNogpHMQOPI-Mq2PM-96" value="&lt;i&gt;&lt;b&gt;NRZ-I&lt;/b&gt;&lt;/i&gt;" style="text;html=1;align=center;verticalAlign=middle;resizable=0;points=[];autosize=1;strokeColor=none;fillColor=none;" parent="1" vertex="1">
          <mxGeometry x="130" y="380" width="60" height="30" as="geometry" />
        </mxCell>
        <mxCell id="nm2eo2nv4SzdI6bSQcPC-1" value="" style="endArrow=classic;html=1;rounded=0;" edge="1" parent="1">
          <mxGeometry width="50" height="50" relative="1" as="geometry">
            <mxPoint x="280" y="1120" as="sourcePoint" />
            <mxPoint x="280" y="960" as="targetPoint" />
          </mxGeometry>
        </mxCell>
        <mxCell id="nm2eo2nv4SzdI6bSQcPC-2" value="" style="endArrow=classic;html=1;rounded=0;" edge="1" parent="1">
          <mxGeometry width="50" height="50" relative="1" as="geometry">
            <mxPoint x="280" y="1080" as="sourcePoint" />
            <mxPoint x="680" y="1080" as="targetPoint" />
          </mxGeometry>
        </mxCell>
        <mxCell id="nm2eo2nv4SzdI6bSQcPC-3" value="" style="endArrow=classic;html=1;rounded=0;" edge="1" parent="1">
          <mxGeometry width="50" height="50" relative="1" as="geometry">
            <mxPoint x="280" y="1000" as="sourcePoint" />
            <mxPoint x="680" y="1000" as="targetPoint" />
          </mxGeometry>
        </mxCell>
        <mxCell id="nm2eo2nv4SzdI6bSQcPC-4" value="" style="endArrow=none;dashed=1;html=1;rounded=0;" edge="1" parent="1">
          <mxGeometry width="50" height="50" relative="1" as="geometry">
            <mxPoint x="320" y="1120" as="sourcePoint" />
            <mxPoint x="320" y="960" as="targetPoint" />
          </mxGeometry>
        </mxCell>
        <mxCell id="nm2eo2nv4SzdI6bSQcPC-5" value="" style="endArrow=none;dashed=1;html=1;rounded=0;" edge="1" parent="1">
          <mxGeometry width="50" height="50" relative="1" as="geometry">
            <mxPoint x="640" y="1120" as="sourcePoint" />
            <mxPoint x="640" y="960" as="targetPoint" />
          </mxGeometry>
        </mxCell>
        <mxCell id="nm2eo2nv4SzdI6bSQcPC-6" value="" style="endArrow=none;dashed=1;html=1;rounded=0;" edge="1" parent="1">
          <mxGeometry width="50" height="50" relative="1" as="geometry">
            <mxPoint x="520" y="1120" as="sourcePoint" />
            <mxPoint x="520" y="960" as="targetPoint" />
          </mxGeometry>
        </mxCell>
        <mxCell id="nm2eo2nv4SzdI6bSQcPC-7" value="" style="endArrow=none;dashed=1;html=1;rounded=0;" edge="1" parent="1">
          <mxGeometry width="50" height="50" relative="1" as="geometry">
            <mxPoint x="560" y="1120" as="sourcePoint" />
            <mxPoint x="560" y="960" as="targetPoint" />
          </mxGeometry>
        </mxCell>
        <mxCell id="nm2eo2nv4SzdI6bSQcPC-8" value="" style="endArrow=none;dashed=1;html=1;rounded=0;" edge="1" parent="1">
          <mxGeometry width="50" height="50" relative="1" as="geometry">
            <mxPoint x="480" y="1120" as="sourcePoint" />
            <mxPoint x="480" y="960" as="targetPoint" />
          </mxGeometry>
        </mxCell>
        <mxCell id="nm2eo2nv4SzdI6bSQcPC-9" value="" style="endArrow=none;dashed=1;html=1;rounded=0;" edge="1" parent="1">
          <mxGeometry width="50" height="50" relative="1" as="geometry">
            <mxPoint x="440" y="1120" as="sourcePoint" />
            <mxPoint x="440" y="960" as="targetPoint" />
          </mxGeometry>
        </mxCell>
        <mxCell id="nm2eo2nv4SzdI6bSQcPC-10" value="" style="endArrow=none;dashed=1;html=1;rounded=0;" edge="1" parent="1">
          <mxGeometry width="50" height="50" relative="1" as="geometry">
            <mxPoint x="600" y="1120" as="sourcePoint" />
            <mxPoint x="600" y="960" as="targetPoint" />
          </mxGeometry>
        </mxCell>
        <mxCell id="nm2eo2nv4SzdI6bSQcPC-11" value="" style="endArrow=none;dashed=1;html=1;rounded=0;" edge="1" parent="1">
          <mxGeometry width="50" height="50" relative="1" as="geometry">
            <mxPoint x="400" y="1120" as="sourcePoint" />
            <mxPoint x="400" y="960" as="targetPoint" />
          </mxGeometry>
        </mxCell>
        <mxCell id="nm2eo2nv4SzdI6bSQcPC-12" value="" style="endArrow=none;dashed=1;html=1;rounded=0;" edge="1" parent="1">
          <mxGeometry width="50" height="50" relative="1" as="geometry">
            <mxPoint x="360" y="1120" as="sourcePoint" />
            <mxPoint x="360" y="960" as="targetPoint" />
          </mxGeometry>
        </mxCell>
        <mxCell id="nm2eo2nv4SzdI6bSQcPC-13" value="1" style="text;html=1;align=center;verticalAlign=middle;resizable=0;points=[];autosize=1;strokeColor=none;fillColor=none;" vertex="1" parent="1">
          <mxGeometry x="610" y="920" width="30" height="30" as="geometry" />
        </mxCell>
        <mxCell id="nm2eo2nv4SzdI6bSQcPC-14" value="0" style="text;html=1;align=center;verticalAlign=middle;resizable=0;points=[];autosize=1;strokeColor=none;fillColor=none;" vertex="1" parent="1">
          <mxGeometry x="530" y="920" width="30" height="30" as="geometry" />
        </mxCell>
        <mxCell id="nm2eo2nv4SzdI6bSQcPC-15" value="1" style="text;html=1;align=center;verticalAlign=middle;resizable=0;points=[];autosize=1;strokeColor=none;fillColor=none;" vertex="1" parent="1">
          <mxGeometry x="490" y="920" width="30" height="30" as="geometry" />
        </mxCell>
        <mxCell id="nm2eo2nv4SzdI6bSQcPC-16" value="1" style="text;html=1;align=center;verticalAlign=middle;resizable=0;points=[];autosize=1;strokeColor=none;fillColor=none;" vertex="1" parent="1">
          <mxGeometry x="450" y="920" width="30" height="30" as="geometry" />
        </mxCell>
        <mxCell id="nm2eo2nv4SzdI6bSQcPC-17" value="1" style="text;html=1;align=center;verticalAlign=middle;resizable=0;points=[];autosize=1;strokeColor=none;fillColor=none;" vertex="1" parent="1">
          <mxGeometry x="290" y="920" width="30" height="30" as="geometry" />
        </mxCell>
        <mxCell id="nm2eo2nv4SzdI6bSQcPC-18" value="0" style="text;html=1;align=center;verticalAlign=middle;resizable=0;points=[];autosize=1;strokeColor=none;fillColor=none;" vertex="1" parent="1">
          <mxGeometry x="410" y="920" width="30" height="30" as="geometry" />
        </mxCell>
        <mxCell id="nm2eo2nv4SzdI6bSQcPC-19" value="1" style="text;html=1;align=center;verticalAlign=middle;resizable=0;points=[];autosize=1;strokeColor=none;fillColor=none;" vertex="1" parent="1">
          <mxGeometry x="370" y="920" width="30" height="30" as="geometry" />
        </mxCell>
        <mxCell id="nm2eo2nv4SzdI6bSQcPC-20" value="0" style="text;html=1;align=center;verticalAlign=middle;resizable=0;points=[];autosize=1;strokeColor=none;fillColor=none;" vertex="1" parent="1">
          <mxGeometry x="330" y="920" width="30" height="30" as="geometry" />
        </mxCell>
        <mxCell id="nm2eo2nv4SzdI6bSQcPC-21" value="0" style="text;html=1;align=center;verticalAlign=middle;resizable=0;points=[];autosize=1;strokeColor=none;fillColor=none;" vertex="1" parent="1">
          <mxGeometry x="570" y="920" width="30" height="30" as="geometry" />
        </mxCell>
        <mxCell id="nm2eo2nv4SzdI6bSQcPC-23" value="" style="endArrow=none;html=1;rounded=0;fillColor=light-dark(#FFFFFF,#FF0000);strokeColor=light-dark(#000000,#FF0000);" edge="1" parent="1">
          <mxGeometry width="50" height="50" relative="1" as="geometry">
            <mxPoint x="400" y="1020" as="sourcePoint" />
            <mxPoint x="400" y="980" as="targetPoint" />
          </mxGeometry>
        </mxCell>
        <mxCell id="nm2eo2nv4SzdI6bSQcPC-24" value="" style="endArrow=none;html=1;rounded=0;fillColor=light-dark(#FFFFFF,#FF0000);strokeColor=light-dark(#000000,#FF0000);" edge="1" parent="1">
          <mxGeometry width="50" height="50" relative="1" as="geometry">
            <mxPoint x="640" y="1020" as="sourcePoint" />
            <mxPoint x="600" y="1020" as="targetPoint" />
          </mxGeometry>
        </mxCell>
        <mxCell id="nm2eo2nv4SzdI6bSQcPC-25" value="" style="endArrow=none;html=1;rounded=0;fillColor=light-dark(#FFFFFF,#FF0000);strokeColor=light-dark(#000000,#FF0000);" edge="1" parent="1">
          <mxGeometry width="50" height="50" relative="1" as="geometry">
            <mxPoint x="440" y="980" as="sourcePoint" />
            <mxPoint x="400" y="980" as="targetPoint" />
          </mxGeometry>
        </mxCell>
        <mxCell id="nm2eo2nv4SzdI6bSQcPC-26" value="" style="endArrow=none;html=1;rounded=0;fillColor=light-dark(#FFFFFF,#FF0000);strokeColor=light-dark(#000000,#FF0000);" edge="1" parent="1">
          <mxGeometry width="50" height="50" relative="1" as="geometry">
            <mxPoint x="440" y="980" as="sourcePoint" />
            <mxPoint x="440" y="1020" as="targetPoint" />
          </mxGeometry>
        </mxCell>
        <mxCell id="nm2eo2nv4SzdI6bSQcPC-27" value="" style="endArrow=none;html=1;rounded=0;fillColor=light-dark(#FFFFFF,#FF0000);strokeColor=light-dark(#000000,#FF0000);" edge="1" parent="1">
          <mxGeometry width="50" height="50" relative="1" as="geometry">
            <mxPoint x="480" y="1020" as="sourcePoint" />
            <mxPoint x="440" y="1020" as="targetPoint" />
          </mxGeometry>
        </mxCell>
        <mxCell id="nm2eo2nv4SzdI6bSQcPC-28" value="" style="endArrow=none;html=1;rounded=0;fillColor=light-dark(#FFFFFF,#FF0000);strokeColor=light-dark(#000000,#FF0000);" edge="1" parent="1">
          <mxGeometry width="50" height="50" relative="1" as="geometry">
            <mxPoint x="600" y="1020" as="sourcePoint" />
            <mxPoint x="600" y="980" as="targetPoint" />
          </mxGeometry>
        </mxCell>
        <mxCell id="nm2eo2nv4SzdI6bSQcPC-29" value="" style="endArrow=none;html=1;rounded=0;fillColor=light-dark(#FFFFFF,#FF0000);strokeColor=light-dark(#000000,#FF0000);" edge="1" parent="1">
          <mxGeometry width="50" height="50" relative="1" as="geometry">
            <mxPoint x="520" y="1020" as="sourcePoint" />
            <mxPoint x="480" y="1020" as="targetPoint" />
          </mxGeometry>
        </mxCell>
        <mxCell id="nm2eo2nv4SzdI6bSQcPC-30" value="" style="endArrow=none;html=1;rounded=0;fillColor=light-dark(#FFFFFF,#FF0000);strokeColor=light-dark(#000000,#FF0000);" edge="1" parent="1">
          <mxGeometry width="50" height="50" relative="1" as="geometry">
            <mxPoint x="550" y="870" as="sourcePoint" />
            <mxPoint x="550" y="830" as="targetPoint" />
          </mxGeometry>
        </mxCell>
        <mxCell id="nm2eo2nv4SzdI6bSQcPC-31" value="" style="endArrow=none;html=1;rounded=0;fillColor=light-dark(#FFFFFF,#FF0000);strokeColor=light-dark(#000000,#FF0000);" edge="1" parent="1">
          <mxGeometry width="50" height="50" relative="1" as="geometry">
            <mxPoint x="520" y="980" as="sourcePoint" />
            <mxPoint x="520" y="1020" as="targetPoint" />
          </mxGeometry>
        </mxCell>
        <mxCell id="nm2eo2nv4SzdI6bSQcPC-32" value="" style="endArrow=none;html=1;rounded=0;fillColor=light-dark(#FFFFFF,#FF0000);strokeColor=light-dark(#000000,#FF0000);" edge="1" parent="1">
          <mxGeometry width="50" height="50" relative="1" as="geometry">
            <mxPoint x="720" y="1250" as="sourcePoint" />
            <mxPoint x="720" y="1210" as="targetPoint" />
          </mxGeometry>
        </mxCell>
        <mxCell id="nm2eo2nv4SzdI6bSQcPC-33" value="" style="endArrow=none;html=1;rounded=0;fillColor=light-dark(#FFFFFF,#FF0000);strokeColor=light-dark(#000000,#FF0000);" edge="1" parent="1">
          <mxGeometry width="50" height="50" relative="1" as="geometry">
            <mxPoint x="680" y="890" as="sourcePoint" />
            <mxPoint x="640" y="890" as="targetPoint" />
            <Array as="points">
              <mxPoint x="660" y="890" />
            </Array>
          </mxGeometry>
        </mxCell>
        <mxCell id="nm2eo2nv4SzdI6bSQcPC-35" value="" style="endArrow=none;html=1;rounded=0;fillColor=light-dark(#FFFFFF,#FF0000);strokeColor=light-dark(#000000,#00FF00);movable=1;resizable=1;rotatable=1;deletable=1;editable=1;locked=0;connectable=1;" edge="1" parent="1">
          <mxGeometry width="50" height="50" relative="1" as="geometry">
            <mxPoint x="480" y="1100" as="sourcePoint" />
            <mxPoint x="440" y="1100" as="targetPoint" />
          </mxGeometry>
        </mxCell>
        <mxCell id="nm2eo2nv4SzdI6bSQcPC-36" value="" style="endArrow=none;html=1;rounded=0;fillColor=light-dark(#FFFFFF,#FF0000);strokeColor=light-dark(#000000,#00FF00);movable=1;resizable=1;rotatable=1;deletable=1;editable=1;locked=0;connectable=1;" edge="1" parent="1">
          <mxGeometry width="50" height="50" relative="1" as="geometry">
            <mxPoint x="440" y="1060" as="sourcePoint" />
            <mxPoint x="360" y="1060" as="targetPoint" />
          </mxGeometry>
        </mxCell>
        <mxCell id="nm2eo2nv4SzdI6bSQcPC-37" value="" style="endArrow=none;html=1;rounded=0;fillColor=light-dark(#FFFFFF,#FF0000);strokeColor=light-dark(#000000,#00FF00);movable=1;resizable=1;rotatable=1;deletable=1;editable=1;locked=0;connectable=1;" edge="1" parent="1">
          <mxGeometry width="50" height="50" relative="1" as="geometry">
            <mxPoint x="360" y="1100" as="sourcePoint" />
            <mxPoint x="280" y="1100" as="targetPoint" />
          </mxGeometry>
        </mxCell>
        <mxCell id="nm2eo2nv4SzdI6bSQcPC-38" value="" style="endArrow=none;html=1;rounded=0;fillColor=light-dark(#FFFFFF,#FF0000);strokeColor=light-dark(#000000,#00FF00);movable=1;resizable=1;rotatable=1;deletable=1;editable=1;locked=0;connectable=1;" edge="1" parent="1">
          <mxGeometry width="50" height="50" relative="1" as="geometry">
            <mxPoint x="560" y="1060" as="sourcePoint" />
            <mxPoint x="480" y="1060" as="targetPoint" />
          </mxGeometry>
        </mxCell>
        <mxCell id="nm2eo2nv4SzdI6bSQcPC-39" value="" style="endArrow=none;html=1;rounded=0;fillColor=light-dark(#FFFFFF,#FF0000);strokeColor=light-dark(#000000,#00FF00);movable=1;resizable=1;rotatable=1;deletable=1;editable=1;locked=0;connectable=1;" edge="1" parent="1">
          <mxGeometry width="50" height="50" relative="1" as="geometry">
            <mxPoint x="600" y="1060" as="sourcePoint" />
            <mxPoint x="560" y="1060" as="targetPoint" />
          </mxGeometry>
        </mxCell>
        <mxCell id="nm2eo2nv4SzdI6bSQcPC-40" value="" style="endArrow=none;html=1;rounded=0;fillColor=light-dark(#FFFFFF,#FF0000);strokeColor=light-dark(#000000,#00FF00);movable=1;resizable=1;rotatable=1;deletable=1;editable=1;locked=0;connectable=1;" edge="1" parent="1">
          <mxGeometry width="50" height="50" relative="1" as="geometry">
            <mxPoint x="640" y="1100" as="sourcePoint" />
            <mxPoint x="600" y="1100" as="targetPoint" />
          </mxGeometry>
        </mxCell>
        <mxCell id="nm2eo2nv4SzdI6bSQcPC-41" value="" style="endArrow=none;html=1;rounded=0;fillColor=light-dark(#FFFFFF,#FF0000);strokeColor=light-dark(#000000,#00FF00);movable=1;resizable=1;rotatable=1;deletable=1;editable=1;locked=0;connectable=1;" edge="1" parent="1">
          <mxGeometry width="50" height="50" relative="1" as="geometry">
            <mxPoint x="600" y="1100" as="sourcePoint" />
            <mxPoint x="600" y="1060" as="targetPoint" />
          </mxGeometry>
        </mxCell>
        <mxCell id="nm2eo2nv4SzdI6bSQcPC-42" value="" style="endArrow=none;html=1;rounded=0;fillColor=light-dark(#FFFFFF,#FF0000);strokeColor=light-dark(#000000,#00FF00);movable=1;resizable=1;rotatable=1;deletable=1;editable=1;locked=0;connectable=1;" edge="1" parent="1">
          <mxGeometry width="50" height="50" relative="1" as="geometry">
            <mxPoint x="700" y="1250" as="sourcePoint" />
            <mxPoint x="700" y="1210" as="targetPoint" />
          </mxGeometry>
        </mxCell>
        <mxCell id="nm2eo2nv4SzdI6bSQcPC-43" value="" style="endArrow=none;html=1;rounded=0;fillColor=light-dark(#FFFFFF,#FF0000);strokeColor=light-dark(#000000,#00FF00);movable=1;resizable=1;rotatable=1;deletable=1;editable=1;locked=0;connectable=1;" edge="1" parent="1">
          <mxGeometry width="50" height="50" relative="1" as="geometry">
            <mxPoint x="480" y="1100" as="sourcePoint" />
            <mxPoint x="480" y="1060" as="targetPoint" />
          </mxGeometry>
        </mxCell>
        <mxCell id="nm2eo2nv4SzdI6bSQcPC-44" value="" style="endArrow=none;html=1;rounded=0;fillColor=light-dark(#FFFFFF,#FF0000);strokeColor=light-dark(#000000,#00FF00);movable=1;resizable=1;rotatable=1;deletable=1;editable=1;locked=0;connectable=1;" edge="1" parent="1">
          <mxGeometry width="50" height="50" relative="1" as="geometry">
            <mxPoint x="360" y="1100" as="sourcePoint" />
            <mxPoint x="360" y="1060" as="targetPoint" />
          </mxGeometry>
        </mxCell>
        <mxCell id="nm2eo2nv4SzdI6bSQcPC-45" value="" style="endArrow=none;html=1;rounded=0;fillColor=light-dark(#FFFFFF,#FF0000);strokeColor=light-dark(#000000,#00FF00);movable=1;resizable=1;rotatable=1;deletable=1;editable=1;locked=0;connectable=1;" edge="1" parent="1">
          <mxGeometry width="50" height="50" relative="1" as="geometry">
            <mxPoint x="440" y="1100" as="sourcePoint" />
            <mxPoint x="440" y="1060" as="targetPoint" />
          </mxGeometry>
        </mxCell>
        <mxCell id="nm2eo2nv4SzdI6bSQcPC-46" value="&lt;i&gt;&lt;b&gt;NRZ-L&lt;/b&gt;&lt;/i&gt;" style="text;html=1;align=center;verticalAlign=middle;resizable=0;points=[];autosize=1;strokeColor=none;fillColor=none;" vertex="1" parent="1">
          <mxGeometry x="210" y="980" width="60" height="30" as="geometry" />
        </mxCell>
        <mxCell id="nm2eo2nv4SzdI6bSQcPC-47" value="&lt;i&gt;&lt;b&gt;NRZ-I&lt;/b&gt;&lt;/i&gt;" style="text;html=1;align=center;verticalAlign=middle;resizable=0;points=[];autosize=1;strokeColor=none;fillColor=none;" vertex="1" parent="1">
          <mxGeometry x="210" y="1060" width="60" height="30" as="geometry" />
        </mxCell>
        <mxCell id="nm2eo2nv4SzdI6bSQcPC-48" value="" style="endArrow=none;html=1;rounded=0;fillColor=light-dark(#FFFFFF,#FF0000);strokeColor=light-dark(#000000,#FF0000);movable=1;resizable=1;rotatable=1;deletable=1;editable=1;locked=0;connectable=1;" edge="1" parent="1">
          <mxGeometry width="50" height="50" relative="1" as="geometry">
            <mxPoint x="360" y="980" as="sourcePoint" />
            <mxPoint x="320" y="980" as="targetPoint" />
          </mxGeometry>
        </mxCell>
        <mxCell id="nm2eo2nv4SzdI6bSQcPC-49" value="" style="endArrow=none;html=1;rounded=0;fillColor=light-dark(#FFFFFF,#FF0000);strokeColor=light-dark(#000000,#FF0000);movable=1;resizable=1;rotatable=1;deletable=1;editable=1;locked=0;connectable=1;" edge="1" parent="1">
          <mxGeometry width="50" height="50" relative="1" as="geometry">
            <mxPoint x="330" y="1190" as="sourcePoint" />
            <mxPoint x="290" y="1190" as="targetPoint" />
          </mxGeometry>
        </mxCell>
        <mxCell id="nm2eo2nv4SzdI6bSQcPC-50" value="" style="endArrow=none;html=1;rounded=0;fillColor=light-dark(#FFFFFF,#FF0000);strokeColor=light-dark(#000000,#FF0000);movable=1;resizable=1;rotatable=1;deletable=1;editable=1;locked=0;connectable=1;" edge="1" parent="1">
          <mxGeometry width="50" height="50" relative="1" as="geometry">
            <mxPoint x="340" y="1200" as="sourcePoint" />
            <mxPoint x="300" y="1200" as="targetPoint" />
          </mxGeometry>
        </mxCell>
        <mxCell id="nm2eo2nv4SzdI6bSQcPC-51" value="" style="endArrow=none;html=1;rounded=0;fillColor=light-dark(#FFFFFF,#FF0000);strokeColor=light-dark(#000000,#FF0000);movable=1;resizable=1;rotatable=1;deletable=1;editable=1;locked=0;connectable=1;" edge="1" parent="1">
          <mxGeometry width="50" height="50" relative="1" as="geometry">
            <mxPoint x="350" y="1210" as="sourcePoint" />
            <mxPoint x="310" y="1210" as="targetPoint" />
          </mxGeometry>
        </mxCell>
        <mxCell id="nm2eo2nv4SzdI6bSQcPC-52" value="" style="endArrow=none;html=1;rounded=0;fillColor=light-dark(#FFFFFF,#FF0000);strokeColor=light-dark(#000000,#FF0000);movable=1;resizable=1;rotatable=1;deletable=1;editable=1;locked=0;connectable=1;" edge="1" parent="1">
          <mxGeometry width="50" height="50" relative="1" as="geometry">
            <mxPoint x="360" y="1220" as="sourcePoint" />
            <mxPoint x="320" y="1220" as="targetPoint" />
          </mxGeometry>
        </mxCell>
        <mxCell id="nm2eo2nv4SzdI6bSQcPC-53" value="" style="endArrow=none;html=1;rounded=0;fillColor=light-dark(#FFFFFF,#FF0000);strokeColor=light-dark(#000000,#FF0000);movable=1;resizable=1;rotatable=1;deletable=1;editable=1;locked=0;connectable=1;" edge="1" parent="1">
          <mxGeometry width="50" height="50" relative="1" as="geometry">
            <mxPoint x="360" y="1020" as="sourcePoint" />
            <mxPoint x="360" y="980" as="targetPoint" />
          </mxGeometry>
        </mxCell>
        <mxCell id="nm2eo2nv4SzdI6bSQcPC-54" value="" style="endArrow=none;html=1;rounded=0;fillColor=light-dark(#FFFFFF,#FF0000);strokeColor=light-dark(#000000,#FF0000);movable=1;resizable=1;rotatable=1;deletable=1;editable=1;locked=0;connectable=1;" edge="1" parent="1">
          <mxGeometry width="50" height="50" relative="1" as="geometry">
            <mxPoint x="480" y="1240" as="sourcePoint" />
            <mxPoint x="480" y="1200" as="targetPoint" />
          </mxGeometry>
        </mxCell>
        <mxCell id="nm2eo2nv4SzdI6bSQcPC-55" value="" style="endArrow=none;html=1;rounded=0;fillColor=light-dark(#FFFFFF,#FF0000);strokeColor=light-dark(#000000,#FF0000);" edge="1" parent="1">
          <mxGeometry width="50" height="50" relative="1" as="geometry">
            <mxPoint x="650" y="1230" as="sourcePoint" />
            <mxPoint x="570" y="1230" as="targetPoint" />
          </mxGeometry>
        </mxCell>
        <mxCell id="nm2eo2nv4SzdI6bSQcPC-56" value="" style="endArrow=none;html=1;rounded=0;fillColor=light-dark(#FFFFFF,#FF0000);strokeColor=light-dark(#000000,#FF0000);" edge="1" parent="1">
          <mxGeometry width="50" height="50" relative="1" as="geometry">
            <mxPoint x="660" y="1240" as="sourcePoint" />
            <mxPoint x="580" y="1240" as="targetPoint" />
          </mxGeometry>
        </mxCell>
        <mxCell id="nm2eo2nv4SzdI6bSQcPC-57" value="" style="endArrow=none;html=1;rounded=0;fillColor=light-dark(#FFFFFF,#FF0000);strokeColor=light-dark(#000000,#FF0000);" edge="1" parent="1">
          <mxGeometry width="50" height="50" relative="1" as="geometry">
            <mxPoint x="670" y="1250" as="sourcePoint" />
            <mxPoint x="590" y="1250" as="targetPoint" />
          </mxGeometry>
        </mxCell>
        <mxCell id="nm2eo2nv4SzdI6bSQcPC-58" value="" style="endArrow=none;html=1;rounded=0;fillColor=light-dark(#FFFFFF,#FF0000);strokeColor=light-dark(#000000,#FF0000);movable=1;resizable=1;rotatable=1;deletable=1;editable=1;locked=0;connectable=1;" edge="1" parent="1">
          <mxGeometry width="50" height="50" relative="1" as="geometry">
            <mxPoint x="320" y="1020" as="sourcePoint" />
            <mxPoint x="280" y="1020" as="targetPoint" />
          </mxGeometry>
        </mxCell>
        <mxCell id="nm2eo2nv4SzdI6bSQcPC-59" value="" style="endArrow=none;html=1;rounded=0;fillColor=light-dark(#FFFFFF,#FF0000);strokeColor=light-dark(#000000,#FF0000);movable=1;resizable=1;rotatable=1;deletable=1;editable=1;locked=0;connectable=1;" edge="1" parent="1">
          <mxGeometry width="50" height="50" relative="1" as="geometry">
            <mxPoint x="640" y="880" as="sourcePoint" />
            <mxPoint x="600" y="880" as="targetPoint" />
          </mxGeometry>
        </mxCell>
        <mxCell id="nm2eo2nv4SzdI6bSQcPC-60" value="" style="endArrow=none;html=1;rounded=0;fillColor=light-dark(#FFFFFF,#FF0000);strokeColor=light-dark(#000000,#FF0000);movable=1;resizable=1;rotatable=1;deletable=1;editable=1;locked=0;connectable=1;" edge="1" parent="1">
          <mxGeometry width="50" height="50" relative="1" as="geometry">
            <mxPoint x="340" y="1200" as="sourcePoint" />
            <mxPoint x="300" y="1200" as="targetPoint" />
          </mxGeometry>
        </mxCell>
        <mxCell id="nm2eo2nv4SzdI6bSQcPC-61" value="" style="endArrow=none;html=1;rounded=0;fillColor=light-dark(#FFFFFF,#FF0000);strokeColor=light-dark(#000000,#FF0000);movable=1;resizable=1;rotatable=1;deletable=1;editable=1;locked=0;connectable=1;" edge="1" parent="1">
          <mxGeometry width="50" height="50" relative="1" as="geometry">
            <mxPoint x="350" y="1210" as="sourcePoint" />
            <mxPoint x="310" y="1210" as="targetPoint" />
          </mxGeometry>
        </mxCell>
        <mxCell id="nm2eo2nv4SzdI6bSQcPC-62" value="" style="endArrow=none;html=1;rounded=0;fillColor=light-dark(#FFFFFF,#FF0000);strokeColor=light-dark(#000000,#FF0000);movable=1;resizable=1;rotatable=1;deletable=1;editable=1;locked=0;connectable=1;" edge="1" parent="1">
          <mxGeometry width="50" height="50" relative="1" as="geometry">
            <mxPoint x="360" y="1220" as="sourcePoint" />
            <mxPoint x="320" y="1220" as="targetPoint" />
          </mxGeometry>
        </mxCell>
        <mxCell id="nm2eo2nv4SzdI6bSQcPC-63" value="" style="endArrow=none;html=1;rounded=0;fillColor=light-dark(#FFFFFF,#FF0000);strokeColor=light-dark(#000000,#FF0000);movable=1;resizable=1;rotatable=1;deletable=1;editable=1;locked=0;connectable=1;" edge="1" parent="1">
          <mxGeometry width="50" height="50" relative="1" as="geometry">
            <mxPoint x="400" y="1020" as="sourcePoint" />
            <mxPoint x="360" y="1020" as="targetPoint" />
          </mxGeometry>
        </mxCell>
        <mxCell id="nm2eo2nv4SzdI6bSQcPC-64" value="" style="endArrow=none;html=1;rounded=0;fillColor=light-dark(#FFFFFF,#FF0000);strokeColor=light-dark(#000000,#FF0000);movable=1;resizable=1;rotatable=1;deletable=1;editable=1;locked=0;connectable=1;" edge="1" parent="1">
          <mxGeometry width="50" height="50" relative="1" as="geometry">
            <mxPoint x="340" y="1200" as="sourcePoint" />
            <mxPoint x="300" y="1200" as="targetPoint" />
          </mxGeometry>
        </mxCell>
        <mxCell id="nm2eo2nv4SzdI6bSQcPC-65" value="" style="endArrow=none;html=1;rounded=0;fillColor=light-dark(#FFFFFF,#FF0000);strokeColor=light-dark(#000000,#FF0000);movable=1;resizable=1;rotatable=1;deletable=1;editable=1;locked=0;connectable=1;" edge="1" parent="1">
          <mxGeometry width="50" height="50" relative="1" as="geometry">
            <mxPoint x="350" y="1210" as="sourcePoint" />
            <mxPoint x="310" y="1210" as="targetPoint" />
          </mxGeometry>
        </mxCell>
        <mxCell id="nm2eo2nv4SzdI6bSQcPC-66" value="" style="endArrow=none;html=1;rounded=0;fillColor=light-dark(#FFFFFF,#FF0000);strokeColor=light-dark(#000000,#FF0000);movable=1;resizable=1;rotatable=1;deletable=1;editable=1;locked=0;connectable=1;" edge="1" parent="1">
          <mxGeometry width="50" height="50" relative="1" as="geometry">
            <mxPoint x="360" y="1220" as="sourcePoint" />
            <mxPoint x="320" y="1220" as="targetPoint" />
          </mxGeometry>
        </mxCell>
        <mxCell id="nm2eo2nv4SzdI6bSQcPC-67" value="" style="endArrow=none;html=1;rounded=0;fillColor=light-dark(#FFFFFF,#FF0000);strokeColor=light-dark(#000000,#FF0000);movable=1;resizable=1;rotatable=1;deletable=1;editable=1;locked=0;connectable=1;" edge="1" parent="1">
          <mxGeometry width="50" height="50" relative="1" as="geometry">
            <mxPoint x="370" y="1230" as="sourcePoint" />
            <mxPoint x="330" y="1230" as="targetPoint" />
          </mxGeometry>
        </mxCell>
        <mxCell id="nm2eo2nv4SzdI6bSQcPC-68" value="" style="endArrow=none;html=1;rounded=0;fillColor=light-dark(#FFFFFF,#FF0000);strokeColor=light-dark(#000000,#FF0000);movable=1;resizable=1;rotatable=1;deletable=1;editable=1;locked=0;connectable=1;" edge="1" parent="1">
          <mxGeometry width="50" height="50" relative="1" as="geometry">
            <mxPoint x="340" y="1200" as="sourcePoint" />
            <mxPoint x="300" y="1200" as="targetPoint" />
          </mxGeometry>
        </mxCell>
        <mxCell id="nm2eo2nv4SzdI6bSQcPC-69" value="" style="endArrow=none;html=1;rounded=0;fillColor=light-dark(#FFFFFF,#FF0000);strokeColor=light-dark(#000000,#FF0000);movable=1;resizable=1;rotatable=1;deletable=1;editable=1;locked=0;connectable=1;" edge="1" parent="1">
          <mxGeometry width="50" height="50" relative="1" as="geometry">
            <mxPoint x="350" y="1210" as="sourcePoint" />
            <mxPoint x="310" y="1210" as="targetPoint" />
          </mxGeometry>
        </mxCell>
        <mxCell id="nm2eo2nv4SzdI6bSQcPC-70" value="" style="endArrow=none;html=1;rounded=0;fillColor=light-dark(#FFFFFF,#FF0000);strokeColor=light-dark(#000000,#FF0000);movable=1;resizable=1;rotatable=1;deletable=1;editable=1;locked=0;connectable=1;" edge="1" parent="1">
          <mxGeometry width="50" height="50" relative="1" as="geometry">
            <mxPoint x="360" y="1220" as="sourcePoint" />
            <mxPoint x="320" y="1220" as="targetPoint" />
          </mxGeometry>
        </mxCell>
        <mxCell id="nm2eo2nv4SzdI6bSQcPC-71" value="" style="endArrow=none;html=1;rounded=0;fillColor=light-dark(#FFFFFF,#FF0000);strokeColor=light-dark(#000000,#FF0000);movable=1;resizable=1;rotatable=1;deletable=1;editable=1;locked=0;connectable=1;" edge="1" parent="1">
          <mxGeometry width="50" height="50" relative="1" as="geometry">
            <mxPoint x="370" y="1230" as="sourcePoint" />
            <mxPoint x="330" y="1230" as="targetPoint" />
          </mxGeometry>
        </mxCell>
        <mxCell id="nm2eo2nv4SzdI6bSQcPC-72" value="" style="endArrow=none;html=1;rounded=0;fillColor=light-dark(#FFFFFF,#FF0000);strokeColor=light-dark(#000000,#FF0000);movable=1;resizable=1;rotatable=1;deletable=1;editable=1;locked=0;connectable=1;" edge="1" parent="1">
          <mxGeometry width="50" height="50" relative="1" as="geometry">
            <mxPoint x="380" y="1240" as="sourcePoint" />
            <mxPoint x="340" y="1240" as="targetPoint" />
          </mxGeometry>
        </mxCell>
        <mxCell id="nm2eo2nv4SzdI6bSQcPC-73" value="" style="endArrow=none;html=1;rounded=0;fillColor=light-dark(#FFFFFF,#FF0000);strokeColor=light-dark(#000000,#FF0000);movable=1;resizable=1;rotatable=1;deletable=1;editable=1;locked=0;connectable=1;" edge="1" parent="1">
          <mxGeometry width="50" height="50" relative="1" as="geometry">
            <mxPoint x="350" y="1210" as="sourcePoint" />
            <mxPoint x="310" y="1210" as="targetPoint" />
          </mxGeometry>
        </mxCell>
        <mxCell id="nm2eo2nv4SzdI6bSQcPC-74" value="" style="endArrow=none;html=1;rounded=0;fillColor=light-dark(#FFFFFF,#FF0000);strokeColor=light-dark(#000000,#FF0000);movable=1;resizable=1;rotatable=1;deletable=1;editable=1;locked=0;connectable=1;" edge="1" parent="1">
          <mxGeometry width="50" height="50" relative="1" as="geometry">
            <mxPoint x="360" y="1220" as="sourcePoint" />
            <mxPoint x="320" y="1220" as="targetPoint" />
          </mxGeometry>
        </mxCell>
        <mxCell id="nm2eo2nv4SzdI6bSQcPC-75" value="" style="endArrow=none;html=1;rounded=0;fillColor=light-dark(#FFFFFF,#FF0000);strokeColor=light-dark(#000000,#FF0000);movable=1;resizable=1;rotatable=1;deletable=1;editable=1;locked=0;connectable=1;" edge="1" parent="1">
          <mxGeometry width="50" height="50" relative="1" as="geometry">
            <mxPoint x="370" y="1230" as="sourcePoint" />
            <mxPoint x="330" y="1230" as="targetPoint" />
          </mxGeometry>
        </mxCell>
        <mxCell id="nm2eo2nv4SzdI6bSQcPC-76" value="" style="endArrow=none;html=1;rounded=0;fillColor=light-dark(#FFFFFF,#FF0000);strokeColor=light-dark(#000000,#FF0000);movable=1;resizable=1;rotatable=1;deletable=1;editable=1;locked=0;connectable=1;" edge="1" parent="1">
          <mxGeometry width="50" height="50" relative="1" as="geometry">
            <mxPoint x="380" y="1240" as="sourcePoint" />
            <mxPoint x="340" y="1240" as="targetPoint" />
          </mxGeometry>
        </mxCell>
        <mxCell id="nm2eo2nv4SzdI6bSQcPC-77" value="" style="endArrow=none;html=1;rounded=0;fillColor=light-dark(#FFFFFF,#FF0000);strokeColor=light-dark(#000000,#FF0000);movable=1;resizable=1;rotatable=1;deletable=1;editable=1;locked=0;connectable=1;" edge="1" parent="1">
          <mxGeometry width="50" height="50" relative="1" as="geometry">
            <mxPoint x="390" y="1250" as="sourcePoint" />
            <mxPoint x="350" y="1250" as="targetPoint" />
          </mxGeometry>
        </mxCell>
        <mxCell id="nm2eo2nv4SzdI6bSQcPC-78" value="" style="endArrow=none;html=1;rounded=0;fillColor=light-dark(#FFFFFF,#FF0000);strokeColor=light-dark(#000000,#FF0000);movable=1;resizable=1;rotatable=1;deletable=1;editable=1;locked=0;connectable=1;" edge="1" parent="1">
          <mxGeometry width="50" height="50" relative="1" as="geometry">
            <mxPoint x="360" y="1220" as="sourcePoint" />
            <mxPoint x="320" y="1220" as="targetPoint" />
          </mxGeometry>
        </mxCell>
        <mxCell id="nm2eo2nv4SzdI6bSQcPC-79" value="" style="endArrow=none;html=1;rounded=0;fillColor=light-dark(#FFFFFF,#FF0000);strokeColor=light-dark(#000000,#FF0000);movable=1;resizable=1;rotatable=1;deletable=1;editable=1;locked=0;connectable=1;" edge="1" parent="1">
          <mxGeometry width="50" height="50" relative="1" as="geometry">
            <mxPoint x="370" y="1230" as="sourcePoint" />
            <mxPoint x="330" y="1230" as="targetPoint" />
          </mxGeometry>
        </mxCell>
        <mxCell id="nm2eo2nv4SzdI6bSQcPC-80" value="" style="endArrow=none;html=1;rounded=0;fillColor=light-dark(#FFFFFF,#FF0000);strokeColor=light-dark(#000000,#FF0000);movable=1;resizable=1;rotatable=1;deletable=1;editable=1;locked=0;connectable=1;" edge="1" parent="1">
          <mxGeometry width="50" height="50" relative="1" as="geometry">
            <mxPoint x="380" y="1240" as="sourcePoint" />
            <mxPoint x="340" y="1240" as="targetPoint" />
          </mxGeometry>
        </mxCell>
        <mxCell id="nm2eo2nv4SzdI6bSQcPC-81" value="" style="endArrow=none;html=1;rounded=0;fillColor=light-dark(#FFFFFF,#FF0000);strokeColor=light-dark(#000000,#FF0000);movable=1;resizable=1;rotatable=1;deletable=1;editable=1;locked=0;connectable=1;" edge="1" parent="1">
          <mxGeometry width="50" height="50" relative="1" as="geometry">
            <mxPoint x="390" y="1250" as="sourcePoint" />
            <mxPoint x="350" y="1250" as="targetPoint" />
          </mxGeometry>
        </mxCell>
        <mxCell id="nm2eo2nv4SzdI6bSQcPC-82" value="" style="endArrow=none;html=1;rounded=0;fillColor=light-dark(#FFFFFF,#FF0000);strokeColor=light-dark(#000000,#FF0000);movable=1;resizable=1;rotatable=1;deletable=1;editable=1;locked=0;connectable=1;" edge="1" parent="1">
          <mxGeometry width="50" height="50" relative="1" as="geometry">
            <mxPoint x="400" y="1260" as="sourcePoint" />
            <mxPoint x="360" y="1260" as="targetPoint" />
          </mxGeometry>
        </mxCell>
        <mxCell id="nm2eo2nv4SzdI6bSQcPC-83" value="" style="endArrow=none;html=1;rounded=0;fillColor=light-dark(#FFFFFF,#FF0000);strokeColor=light-dark(#000000,#FF0000);movable=1;resizable=1;rotatable=1;deletable=1;editable=1;locked=0;connectable=1;" edge="1" parent="1">
          <mxGeometry width="50" height="50" relative="1" as="geometry">
            <mxPoint x="370" y="1230" as="sourcePoint" />
            <mxPoint x="330" y="1230" as="targetPoint" />
          </mxGeometry>
        </mxCell>
        <mxCell id="nm2eo2nv4SzdI6bSQcPC-84" value="" style="endArrow=none;html=1;rounded=0;fillColor=light-dark(#FFFFFF,#FF0000);strokeColor=light-dark(#000000,#FF0000);movable=1;resizable=1;rotatable=1;deletable=1;editable=1;locked=0;connectable=1;" edge="1" parent="1">
          <mxGeometry width="50" height="50" relative="1" as="geometry">
            <mxPoint x="380" y="1240" as="sourcePoint" />
            <mxPoint x="340" y="1240" as="targetPoint" />
          </mxGeometry>
        </mxCell>
        <mxCell id="nm2eo2nv4SzdI6bSQcPC-85" value="" style="endArrow=none;html=1;rounded=0;fillColor=light-dark(#FFFFFF,#FF0000);strokeColor=light-dark(#000000,#FF0000);movable=1;resizable=1;rotatable=1;deletable=1;editable=1;locked=0;connectable=1;" edge="1" parent="1">
          <mxGeometry width="50" height="50" relative="1" as="geometry">
            <mxPoint x="390" y="1250" as="sourcePoint" />
            <mxPoint x="350" y="1250" as="targetPoint" />
          </mxGeometry>
        </mxCell>
        <mxCell id="nm2eo2nv4SzdI6bSQcPC-86" value="" style="endArrow=none;html=1;rounded=0;fillColor=light-dark(#FFFFFF,#FF0000);strokeColor=light-dark(#000000,#FF0000);movable=1;resizable=1;rotatable=1;deletable=1;editable=1;locked=0;connectable=1;" edge="1" parent="1">
          <mxGeometry width="50" height="50" relative="1" as="geometry">
            <mxPoint x="400" y="1260" as="sourcePoint" />
            <mxPoint x="360" y="1260" as="targetPoint" />
          </mxGeometry>
        </mxCell>
        <mxCell id="nm2eo2nv4SzdI6bSQcPC-87" value="" style="endArrow=none;html=1;rounded=0;fillColor=light-dark(#FFFFFF,#FF0000);strokeColor=light-dark(#000000,#FF0000);movable=1;resizable=1;rotatable=1;deletable=1;editable=1;locked=0;connectable=1;" edge="1" parent="1">
          <mxGeometry width="50" height="50" relative="1" as="geometry">
            <mxPoint x="410" y="1270" as="sourcePoint" />
            <mxPoint x="370" y="1270" as="targetPoint" />
          </mxGeometry>
        </mxCell>
        <mxCell id="nm2eo2nv4SzdI6bSQcPC-88" value="" style="endArrow=none;html=1;rounded=0;fillColor=light-dark(#FFFFFF,#FF0000);strokeColor=light-dark(#000000,#FF0000);movable=1;resizable=1;rotatable=1;deletable=1;editable=1;locked=0;connectable=1;" edge="1" parent="1">
          <mxGeometry width="50" height="50" relative="1" as="geometry">
            <mxPoint x="380" y="1240" as="sourcePoint" />
            <mxPoint x="340" y="1240" as="targetPoint" />
          </mxGeometry>
        </mxCell>
        <mxCell id="nm2eo2nv4SzdI6bSQcPC-89" value="" style="endArrow=none;html=1;rounded=0;fillColor=light-dark(#FFFFFF,#FF0000);strokeColor=light-dark(#000000,#FF0000);movable=1;resizable=1;rotatable=1;deletable=1;editable=1;locked=0;connectable=1;" edge="1" parent="1">
          <mxGeometry width="50" height="50" relative="1" as="geometry">
            <mxPoint x="390" y="1250" as="sourcePoint" />
            <mxPoint x="350" y="1250" as="targetPoint" />
          </mxGeometry>
        </mxCell>
        <mxCell id="nm2eo2nv4SzdI6bSQcPC-90" value="" style="endArrow=none;html=1;rounded=0;fillColor=light-dark(#FFFFFF,#FF0000);strokeColor=light-dark(#000000,#FF0000);movable=1;resizable=1;rotatable=1;deletable=1;editable=1;locked=0;connectable=1;" edge="1" parent="1">
          <mxGeometry width="50" height="50" relative="1" as="geometry">
            <mxPoint x="400" y="1260" as="sourcePoint" />
            <mxPoint x="360" y="1260" as="targetPoint" />
          </mxGeometry>
        </mxCell>
        <mxCell id="nm2eo2nv4SzdI6bSQcPC-91" value="" style="endArrow=none;html=1;rounded=0;fillColor=light-dark(#FFFFFF,#FF0000);strokeColor=light-dark(#000000,#FF0000);movable=1;resizable=1;rotatable=1;deletable=1;editable=1;locked=0;connectable=1;" edge="1" parent="1">
          <mxGeometry width="50" height="50" relative="1" as="geometry">
            <mxPoint x="410" y="1270" as="sourcePoint" />
            <mxPoint x="370" y="1270" as="targetPoint" />
          </mxGeometry>
        </mxCell>
        <mxCell id="nm2eo2nv4SzdI6bSQcPC-92" value="" style="endArrow=none;html=1;rounded=0;fillColor=light-dark(#FFFFFF,#FF0000);strokeColor=light-dark(#000000,#FF0000);movable=1;resizable=1;rotatable=1;deletable=1;editable=1;locked=0;connectable=1;" edge="1" parent="1">
          <mxGeometry width="50" height="50" relative="1" as="geometry">
            <mxPoint x="420" y="1280" as="sourcePoint" />
            <mxPoint x="380" y="1280" as="targetPoint" />
          </mxGeometry>
        </mxCell>
        <mxCell id="nm2eo2nv4SzdI6bSQcPC-93" value="" style="endArrow=none;html=1;rounded=0;fillColor=light-dark(#FFFFFF,#FF0000);strokeColor=light-dark(#000000,#FF0000);movable=1;resizable=1;rotatable=1;deletable=1;editable=1;locked=0;connectable=1;" edge="1" parent="1">
          <mxGeometry width="50" height="50" relative="1" as="geometry">
            <mxPoint x="320" y="1020" as="sourcePoint" />
            <mxPoint x="320" y="980" as="targetPoint" />
          </mxGeometry>
        </mxCell>
        <mxCell id="nm2eo2nv4SzdI6bSQcPC-94" value="" style="endArrow=none;html=1;rounded=0;fillColor=light-dark(#FFFFFF,#FF0000);strokeColor=light-dark(#000000,#FF0000);movable=1;resizable=1;rotatable=1;deletable=1;editable=1;locked=0;connectable=1;" edge="1" parent="1">
          <mxGeometry width="50" height="50" relative="1" as="geometry">
            <mxPoint x="480" y="1240" as="sourcePoint" />
            <mxPoint x="480" y="1200" as="targetPoint" />
          </mxGeometry>
        </mxCell>
        <mxCell id="nm2eo2nv4SzdI6bSQcPC-95" value="" style="endArrow=none;html=1;rounded=0;fillColor=light-dark(#FFFFFF,#FF0000);strokeColor=light-dark(#000000,#FF0000);movable=1;resizable=1;rotatable=1;deletable=1;editable=1;locked=0;connectable=1;" edge="1" parent="1">
          <mxGeometry width="50" height="50" relative="1" as="geometry">
            <mxPoint x="450" y="1250" as="sourcePoint" />
            <mxPoint x="450" y="1210" as="targetPoint" />
          </mxGeometry>
        </mxCell>
        <mxCell id="nm2eo2nv4SzdI6bSQcPC-96" value="" style="endArrow=none;html=1;rounded=0;fillColor=light-dark(#FFFFFF,#FF0000);strokeColor=light-dark(#000000,#FF0000);movable=1;resizable=1;rotatable=1;deletable=1;editable=1;locked=0;connectable=1;" edge="1" parent="1">
          <mxGeometry width="50" height="50" relative="1" as="geometry">
            <mxPoint x="490" y="1250" as="sourcePoint" />
            <mxPoint x="490" y="1210" as="targetPoint" />
          </mxGeometry>
        </mxCell>
        <mxCell id="nm2eo2nv4SzdI6bSQcPC-97" value="" style="endArrow=none;html=1;rounded=0;fillColor=light-dark(#FFFFFF,#FF0000);strokeColor=light-dark(#000000,#FF0000);movable=1;resizable=1;rotatable=1;deletable=1;editable=1;locked=0;connectable=1;" edge="1" parent="1">
          <mxGeometry width="50" height="50" relative="1" as="geometry">
            <mxPoint x="460" y="1260" as="sourcePoint" />
            <mxPoint x="460" y="1220" as="targetPoint" />
          </mxGeometry>
        </mxCell>
        <mxCell id="nm2eo2nv4SzdI6bSQcPC-98" value="" style="endArrow=none;html=1;rounded=0;fillColor=light-dark(#FFFFFF,#FF0000);strokeColor=light-dark(#000000,#FF0000);movable=1;resizable=1;rotatable=1;deletable=1;editable=1;locked=0;connectable=1;" edge="1" parent="1">
          <mxGeometry width="50" height="50" relative="1" as="geometry">
            <mxPoint x="500" y="1260" as="sourcePoint" />
            <mxPoint x="500" y="1220" as="targetPoint" />
          </mxGeometry>
        </mxCell>
        <mxCell id="nm2eo2nv4SzdI6bSQcPC-99" value="" style="endArrow=none;html=1;rounded=0;fillColor=light-dark(#FFFFFF,#FF0000);strokeColor=light-dark(#000000,#FF0000);movable=1;resizable=1;rotatable=1;deletable=1;editable=1;locked=0;connectable=1;" edge="1" parent="1">
          <mxGeometry width="50" height="50" relative="1" as="geometry">
            <mxPoint x="470" y="1270" as="sourcePoint" />
            <mxPoint x="470" y="1230" as="targetPoint" />
          </mxGeometry>
        </mxCell>
        <mxCell id="nm2eo2nv4SzdI6bSQcPC-100" value="" style="endArrow=none;html=1;rounded=0;fillColor=light-dark(#FFFFFF,#FF0000);strokeColor=light-dark(#000000,#FF0000);movable=1;resizable=1;rotatable=1;deletable=1;editable=1;locked=0;connectable=1;" edge="1" parent="1">
          <mxGeometry width="50" height="50" relative="1" as="geometry">
            <mxPoint x="510" y="1270" as="sourcePoint" />
            <mxPoint x="510" y="1230" as="targetPoint" />
          </mxGeometry>
        </mxCell>
        <mxCell id="nm2eo2nv4SzdI6bSQcPC-101" value="" style="endArrow=none;html=1;rounded=0;fillColor=light-dark(#FFFFFF,#FF0000);strokeColor=light-dark(#000000,#FF0000);movable=1;resizable=1;rotatable=1;deletable=1;editable=1;locked=0;connectable=1;" edge="1" parent="1">
          <mxGeometry width="50" height="50" relative="1" as="geometry">
            <mxPoint x="480" y="1280" as="sourcePoint" />
            <mxPoint x="480" y="1240" as="targetPoint" />
          </mxGeometry>
        </mxCell>
        <mxCell id="nm2eo2nv4SzdI6bSQcPC-102" value="" style="endArrow=none;html=1;rounded=0;fillColor=light-dark(#FFFFFF,#FF0000);strokeColor=light-dark(#000000,#FF0000);movable=1;resizable=1;rotatable=1;deletable=1;editable=1;locked=0;connectable=1;" edge="1" parent="1">
          <mxGeometry width="50" height="50" relative="1" as="geometry">
            <mxPoint x="520" y="1280" as="sourcePoint" />
            <mxPoint x="520" y="1240" as="targetPoint" />
          </mxGeometry>
        </mxCell>
        <mxCell id="nm2eo2nv4SzdI6bSQcPC-103" value="" style="endArrow=none;html=1;rounded=0;fillColor=light-dark(#FFFFFF,#FF0000);strokeColor=light-dark(#000000,#FF0000);movable=1;resizable=1;rotatable=1;deletable=1;editable=1;locked=0;connectable=1;" edge="1" parent="1">
          <mxGeometry width="50" height="50" relative="1" as="geometry">
            <mxPoint x="490" y="1290" as="sourcePoint" />
            <mxPoint x="490" y="1250" as="targetPoint" />
          </mxGeometry>
        </mxCell>
        <mxCell id="nm2eo2nv4SzdI6bSQcPC-104" value="" style="endArrow=none;html=1;rounded=0;fillColor=light-dark(#FFFFFF,#FF0000);strokeColor=light-dark(#000000,#FF0000);movable=1;resizable=1;rotatable=1;deletable=1;editable=1;locked=0;connectable=1;" edge="1" parent="1">
          <mxGeometry width="50" height="50" relative="1" as="geometry">
            <mxPoint x="530" y="1290" as="sourcePoint" />
            <mxPoint x="530" y="1250" as="targetPoint" />
          </mxGeometry>
        </mxCell>
        <mxCell id="nm2eo2nv4SzdI6bSQcPC-105" value="" style="endArrow=none;html=1;rounded=0;fillColor=light-dark(#FFFFFF,#FF0000);strokeColor=light-dark(#000000,#FF0000);movable=1;resizable=1;rotatable=1;deletable=1;editable=1;locked=0;connectable=1;" edge="1" parent="1">
          <mxGeometry width="50" height="50" relative="1" as="geometry">
            <mxPoint x="500" y="1300" as="sourcePoint" />
            <mxPoint x="500" y="1260" as="targetPoint" />
          </mxGeometry>
        </mxCell>
        <mxCell id="nm2eo2nv4SzdI6bSQcPC-106" value="" style="endArrow=none;html=1;rounded=0;fillColor=light-dark(#FFFFFF,#FF0000);strokeColor=light-dark(#000000,#FF0000);movable=1;resizable=1;rotatable=1;deletable=1;editable=1;locked=0;connectable=1;" edge="1" parent="1">
          <mxGeometry width="50" height="50" relative="1" as="geometry">
            <mxPoint x="540" y="1300" as="sourcePoint" />
            <mxPoint x="540" y="1260" as="targetPoint" />
          </mxGeometry>
        </mxCell>
        <mxCell id="nm2eo2nv4SzdI6bSQcPC-107" value="" style="endArrow=none;html=1;rounded=0;fillColor=light-dark(#FFFFFF,#FF0000);strokeColor=light-dark(#000000,#FF0000);movable=1;resizable=1;rotatable=1;deletable=1;editable=1;locked=0;connectable=1;" edge="1" parent="1">
          <mxGeometry width="50" height="50" relative="1" as="geometry">
            <mxPoint x="510" y="1310" as="sourcePoint" />
            <mxPoint x="510" y="1270" as="targetPoint" />
          </mxGeometry>
        </mxCell>
        <mxCell id="nm2eo2nv4SzdI6bSQcPC-108" value="" style="endArrow=none;html=1;rounded=0;fillColor=light-dark(#FFFFFF,#FF0000);strokeColor=light-dark(#000000,#FF0000);movable=1;resizable=1;rotatable=1;deletable=1;editable=1;locked=0;connectable=1;" edge="1" parent="1">
          <mxGeometry width="50" height="50" relative="1" as="geometry">
            <mxPoint x="550" y="1310" as="sourcePoint" />
            <mxPoint x="550" y="1270" as="targetPoint" />
          </mxGeometry>
        </mxCell>
        <mxCell id="nm2eo2nv4SzdI6bSQcPC-109" value="" style="endArrow=none;html=1;rounded=0;fillColor=light-dark(#FFFFFF,#FF0000);strokeColor=light-dark(#000000,#FF0000);movable=1;resizable=1;rotatable=1;deletable=1;editable=1;locked=0;connectable=1;" edge="1" parent="1">
          <mxGeometry width="50" height="50" relative="1" as="geometry">
            <mxPoint x="520" y="1320" as="sourcePoint" />
            <mxPoint x="520" y="1280" as="targetPoint" />
          </mxGeometry>
        </mxCell>
        <mxCell id="nm2eo2nv4SzdI6bSQcPC-110" value="" style="endArrow=none;html=1;rounded=0;fillColor=light-dark(#FFFFFF,#FF0000);strokeColor=light-dark(#000000,#FF0000);movable=1;resizable=1;rotatable=1;deletable=1;editable=1;locked=0;connectable=1;" edge="1" parent="1">
          <mxGeometry width="50" height="50" relative="1" as="geometry">
            <mxPoint x="560" y="1320" as="sourcePoint" />
            <mxPoint x="560" y="1280" as="targetPoint" />
          </mxGeometry>
        </mxCell>
        <mxCell id="nm2eo2nv4SzdI6bSQcPC-111" value="" style="endArrow=none;html=1;rounded=0;fillColor=light-dark(#FFFFFF,#FF0000);strokeColor=light-dark(#000000,#FF0000);" edge="1" parent="1">
          <mxGeometry width="50" height="50" relative="1" as="geometry">
            <mxPoint x="600" y="980" as="sourcePoint" />
            <mxPoint x="520" y="980" as="targetPoint" />
          </mxGeometry>
        </mxCell>
        <mxCell id="nm2eo2nv4SzdI6bSQcPC-112" value="" style="endArrow=none;html=1;rounded=0;fillColor=light-dark(#FFFFFF,#FF0000);strokeColor=light-dark(#000000,#FF0000);" edge="1" parent="1">
          <mxGeometry width="50" height="50" relative="1" as="geometry">
            <mxPoint x="660" y="1240" as="sourcePoint" />
            <mxPoint x="580" y="1240" as="targetPoint" />
          </mxGeometry>
        </mxCell>
        <mxCell id="nm2eo2nv4SzdI6bSQcPC-113" value="" style="endArrow=none;html=1;rounded=0;fillColor=light-dark(#FFFFFF,#FF0000);strokeColor=light-dark(#000000,#FF0000);" edge="1" parent="1">
          <mxGeometry width="50" height="50" relative="1" as="geometry">
            <mxPoint x="670" y="1250" as="sourcePoint" />
            <mxPoint x="590" y="1250" as="targetPoint" />
          </mxGeometry>
        </mxCell>
        <mxCell id="nm2eo2nv4SzdI6bSQcPC-114" value="" style="endArrow=none;html=1;rounded=0;fillColor=light-dark(#FFFFFF,#FF0000);strokeColor=light-dark(#000000,#FF0000);" edge="1" parent="1">
          <mxGeometry width="50" height="50" relative="1" as="geometry">
            <mxPoint x="660" y="1240" as="sourcePoint" />
            <mxPoint x="580" y="1240" as="targetPoint" />
          </mxGeometry>
        </mxCell>
        <mxCell id="nm2eo2nv4SzdI6bSQcPC-115" value="" style="endArrow=none;html=1;rounded=0;fillColor=light-dark(#FFFFFF,#FF0000);strokeColor=light-dark(#000000,#FF0000);" edge="1" parent="1">
          <mxGeometry width="50" height="50" relative="1" as="geometry">
            <mxPoint x="670" y="1250" as="sourcePoint" />
            <mxPoint x="590" y="1250" as="targetPoint" />
          </mxGeometry>
        </mxCell>
        <mxCell id="nm2eo2nv4SzdI6bSQcPC-116" value="" style="endArrow=none;html=1;rounded=0;fillColor=light-dark(#FFFFFF,#FF0000);strokeColor=light-dark(#000000,#FF0000);" edge="1" parent="1">
          <mxGeometry width="50" height="50" relative="1" as="geometry">
            <mxPoint x="680" y="1260" as="sourcePoint" />
            <mxPoint x="600" y="1260" as="targetPoint" />
          </mxGeometry>
        </mxCell>
        <mxCell id="nm2eo2nv4SzdI6bSQcPC-117" value="" style="endArrow=none;html=1;rounded=0;fillColor=light-dark(#FFFFFF,#FF0000);strokeColor=light-dark(#000000,#FF0000);" edge="1" parent="1">
          <mxGeometry width="50" height="50" relative="1" as="geometry">
            <mxPoint x="670" y="1250" as="sourcePoint" />
            <mxPoint x="590" y="1250" as="targetPoint" />
          </mxGeometry>
        </mxCell>
        <mxCell id="nm2eo2nv4SzdI6bSQcPC-118" value="" style="endArrow=none;html=1;rounded=0;fillColor=light-dark(#FFFFFF,#FF0000);strokeColor=light-dark(#000000,#FF0000);" edge="1" parent="1">
          <mxGeometry width="50" height="50" relative="1" as="geometry">
            <mxPoint x="680" y="1260" as="sourcePoint" />
            <mxPoint x="600" y="1260" as="targetPoint" />
          </mxGeometry>
        </mxCell>
        <mxCell id="nm2eo2nv4SzdI6bSQcPC-119" value="" style="endArrow=none;html=1;rounded=0;fillColor=light-dark(#FFFFFF,#FF0000);strokeColor=light-dark(#000000,#FF0000);" edge="1" parent="1">
          <mxGeometry width="50" height="50" relative="1" as="geometry">
            <mxPoint x="690" y="1270" as="sourcePoint" />
            <mxPoint x="610" y="1270" as="targetPoint" />
          </mxGeometry>
        </mxCell>
        <mxCell id="nm2eo2nv4SzdI6bSQcPC-120" value="" style="endArrow=none;html=1;rounded=0;fillColor=light-dark(#FFFFFF,#FF0000);strokeColor=light-dark(#000000,#FF0000);" edge="1" parent="1">
          <mxGeometry width="50" height="50" relative="1" as="geometry">
            <mxPoint x="680" y="1260" as="sourcePoint" />
            <mxPoint x="600" y="1260" as="targetPoint" />
          </mxGeometry>
        </mxCell>
        <mxCell id="nm2eo2nv4SzdI6bSQcPC-121" value="" style="endArrow=none;html=1;rounded=0;fillColor=light-dark(#FFFFFF,#FF0000);strokeColor=light-dark(#000000,#FF0000);" edge="1" parent="1">
          <mxGeometry width="50" height="50" relative="1" as="geometry">
            <mxPoint x="690" y="1270" as="sourcePoint" />
            <mxPoint x="610" y="1270" as="targetPoint" />
          </mxGeometry>
        </mxCell>
        <mxCell id="nm2eo2nv4SzdI6bSQcPC-122" value="" style="endArrow=none;html=1;rounded=0;fillColor=light-dark(#FFFFFF,#FF0000);strokeColor=light-dark(#000000,#FF0000);" edge="1" parent="1">
          <mxGeometry width="50" height="50" relative="1" as="geometry">
            <mxPoint x="700" y="1280" as="sourcePoint" />
            <mxPoint x="620" y="1280" as="targetPoint" />
          </mxGeometry>
        </mxCell>
        <mxCell id="nm2eo2nv4SzdI6bSQcPC-123" value="" style="endArrow=none;html=1;rounded=0;fillColor=light-dark(#FFFFFF,#FF0000);strokeColor=light-dark(#000000,#FF0000);" edge="1" parent="1">
          <mxGeometry width="50" height="50" relative="1" as="geometry">
            <mxPoint x="690" y="1270" as="sourcePoint" />
            <mxPoint x="610" y="1270" as="targetPoint" />
          </mxGeometry>
        </mxCell>
        <mxCell id="nm2eo2nv4SzdI6bSQcPC-124" value="" style="endArrow=none;html=1;rounded=0;fillColor=light-dark(#FFFFFF,#FF0000);strokeColor=light-dark(#000000,#FF0000);" edge="1" parent="1">
          <mxGeometry width="50" height="50" relative="1" as="geometry">
            <mxPoint x="700" y="1280" as="sourcePoint" />
            <mxPoint x="620" y="1280" as="targetPoint" />
          </mxGeometry>
        </mxCell>
        <mxCell id="nm2eo2nv4SzdI6bSQcPC-125" value="" style="endArrow=none;html=1;rounded=0;fillColor=light-dark(#FFFFFF,#FF0000);strokeColor=light-dark(#000000,#FF0000);" edge="1" parent="1">
          <mxGeometry width="50" height="50" relative="1" as="geometry">
            <mxPoint x="710" y="1290" as="sourcePoint" />
            <mxPoint x="630" y="1290" as="targetPoint" />
          </mxGeometry>
        </mxCell>
        <mxCell id="nm2eo2nv4SzdI6bSQcPC-126" value="" style="endArrow=none;html=1;rounded=0;fillColor=light-dark(#FFFFFF,#FF0000);strokeColor=light-dark(#000000,#FF0000);" edge="1" parent="1">
          <mxGeometry width="50" height="50" relative="1" as="geometry">
            <mxPoint x="700" y="1280" as="sourcePoint" />
            <mxPoint x="620" y="1280" as="targetPoint" />
          </mxGeometry>
        </mxCell>
        <mxCell id="nm2eo2nv4SzdI6bSQcPC-127" value="" style="endArrow=none;html=1;rounded=0;fillColor=light-dark(#FFFFFF,#FF0000);strokeColor=light-dark(#000000,#FF0000);" edge="1" parent="1">
          <mxGeometry width="50" height="50" relative="1" as="geometry">
            <mxPoint x="710" y="1290" as="sourcePoint" />
            <mxPoint x="630" y="1290" as="targetPoint" />
          </mxGeometry>
        </mxCell>
        <mxCell id="nm2eo2nv4SzdI6bSQcPC-128" value="" style="endArrow=none;html=1;rounded=0;fillColor=light-dark(#FFFFFF,#FF0000);strokeColor=light-dark(#000000,#FF0000);" edge="1" parent="1">
          <mxGeometry width="50" height="50" relative="1" as="geometry">
            <mxPoint x="720" y="1300" as="sourcePoint" />
            <mxPoint x="640" y="1300" as="targetPoint" />
          </mxGeometry>
        </mxCell>
        <mxCell id="nm2eo2nv4SzdI6bSQcPC-129" value="" style="endArrow=none;html=1;rounded=0;fillColor=light-dark(#FFFFFF,#FF0000);strokeColor=light-dark(#000000,#FF0000);" edge="1" parent="1">
          <mxGeometry width="50" height="50" relative="1" as="geometry">
            <mxPoint x="710" y="1290" as="sourcePoint" />
            <mxPoint x="630" y="1290" as="targetPoint" />
          </mxGeometry>
        </mxCell>
        <mxCell id="nm2eo2nv4SzdI6bSQcPC-130" value="" style="endArrow=none;html=1;rounded=0;fillColor=light-dark(#FFFFFF,#FF0000);strokeColor=light-dark(#000000,#FF0000);" edge="1" parent="1">
          <mxGeometry width="50" height="50" relative="1" as="geometry">
            <mxPoint x="720" y="1300" as="sourcePoint" />
            <mxPoint x="640" y="1300" as="targetPoint" />
          </mxGeometry>
        </mxCell>
        <mxCell id="nm2eo2nv4SzdI6bSQcPC-131" value="" style="endArrow=none;html=1;rounded=0;fillColor=light-dark(#FFFFFF,#FF0000);strokeColor=light-dark(#000000,#FF0000);" edge="1" parent="1">
          <mxGeometry width="50" height="50" relative="1" as="geometry">
            <mxPoint x="730" y="1310" as="sourcePoint" />
            <mxPoint x="650" y="1310" as="targetPoint" />
          </mxGeometry>
        </mxCell>
        <mxCell id="nm2eo2nv4SzdI6bSQcPC-132" value="" style="endArrow=none;html=1;rounded=0;fillColor=light-dark(#FFFFFF,#FF0000);strokeColor=light-dark(#000000,#FF0000);" edge="1" parent="1">
          <mxGeometry width="50" height="50" relative="1" as="geometry">
            <mxPoint x="720" y="1300" as="sourcePoint" />
            <mxPoint x="640" y="1300" as="targetPoint" />
          </mxGeometry>
        </mxCell>
        <mxCell id="nm2eo2nv4SzdI6bSQcPC-133" value="" style="endArrow=none;html=1;rounded=0;fillColor=light-dark(#FFFFFF,#FF0000);strokeColor=light-dark(#000000,#FF0000);" edge="1" parent="1">
          <mxGeometry width="50" height="50" relative="1" as="geometry">
            <mxPoint x="730" y="1310" as="sourcePoint" />
            <mxPoint x="650" y="1310" as="targetPoint" />
          </mxGeometry>
        </mxCell>
        <mxCell id="nm2eo2nv4SzdI6bSQcPC-134" value="" style="endArrow=none;html=1;rounded=0;fillColor=light-dark(#FFFFFF,#FF0000);strokeColor=light-dark(#000000,#FF0000);" edge="1" parent="1">
          <mxGeometry width="50" height="50" relative="1" as="geometry">
            <mxPoint x="740" y="1320" as="sourcePoint" />
            <mxPoint x="660" y="1320" as="targetPoint" />
          </mxGeometry>
        </mxCell>
        <mxCell id="nm2eo2nv4SzdI6bSQcPC-135" value="" style="endArrow=classic;html=1;rounded=0;" edge="1" parent="1">
          <mxGeometry width="50" height="50" relative="1" as="geometry">
            <mxPoint x="1040" y="470" as="sourcePoint" />
            <mxPoint x="1040" y="320" as="targetPoint" />
          </mxGeometry>
        </mxCell>
        <mxCell id="nm2eo2nv4SzdI6bSQcPC-136" value="" style="endArrow=classic;html=1;rounded=0;" edge="1" parent="1">
          <mxGeometry width="50" height="50" relative="1" as="geometry">
            <mxPoint x="1041" y="420" as="sourcePoint" />
            <mxPoint x="1441" y="420" as="targetPoint" />
          </mxGeometry>
        </mxCell>
        <mxCell id="nm2eo2nv4SzdI6bSQcPC-137" value="" style="endArrow=classic;html=1;rounded=0;" edge="1" parent="1">
          <mxGeometry width="50" height="50" relative="1" as="geometry">
            <mxPoint x="1041" y="370" as="sourcePoint" />
            <mxPoint x="1441" y="370" as="targetPoint" />
          </mxGeometry>
        </mxCell>
        <mxCell id="nm2eo2nv4SzdI6bSQcPC-138" value="" style="endArrow=none;dashed=1;html=1;rounded=0;" edge="1" parent="1">
          <mxGeometry width="50" height="50" relative="1" as="geometry">
            <mxPoint x="1080" y="470" as="sourcePoint" />
            <mxPoint x="1080" y="320" as="targetPoint" />
          </mxGeometry>
        </mxCell>
        <mxCell id="nm2eo2nv4SzdI6bSQcPC-139" value="" style="endArrow=none;dashed=1;html=1;rounded=0;" edge="1" parent="1">
          <mxGeometry width="50" height="50" relative="1" as="geometry">
            <mxPoint x="1400" y="470" as="sourcePoint" />
            <mxPoint x="1400" y="320" as="targetPoint" />
          </mxGeometry>
        </mxCell>
        <mxCell id="nm2eo2nv4SzdI6bSQcPC-140" value="" style="endArrow=none;dashed=1;html=1;rounded=0;" edge="1" parent="1">
          <mxGeometry width="50" height="50" relative="1" as="geometry">
            <mxPoint x="1280" y="470" as="sourcePoint" />
            <mxPoint x="1280" y="320" as="targetPoint" />
          </mxGeometry>
        </mxCell>
        <mxCell id="nm2eo2nv4SzdI6bSQcPC-141" value="" style="endArrow=none;dashed=1;html=1;rounded=0;" edge="1" parent="1">
          <mxGeometry width="50" height="50" relative="1" as="geometry">
            <mxPoint x="1320" y="470" as="sourcePoint" />
            <mxPoint x="1320" y="320" as="targetPoint" />
          </mxGeometry>
        </mxCell>
        <mxCell id="nm2eo2nv4SzdI6bSQcPC-142" value="" style="endArrow=none;dashed=1;html=1;rounded=0;" edge="1" parent="1">
          <mxGeometry width="50" height="50" relative="1" as="geometry">
            <mxPoint x="1240" y="470" as="sourcePoint" />
            <mxPoint x="1240" y="320" as="targetPoint" />
          </mxGeometry>
        </mxCell>
        <mxCell id="nm2eo2nv4SzdI6bSQcPC-143" value="" style="endArrow=none;dashed=1;html=1;rounded=0;" edge="1" parent="1">
          <mxGeometry width="50" height="50" relative="1" as="geometry">
            <mxPoint x="1200" y="470" as="sourcePoint" />
            <mxPoint x="1200" y="320" as="targetPoint" />
          </mxGeometry>
        </mxCell>
        <mxCell id="nm2eo2nv4SzdI6bSQcPC-144" value="" style="endArrow=none;dashed=1;html=1;rounded=0;" edge="1" parent="1">
          <mxGeometry width="50" height="50" relative="1" as="geometry">
            <mxPoint x="1360" y="470" as="sourcePoint" />
            <mxPoint x="1360" y="320" as="targetPoint" />
          </mxGeometry>
        </mxCell>
        <mxCell id="nm2eo2nv4SzdI6bSQcPC-145" value="" style="endArrow=none;dashed=1;html=1;rounded=0;" edge="1" parent="1">
          <mxGeometry width="50" height="50" relative="1" as="geometry">
            <mxPoint x="1160" y="470" as="sourcePoint" />
            <mxPoint x="1160" y="320" as="targetPoint" />
          </mxGeometry>
        </mxCell>
        <mxCell id="nm2eo2nv4SzdI6bSQcPC-146" value="" style="endArrow=none;dashed=1;html=1;rounded=0;" edge="1" parent="1">
          <mxGeometry width="50" height="50" relative="1" as="geometry">
            <mxPoint x="1120" y="470" as="sourcePoint" />
            <mxPoint x="1120" y="320" as="targetPoint" />
          </mxGeometry>
        </mxCell>
        <mxCell id="nm2eo2nv4SzdI6bSQcPC-147" value="1" style="text;html=1;align=center;verticalAlign=middle;resizable=0;points=[];autosize=1;strokeColor=none;fillColor=none;" vertex="1" parent="1">
          <mxGeometry x="1370" y="280" width="30" height="30" as="geometry" />
        </mxCell>
        <mxCell id="nm2eo2nv4SzdI6bSQcPC-148" value="0" style="text;html=1;align=center;verticalAlign=middle;resizable=0;points=[];autosize=1;strokeColor=none;fillColor=none;" vertex="1" parent="1">
          <mxGeometry x="1290" y="280" width="30" height="30" as="geometry" />
        </mxCell>
        <mxCell id="nm2eo2nv4SzdI6bSQcPC-149" value="1" style="text;html=1;align=center;verticalAlign=middle;resizable=0;points=[];autosize=1;strokeColor=none;fillColor=none;" vertex="1" parent="1">
          <mxGeometry x="1250" y="280" width="30" height="30" as="geometry" />
        </mxCell>
        <mxCell id="nm2eo2nv4SzdI6bSQcPC-150" value="0" style="text;html=1;align=center;verticalAlign=middle;resizable=0;points=[];autosize=1;strokeColor=none;fillColor=none;" vertex="1" parent="1">
          <mxGeometry x="1210" y="280" width="30" height="30" as="geometry" />
        </mxCell>
        <mxCell id="nm2eo2nv4SzdI6bSQcPC-151" value="1" style="text;html=1;align=center;verticalAlign=middle;resizable=0;points=[];autosize=1;strokeColor=none;fillColor=none;" vertex="1" parent="1">
          <mxGeometry x="1050" y="280" width="30" height="30" as="geometry" />
        </mxCell>
        <mxCell id="nm2eo2nv4SzdI6bSQcPC-152" value="1" style="text;html=1;align=center;verticalAlign=middle;resizable=0;points=[];autosize=1;strokeColor=none;fillColor=none;" vertex="1" parent="1">
          <mxGeometry x="1170" y="280" width="30" height="30" as="geometry" />
        </mxCell>
        <mxCell id="nm2eo2nv4SzdI6bSQcPC-153" value="0" style="text;html=1;align=center;verticalAlign=middle;resizable=0;points=[];autosize=1;strokeColor=none;fillColor=none;" vertex="1" parent="1">
          <mxGeometry x="1130" y="280" width="30" height="30" as="geometry" />
        </mxCell>
        <mxCell id="nm2eo2nv4SzdI6bSQcPC-154" value="1" style="text;html=1;align=center;verticalAlign=middle;resizable=0;points=[];autosize=1;strokeColor=none;fillColor=none;" vertex="1" parent="1">
          <mxGeometry x="1090" y="280" width="30" height="30" as="geometry" />
        </mxCell>
        <mxCell id="nm2eo2nv4SzdI6bSQcPC-155" value="1" style="text;html=1;align=center;verticalAlign=middle;resizable=0;points=[];autosize=1;strokeColor=none;fillColor=none;" vertex="1" parent="1">
          <mxGeometry x="1330" y="280" width="30" height="30" as="geometry" />
        </mxCell>
        <mxCell id="nm2eo2nv4SzdI6bSQcPC-182" value="" style="endArrow=none;html=1;rounded=0;fillColor=light-dark(#FFFFFF,#FF0000);strokeColor=light-dark(#000000,#FF0000);movable=1;resizable=1;rotatable=1;deletable=1;editable=1;locked=0;connectable=1;" edge="1" parent="1">
          <mxGeometry width="50" height="50" relative="1" as="geometry">
            <mxPoint x="1100" y="380" as="sourcePoint" />
            <mxPoint x="1080" y="380" as="targetPoint" />
          </mxGeometry>
        </mxCell>
        <mxCell id="nm2eo2nv4SzdI6bSQcPC-183" value="" style="endArrow=none;html=1;rounded=0;fillColor=light-dark(#FFFFFF,#FF0000);strokeColor=light-dark(#000000,#FF0000);movable=1;resizable=1;rotatable=1;deletable=1;editable=1;locked=0;connectable=1;" edge="1" parent="1">
          <mxGeometry width="50" height="50" relative="1" as="geometry">
            <mxPoint x="1200" y="360" as="sourcePoint" />
            <mxPoint x="1180" y="360" as="targetPoint" />
          </mxGeometry>
        </mxCell>
        <mxCell id="nm2eo2nv4SzdI6bSQcPC-184" value="" style="endArrow=none;html=1;rounded=0;fillColor=light-dark(#FFFFFF,#FF0000);strokeColor=light-dark(#000000,#FF0000);movable=1;resizable=1;rotatable=1;deletable=1;editable=1;locked=0;connectable=1;" edge="1" parent="1">
          <mxGeometry width="50" height="50" relative="1" as="geometry">
            <mxPoint x="1100" y="380" as="sourcePoint" />
            <mxPoint x="1100" y="360" as="targetPoint" />
          </mxGeometry>
        </mxCell>
        <mxCell id="nm2eo2nv4SzdI6bSQcPC-185" value="" style="endArrow=none;html=1;rounded=0;fillColor=light-dark(#FFFFFF,#FF0000);strokeColor=light-dark(#000000,#FF0000);movable=1;resizable=1;rotatable=1;deletable=1;editable=1;locked=0;connectable=1;" edge="1" parent="1">
          <mxGeometry width="50" height="50" relative="1" as="geometry">
            <mxPoint x="1340" y="380" as="sourcePoint" />
            <mxPoint x="1340" y="360" as="targetPoint" />
          </mxGeometry>
        </mxCell>
        <mxCell id="nm2eo2nv4SzdI6bSQcPC-266" value="" style="endArrow=none;html=1;rounded=0;fillColor=light-dark(#FFFFFF,#FF0000);strokeColor=light-dark(#000000,#FF0000);movable=1;resizable=1;rotatable=1;deletable=1;editable=1;locked=0;connectable=1;" edge="1" parent="1">
          <mxGeometry width="50" height="50" relative="1" as="geometry">
            <mxPoint x="1080" y="360" as="sourcePoint" />
            <mxPoint x="1060" y="360" as="targetPoint" />
          </mxGeometry>
        </mxCell>
        <mxCell id="nm2eo2nv4SzdI6bSQcPC-267" value="" style="endArrow=none;html=1;rounded=0;fillColor=light-dark(#FFFFFF,#FF0000);strokeColor=light-dark(#000000,#FF0000);movable=1;resizable=1;rotatable=1;deletable=1;editable=1;locked=0;connectable=1;" edge="1" parent="1">
          <mxGeometry width="50" height="50" relative="1" as="geometry">
            <mxPoint x="1180" y="380" as="sourcePoint" />
            <mxPoint x="1160" y="380" as="targetPoint" />
          </mxGeometry>
        </mxCell>
        <mxCell id="nm2eo2nv4SzdI6bSQcPC-268" value="" style="endArrow=none;html=1;rounded=0;fillColor=light-dark(#FFFFFF,#FF0000);strokeColor=light-dark(#000000,#FF0000);movable=1;resizable=1;rotatable=1;deletable=1;editable=1;locked=0;connectable=1;" edge="1" parent="1">
          <mxGeometry width="50" height="50" relative="1" as="geometry">
            <mxPoint x="1080" y="380" as="sourcePoint" />
            <mxPoint x="1080" y="360" as="targetPoint" />
          </mxGeometry>
        </mxCell>
        <mxCell id="nm2eo2nv4SzdI6bSQcPC-269" value="" style="endArrow=none;html=1;rounded=0;fillColor=light-dark(#FFFFFF,#FF0000);strokeColor=light-dark(#000000,#FF0000);movable=1;resizable=1;rotatable=1;deletable=1;editable=1;locked=0;connectable=1;" edge="1" parent="1">
          <mxGeometry width="50" height="50" relative="1" as="geometry">
            <mxPoint x="1300" y="380" as="sourcePoint" />
            <mxPoint x="1300" y="360" as="targetPoint" />
          </mxGeometry>
        </mxCell>
        <mxCell id="nm2eo2nv4SzdI6bSQcPC-270" value="" style="endArrow=none;html=1;rounded=0;fillColor=light-dark(#FFFFFF,#FF0000);strokeColor=light-dark(#000000,#FF0000);movable=1;resizable=1;rotatable=1;deletable=1;editable=1;locked=0;connectable=1;" edge="1" parent="1">
          <mxGeometry width="50" height="50" relative="1" as="geometry">
            <mxPoint x="1140" y="360" as="sourcePoint" />
            <mxPoint x="1120" y="360" as="targetPoint" />
          </mxGeometry>
        </mxCell>
        <mxCell id="nm2eo2nv4SzdI6bSQcPC-271" value="" style="endArrow=none;html=1;rounded=0;fillColor=light-dark(#FFFFFF,#FF0000);strokeColor=light-dark(#000000,#FF0000);movable=1;resizable=1;rotatable=1;deletable=1;editable=1;locked=0;connectable=1;" edge="1" parent="1">
          <mxGeometry width="50" height="50" relative="1" as="geometry">
            <mxPoint x="1300" y="360" as="sourcePoint" />
            <mxPoint x="1280" y="360" as="targetPoint" />
          </mxGeometry>
        </mxCell>
        <mxCell id="nm2eo2nv4SzdI6bSQcPC-272" value="" style="endArrow=none;html=1;rounded=0;fillColor=light-dark(#FFFFFF,#FF0000);strokeColor=light-dark(#000000,#FF0000);movable=1;resizable=1;rotatable=1;deletable=1;editable=1;locked=0;connectable=1;" edge="1" parent="1">
          <mxGeometry width="50" height="50" relative="1" as="geometry">
            <mxPoint x="1260" y="380" as="sourcePoint" />
            <mxPoint x="1260" y="360" as="targetPoint" />
          </mxGeometry>
        </mxCell>
        <mxCell id="nm2eo2nv4SzdI6bSQcPC-273" value="" style="endArrow=none;html=1;rounded=0;fillColor=light-dark(#FFFFFF,#FF0000);strokeColor=light-dark(#000000,#FF0000);movable=1;resizable=1;rotatable=1;deletable=1;editable=1;locked=0;connectable=1;" edge="1" parent="1">
          <mxGeometry width="50" height="50" relative="1" as="geometry">
            <mxPoint x="1180" y="380" as="sourcePoint" />
            <mxPoint x="1180" y="360" as="targetPoint" />
          </mxGeometry>
        </mxCell>
        <mxCell id="nm2eo2nv4SzdI6bSQcPC-274" value="" style="endArrow=none;html=1;rounded=0;fillColor=light-dark(#FFFFFF,#FF0000);strokeColor=light-dark(#000000,#FF0000);movable=1;resizable=1;rotatable=1;deletable=1;editable=1;locked=0;connectable=1;" edge="1" parent="1">
          <mxGeometry width="50" height="50" relative="1" as="geometry">
            <mxPoint x="1240" y="380" as="sourcePoint" />
            <mxPoint x="1220" y="380" as="targetPoint" />
          </mxGeometry>
        </mxCell>
        <mxCell id="nm2eo2nv4SzdI6bSQcPC-275" value="" style="endArrow=none;html=1;rounded=0;fillColor=light-dark(#FFFFFF,#FF0000);strokeColor=light-dark(#000000,#00FF00);movable=1;resizable=1;rotatable=1;deletable=1;editable=1;locked=0;connectable=1;" edge="1" parent="1">
          <mxGeometry width="50" height="50" relative="1" as="geometry">
            <mxPoint x="1080" y="580" as="sourcePoint" />
            <mxPoint x="1060" y="580" as="targetPoint" />
          </mxGeometry>
        </mxCell>
        <mxCell id="nm2eo2nv4SzdI6bSQcPC-276" value="" style="endArrow=none;html=1;rounded=0;fillColor=light-dark(#FFFFFF,#FF0000);strokeColor=light-dark(#000000,#00FF00);movable=1;resizable=1;rotatable=1;deletable=1;editable=1;locked=0;connectable=1;" edge="1" parent="1">
          <mxGeometry width="50" height="50" relative="1" as="geometry">
            <mxPoint x="1120" y="430" as="sourcePoint" />
            <mxPoint x="1120" y="410" as="targetPoint" />
          </mxGeometry>
        </mxCell>
        <mxCell id="nm2eo2nv4SzdI6bSQcPC-277" value="" style="endArrow=none;html=1;rounded=0;fillColor=light-dark(#FFFFFF,#FF0000);strokeColor=light-dark(#000000,#00FF00);movable=1;resizable=1;rotatable=1;deletable=1;editable=1;locked=0;connectable=1;" edge="1" parent="1">
          <mxGeometry width="50" height="50" relative="1" as="geometry">
            <mxPoint x="1280" y="430" as="sourcePoint" />
            <mxPoint x="1280" y="410" as="targetPoint" />
          </mxGeometry>
        </mxCell>
        <mxCell id="nm2eo2nv4SzdI6bSQcPC-278" value="" style="endArrow=none;html=1;rounded=0;fillColor=light-dark(#FFFFFF,#FF0000);strokeColor=light-dark(#000000,#FF0000);movable=1;resizable=1;rotatable=1;deletable=1;editable=1;locked=0;connectable=1;" edge="1" parent="1">
          <mxGeometry width="50" height="50" relative="1" as="geometry">
            <mxPoint x="1320" y="379.72" as="sourcePoint" />
            <mxPoint x="1300" y="379.72" as="targetPoint" />
          </mxGeometry>
        </mxCell>
        <mxCell id="nm2eo2nv4SzdI6bSQcPC-279" value="" style="endArrow=none;html=1;rounded=0;fillColor=light-dark(#FFFFFF,#FF0000);strokeColor=light-dark(#000000,#00FF00);movable=1;resizable=1;rotatable=1;deletable=1;editable=1;locked=0;connectable=1;" edge="1" parent="1">
          <mxGeometry width="50" height="50" relative="1" as="geometry">
            <mxPoint x="1090" y="590" as="sourcePoint" />
            <mxPoint x="1070" y="590" as="targetPoint" />
          </mxGeometry>
        </mxCell>
        <mxCell id="nm2eo2nv4SzdI6bSQcPC-280" value="" style="endArrow=none;html=1;rounded=0;fillColor=light-dark(#FFFFFF,#FF0000);strokeColor=light-dark(#000000,#00FF00);movable=1;resizable=1;rotatable=1;deletable=1;editable=1;locked=0;connectable=1;" edge="1" parent="1">
          <mxGeometry width="50" height="50" relative="1" as="geometry">
            <mxPoint x="1130" y="590" as="sourcePoint" />
            <mxPoint x="1130" y="570" as="targetPoint" />
          </mxGeometry>
        </mxCell>
        <mxCell id="nm2eo2nv4SzdI6bSQcPC-281" value="" style="endArrow=none;html=1;rounded=0;fillColor=light-dark(#FFFFFF,#FF0000);strokeColor=light-dark(#000000,#00FF00);movable=1;resizable=1;rotatable=1;deletable=1;editable=1;locked=0;connectable=1;" edge="1" parent="1">
          <mxGeometry width="50" height="50" relative="1" as="geometry">
            <mxPoint x="1140" y="590" as="sourcePoint" />
            <mxPoint x="1140" y="570" as="targetPoint" />
          </mxGeometry>
        </mxCell>
        <mxCell id="nm2eo2nv4SzdI6bSQcPC-282" value="" style="endArrow=none;html=1;rounded=0;fillColor=light-dark(#FFFFFF,#FF0000);strokeColor=light-dark(#000000,#FF0000);movable=1;resizable=1;rotatable=1;deletable=1;editable=1;locked=0;connectable=1;" edge="1" parent="1">
          <mxGeometry width="50" height="50" relative="1" as="geometry">
            <mxPoint x="1360" y="360" as="sourcePoint" />
            <mxPoint x="1340" y="360" as="targetPoint" />
          </mxGeometry>
        </mxCell>
        <mxCell id="nm2eo2nv4SzdI6bSQcPC-283" value="" style="endArrow=none;html=1;rounded=0;fillColor=light-dark(#FFFFFF,#FF0000);strokeColor=light-dark(#000000,#00FF00);movable=1;resizable=1;rotatable=1;deletable=1;editable=1;locked=0;connectable=1;" edge="1" parent="1">
          <mxGeometry width="50" height="50" relative="1" as="geometry">
            <mxPoint x="1100" y="600" as="sourcePoint" />
            <mxPoint x="1080" y="600" as="targetPoint" />
          </mxGeometry>
        </mxCell>
        <mxCell id="nm2eo2nv4SzdI6bSQcPC-284" value="" style="endArrow=none;html=1;rounded=0;fillColor=light-dark(#FFFFFF,#FF0000);strokeColor=light-dark(#000000,#00FF00);movable=1;resizable=1;rotatable=1;deletable=1;editable=1;locked=0;connectable=1;" edge="1" parent="1">
          <mxGeometry width="50" height="50" relative="1" as="geometry">
            <mxPoint x="1140" y="600" as="sourcePoint" />
            <mxPoint x="1140" y="580" as="targetPoint" />
          </mxGeometry>
        </mxCell>
        <mxCell id="nm2eo2nv4SzdI6bSQcPC-285" value="" style="endArrow=none;html=1;rounded=0;fillColor=light-dark(#FFFFFF,#FF0000);strokeColor=light-dark(#000000,#00FF00);movable=1;resizable=1;rotatable=1;deletable=1;editable=1;locked=0;connectable=1;" edge="1" parent="1">
          <mxGeometry width="50" height="50" relative="1" as="geometry">
            <mxPoint x="1150" y="600" as="sourcePoint" />
            <mxPoint x="1150" y="580" as="targetPoint" />
          </mxGeometry>
        </mxCell>
        <mxCell id="nm2eo2nv4SzdI6bSQcPC-286" value="" style="endArrow=none;html=1;rounded=0;fillColor=light-dark(#FFFFFF,#FF0000);strokeColor=light-dark(#000000,#00FF00);movable=1;resizable=1;rotatable=1;deletable=1;editable=1;locked=0;connectable=1;" edge="1" parent="1">
          <mxGeometry width="50" height="50" relative="1" as="geometry">
            <mxPoint x="1110" y="600" as="sourcePoint" />
            <mxPoint x="1090" y="600" as="targetPoint" />
          </mxGeometry>
        </mxCell>
        <mxCell id="nm2eo2nv4SzdI6bSQcPC-287" value="" style="endArrow=none;html=1;rounded=0;fillColor=light-dark(#FFFFFF,#FF0000);strokeColor=light-dark(#000000,#00FF00);movable=1;resizable=1;rotatable=1;deletable=1;editable=1;locked=0;connectable=1;" edge="1" parent="1">
          <mxGeometry width="50" height="50" relative="1" as="geometry">
            <mxPoint x="1110" y="610" as="sourcePoint" />
            <mxPoint x="1090" y="610" as="targetPoint" />
          </mxGeometry>
        </mxCell>
        <mxCell id="nm2eo2nv4SzdI6bSQcPC-288" value="" style="endArrow=none;html=1;rounded=0;fillColor=light-dark(#FFFFFF,#FF0000);strokeColor=light-dark(#000000,#00FF00);movable=1;resizable=1;rotatable=1;deletable=1;editable=1;locked=0;connectable=1;" edge="1" parent="1">
          <mxGeometry width="50" height="50" relative="1" as="geometry">
            <mxPoint x="1150" y="610" as="sourcePoint" />
            <mxPoint x="1150" y="590" as="targetPoint" />
          </mxGeometry>
        </mxCell>
        <mxCell id="nm2eo2nv4SzdI6bSQcPC-289" value="" style="endArrow=none;html=1;rounded=0;fillColor=light-dark(#FFFFFF,#FF0000);strokeColor=light-dark(#000000,#00FF00);movable=1;resizable=1;rotatable=1;deletable=1;editable=1;locked=0;connectable=1;" edge="1" parent="1">
          <mxGeometry width="50" height="50" relative="1" as="geometry">
            <mxPoint x="1160" y="610" as="sourcePoint" />
            <mxPoint x="1160" y="590" as="targetPoint" />
          </mxGeometry>
        </mxCell>
        <mxCell id="nm2eo2nv4SzdI6bSQcPC-290" value="" style="endArrow=none;html=1;rounded=0;fillColor=light-dark(#FFFFFF,#FF0000);strokeColor=light-dark(#000000,#00FF00);movable=1;resizable=1;rotatable=1;deletable=1;editable=1;locked=0;connectable=1;" edge="1" parent="1">
          <mxGeometry width="50" height="50" relative="1" as="geometry">
            <mxPoint x="1120" y="610" as="sourcePoint" />
            <mxPoint x="1100" y="610" as="targetPoint" />
          </mxGeometry>
        </mxCell>
        <mxCell id="nm2eo2nv4SzdI6bSQcPC-291" value="" style="endArrow=none;html=1;rounded=0;fillColor=light-dark(#FFFFFF,#FF0000);strokeColor=light-dark(#000000,#00FF00);movable=1;resizable=1;rotatable=1;deletable=1;editable=1;locked=0;connectable=1;" edge="1" parent="1">
          <mxGeometry width="50" height="50" relative="1" as="geometry">
            <mxPoint x="1120" y="620" as="sourcePoint" />
            <mxPoint x="1100" y="620" as="targetPoint" />
          </mxGeometry>
        </mxCell>
        <mxCell id="nm2eo2nv4SzdI6bSQcPC-292" value="" style="endArrow=none;html=1;rounded=0;fillColor=light-dark(#FFFFFF,#FF0000);strokeColor=light-dark(#000000,#00FF00);movable=1;resizable=1;rotatable=1;deletable=1;editable=1;locked=0;connectable=1;" edge="1" parent="1">
          <mxGeometry width="50" height="50" relative="1" as="geometry">
            <mxPoint x="1160" y="620" as="sourcePoint" />
            <mxPoint x="1160" y="600" as="targetPoint" />
          </mxGeometry>
        </mxCell>
        <mxCell id="nm2eo2nv4SzdI6bSQcPC-293" value="" style="endArrow=none;html=1;rounded=0;fillColor=light-dark(#FFFFFF,#FF0000);strokeColor=light-dark(#000000,#00FF00);movable=1;resizable=1;rotatable=1;deletable=1;editable=1;locked=0;connectable=1;" edge="1" parent="1">
          <mxGeometry width="50" height="50" relative="1" as="geometry">
            <mxPoint x="1170" y="620" as="sourcePoint" />
            <mxPoint x="1170" y="600" as="targetPoint" />
          </mxGeometry>
        </mxCell>
        <mxCell id="nm2eo2nv4SzdI6bSQcPC-294" value="" style="endArrow=none;html=1;rounded=0;fillColor=light-dark(#FFFFFF,#FF0000);strokeColor=light-dark(#000000,#FF0000);movable=1;resizable=1;rotatable=1;deletable=1;editable=1;locked=0;connectable=1;" edge="1" parent="1">
          <mxGeometry width="50" height="50" relative="1" as="geometry">
            <mxPoint x="1060" y="380" as="sourcePoint" />
            <mxPoint x="1040" y="380" as="targetPoint" />
          </mxGeometry>
        </mxCell>
        <mxCell id="nm2eo2nv4SzdI6bSQcPC-295" value="" style="endArrow=none;html=1;rounded=0;fillColor=light-dark(#FFFFFF,#FF0000);strokeColor=light-dark(#000000,#FF0000);movable=1;resizable=1;rotatable=1;deletable=1;editable=1;locked=0;connectable=1;" edge="1" parent="1">
          <mxGeometry width="50" height="50" relative="1" as="geometry">
            <mxPoint x="1160" y="380" as="sourcePoint" />
            <mxPoint x="1140" y="380" as="targetPoint" />
          </mxGeometry>
        </mxCell>
        <mxCell id="nm2eo2nv4SzdI6bSQcPC-296" value="" style="endArrow=none;html=1;rounded=0;fillColor=light-dark(#FFFFFF,#FF0000);strokeColor=light-dark(#000000,#FF0000);movable=1;resizable=1;rotatable=1;deletable=1;editable=1;locked=0;connectable=1;" edge="1" parent="1">
          <mxGeometry width="50" height="50" relative="1" as="geometry">
            <mxPoint x="1060" y="380" as="sourcePoint" />
            <mxPoint x="1060" y="360" as="targetPoint" />
          </mxGeometry>
        </mxCell>
        <mxCell id="nm2eo2nv4SzdI6bSQcPC-297" value="" style="endArrow=none;html=1;rounded=0;fillColor=light-dark(#FFFFFF,#FF0000);strokeColor=light-dark(#000000,#FF0000);movable=1;resizable=1;rotatable=1;deletable=1;editable=1;locked=0;connectable=1;" edge="1" parent="1">
          <mxGeometry width="50" height="50" relative="1" as="geometry">
            <mxPoint x="1220" y="380" as="sourcePoint" />
            <mxPoint x="1220" y="360" as="targetPoint" />
          </mxGeometry>
        </mxCell>
        <mxCell id="nm2eo2nv4SzdI6bSQcPC-298" value="" style="endArrow=none;html=1;rounded=0;fillColor=light-dark(#FFFFFF,#FF0000);strokeColor=light-dark(#000000,#FF0000);movable=1;resizable=1;rotatable=1;deletable=1;editable=1;locked=0;connectable=1;" edge="1" parent="1">
          <mxGeometry width="50" height="50" relative="1" as="geometry">
            <mxPoint x="1120" y="360" as="sourcePoint" />
            <mxPoint x="1100" y="360" as="targetPoint" />
          </mxGeometry>
        </mxCell>
        <mxCell id="nm2eo2nv4SzdI6bSQcPC-299" value="" style="endArrow=none;html=1;rounded=0;fillColor=light-dark(#FFFFFF,#FF0000);strokeColor=light-dark(#000000,#FF0000);movable=1;resizable=1;rotatable=1;deletable=1;editable=1;locked=0;connectable=1;" edge="1" parent="1">
          <mxGeometry width="50" height="50" relative="1" as="geometry">
            <mxPoint x="1261" y="380" as="sourcePoint" />
            <mxPoint x="1241" y="380" as="targetPoint" />
          </mxGeometry>
        </mxCell>
        <mxCell id="nm2eo2nv4SzdI6bSQcPC-300" value="" style="endArrow=none;html=1;rounded=0;fillColor=light-dark(#FFFFFF,#FF0000);strokeColor=light-dark(#000000,#FF0000);movable=1;resizable=1;rotatable=1;deletable=1;editable=1;locked=0;connectable=1;" edge="1" parent="1">
          <mxGeometry width="50" height="50" relative="1" as="geometry">
            <mxPoint x="1140" y="380" as="sourcePoint" />
            <mxPoint x="1140" y="360" as="targetPoint" />
          </mxGeometry>
        </mxCell>
        <mxCell id="nm2eo2nv4SzdI6bSQcPC-302" value="" style="endArrow=none;html=1;rounded=0;fillColor=light-dark(#FFFFFF,#FF0000);strokeColor=light-dark(#000000,#FF0000);movable=1;resizable=1;rotatable=1;deletable=1;editable=1;locked=0;connectable=1;" edge="1" parent="1">
          <mxGeometry width="50" height="50" relative="1" as="geometry">
            <mxPoint x="1220" y="360" as="sourcePoint" />
            <mxPoint x="1200" y="360" as="targetPoint" />
          </mxGeometry>
        </mxCell>
        <mxCell id="nm2eo2nv4SzdI6bSQcPC-303" value="" style="endArrow=none;html=1;rounded=0;fillColor=light-dark(#FFFFFF,#FF0000);strokeColor=light-dark(#000000,#00FF00);movable=1;resizable=1;rotatable=1;deletable=1;editable=1;locked=0;connectable=1;" edge="1" parent="1">
          <mxGeometry width="50" height="50" relative="1" as="geometry">
            <mxPoint x="1280" y="520" as="sourcePoint" />
            <mxPoint x="1260" y="520" as="targetPoint" />
          </mxGeometry>
        </mxCell>
        <mxCell id="nm2eo2nv4SzdI6bSQcPC-304" value="" style="endArrow=none;html=1;rounded=0;fillColor=light-dark(#FFFFFF,#FF0000);strokeColor=light-dark(#000000,#00FF00);movable=1;resizable=1;rotatable=1;deletable=1;editable=1;locked=0;connectable=1;" edge="1" parent="1">
          <mxGeometry width="50" height="50" relative="1" as="geometry">
            <mxPoint x="1200" y="430" as="sourcePoint" />
            <mxPoint x="1200" y="410" as="targetPoint" />
          </mxGeometry>
        </mxCell>
        <mxCell id="nm2eo2nv4SzdI6bSQcPC-305" value="" style="endArrow=none;html=1;rounded=0;fillColor=light-dark(#FFFFFF,#FF0000);strokeColor=light-dark(#000000,#FF0000);movable=1;resizable=1;rotatable=1;deletable=1;editable=1;locked=0;connectable=1;" edge="1" parent="1">
          <mxGeometry width="50" height="50" relative="1" as="geometry">
            <mxPoint x="1360.0000000000002" y="380" as="sourcePoint" />
            <mxPoint x="1360.0000000000002" y="360" as="targetPoint" />
          </mxGeometry>
        </mxCell>
        <mxCell id="nm2eo2nv4SzdI6bSQcPC-306" value="" style="endArrow=none;html=1;rounded=0;fillColor=light-dark(#FFFFFF,#FF0000);strokeColor=light-dark(#000000,#FF0000);movable=1;resizable=1;rotatable=1;deletable=1;editable=1;locked=0;connectable=1;" edge="1" parent="1">
          <mxGeometry width="50" height="50" relative="1" as="geometry">
            <mxPoint x="1280" y="360" as="sourcePoint" />
            <mxPoint x="1260" y="360" as="targetPoint" />
          </mxGeometry>
        </mxCell>
        <mxCell id="nm2eo2nv4SzdI6bSQcPC-307" value="" style="endArrow=none;html=1;rounded=0;fillColor=light-dark(#FFFFFF,#FF0000);strokeColor=light-dark(#000000,#00FF00);movable=1;resizable=1;rotatable=1;deletable=1;editable=1;locked=0;connectable=1;" edge="1" parent="1">
          <mxGeometry width="50" height="50" relative="1" as="geometry">
            <mxPoint x="1090" y="590" as="sourcePoint" />
            <mxPoint x="1070" y="590" as="targetPoint" />
          </mxGeometry>
        </mxCell>
        <mxCell id="nm2eo2nv4SzdI6bSQcPC-308" value="" style="endArrow=none;html=1;rounded=0;fillColor=light-dark(#FFFFFF,#FF0000);strokeColor=light-dark(#000000,#00FF00);movable=1;resizable=1;rotatable=1;deletable=1;editable=1;locked=0;connectable=1;" edge="1" parent="1">
          <mxGeometry width="50" height="50" relative="1" as="geometry">
            <mxPoint x="1130" y="590" as="sourcePoint" />
            <mxPoint x="1130" y="570" as="targetPoint" />
          </mxGeometry>
        </mxCell>
        <mxCell id="nm2eo2nv4SzdI6bSQcPC-309" value="" style="endArrow=none;html=1;rounded=0;fillColor=light-dark(#FFFFFF,#FF0000);strokeColor=light-dark(#000000,#00FF00);movable=1;resizable=1;rotatable=1;deletable=1;editable=1;locked=0;connectable=1;" edge="1" parent="1">
          <mxGeometry width="50" height="50" relative="1" as="geometry">
            <mxPoint x="1140" y="590" as="sourcePoint" />
            <mxPoint x="1140" y="570" as="targetPoint" />
          </mxGeometry>
        </mxCell>
        <mxCell id="nm2eo2nv4SzdI6bSQcPC-310" value="" style="endArrow=none;html=1;rounded=0;fillColor=light-dark(#FFFFFF,#FF0000);strokeColor=light-dark(#000000,#FF0000);movable=1;resizable=1;rotatable=1;deletable=1;editable=1;locked=0;connectable=1;" edge="1" parent="1">
          <mxGeometry width="50" height="50" relative="1" as="geometry">
            <mxPoint x="1340" y="380" as="sourcePoint" />
            <mxPoint x="1320" y="380" as="targetPoint" />
          </mxGeometry>
        </mxCell>
        <mxCell id="nm2eo2nv4SzdI6bSQcPC-311" value="" style="endArrow=none;html=1;rounded=0;fillColor=light-dark(#FFFFFF,#FF0000);strokeColor=light-dark(#000000,#00FF00);movable=1;resizable=1;rotatable=1;deletable=1;editable=1;locked=0;connectable=1;" edge="1" parent="1">
          <mxGeometry width="50" height="50" relative="1" as="geometry">
            <mxPoint x="1100" y="600" as="sourcePoint" />
            <mxPoint x="1080" y="600" as="targetPoint" />
          </mxGeometry>
        </mxCell>
        <mxCell id="nm2eo2nv4SzdI6bSQcPC-312" value="" style="endArrow=none;html=1;rounded=0;fillColor=light-dark(#FFFFFF,#FF0000);strokeColor=light-dark(#000000,#00FF00);movable=1;resizable=1;rotatable=1;deletable=1;editable=1;locked=0;connectable=1;" edge="1" parent="1">
          <mxGeometry width="50" height="50" relative="1" as="geometry">
            <mxPoint x="1140" y="600" as="sourcePoint" />
            <mxPoint x="1140" y="580" as="targetPoint" />
          </mxGeometry>
        </mxCell>
        <mxCell id="nm2eo2nv4SzdI6bSQcPC-313" value="" style="endArrow=none;html=1;rounded=0;fillColor=light-dark(#FFFFFF,#FF0000);strokeColor=light-dark(#000000,#00FF00);movable=1;resizable=1;rotatable=1;deletable=1;editable=1;locked=0;connectable=1;" edge="1" parent="1">
          <mxGeometry width="50" height="50" relative="1" as="geometry">
            <mxPoint x="1150" y="600" as="sourcePoint" />
            <mxPoint x="1150" y="580" as="targetPoint" />
          </mxGeometry>
        </mxCell>
        <mxCell id="nm2eo2nv4SzdI6bSQcPC-314" value="" style="endArrow=none;html=1;rounded=0;fillColor=light-dark(#FFFFFF,#FF0000);strokeColor=light-dark(#000000,#00FF00);movable=1;resizable=1;rotatable=1;deletable=1;editable=1;locked=0;connectable=1;" edge="1" parent="1">
          <mxGeometry width="50" height="50" relative="1" as="geometry">
            <mxPoint x="1110" y="600" as="sourcePoint" />
            <mxPoint x="1090" y="600" as="targetPoint" />
          </mxGeometry>
        </mxCell>
        <mxCell id="nm2eo2nv4SzdI6bSQcPC-315" value="" style="endArrow=none;html=1;rounded=0;fillColor=light-dark(#FFFFFF,#FF0000);strokeColor=light-dark(#000000,#00FF00);movable=1;resizable=1;rotatable=1;deletable=1;editable=1;locked=0;connectable=1;" edge="1" parent="1">
          <mxGeometry width="50" height="50" relative="1" as="geometry">
            <mxPoint x="1110" y="610" as="sourcePoint" />
            <mxPoint x="1090" y="610" as="targetPoint" />
          </mxGeometry>
        </mxCell>
        <mxCell id="nm2eo2nv4SzdI6bSQcPC-316" value="" style="endArrow=none;html=1;rounded=0;fillColor=light-dark(#FFFFFF,#FF0000);strokeColor=light-dark(#000000,#00FF00);movable=1;resizable=1;rotatable=1;deletable=1;editable=1;locked=0;connectable=1;" edge="1" parent="1">
          <mxGeometry width="50" height="50" relative="1" as="geometry">
            <mxPoint x="1150" y="610" as="sourcePoint" />
            <mxPoint x="1150" y="590" as="targetPoint" />
          </mxGeometry>
        </mxCell>
        <mxCell id="nm2eo2nv4SzdI6bSQcPC-317" value="" style="endArrow=none;html=1;rounded=0;fillColor=light-dark(#FFFFFF,#FF0000);strokeColor=light-dark(#000000,#00FF00);movable=1;resizable=1;rotatable=1;deletable=1;editable=1;locked=0;connectable=1;" edge="1" parent="1">
          <mxGeometry width="50" height="50" relative="1" as="geometry">
            <mxPoint x="1160" y="610" as="sourcePoint" />
            <mxPoint x="1160" y="590" as="targetPoint" />
          </mxGeometry>
        </mxCell>
        <mxCell id="nm2eo2nv4SzdI6bSQcPC-318" value="" style="endArrow=none;html=1;rounded=0;fillColor=light-dark(#FFFFFF,#FF0000);strokeColor=light-dark(#000000,#00FF00);movable=1;resizable=1;rotatable=1;deletable=1;editable=1;locked=0;connectable=1;" edge="1" parent="1">
          <mxGeometry width="50" height="50" relative="1" as="geometry">
            <mxPoint x="1120" y="610" as="sourcePoint" />
            <mxPoint x="1100" y="610" as="targetPoint" />
          </mxGeometry>
        </mxCell>
        <mxCell id="nm2eo2nv4SzdI6bSQcPC-319" value="" style="endArrow=none;html=1;rounded=0;fillColor=light-dark(#FFFFFF,#FF0000);strokeColor=light-dark(#000000,#00FF00);movable=1;resizable=1;rotatable=1;deletable=1;editable=1;locked=0;connectable=1;" edge="1" parent="1">
          <mxGeometry width="50" height="50" relative="1" as="geometry">
            <mxPoint x="1120" y="620" as="sourcePoint" />
            <mxPoint x="1100" y="620" as="targetPoint" />
          </mxGeometry>
        </mxCell>
        <mxCell id="nm2eo2nv4SzdI6bSQcPC-320" value="" style="endArrow=none;html=1;rounded=0;fillColor=light-dark(#FFFFFF,#FF0000);strokeColor=light-dark(#000000,#00FF00);movable=1;resizable=1;rotatable=1;deletable=1;editable=1;locked=0;connectable=1;" edge="1" parent="1">
          <mxGeometry width="50" height="50" relative="1" as="geometry">
            <mxPoint x="1160" y="620" as="sourcePoint" />
            <mxPoint x="1160" y="600" as="targetPoint" />
          </mxGeometry>
        </mxCell>
        <mxCell id="nm2eo2nv4SzdI6bSQcPC-322" value="" style="endArrow=none;html=1;rounded=0;fillColor=light-dark(#FFFFFF,#FF0000);strokeColor=light-dark(#000000,#00FF00);movable=1;resizable=1;rotatable=1;deletable=1;editable=1;locked=0;connectable=1;" edge="1" parent="1">
          <mxGeometry width="50" height="50" relative="1" as="geometry">
            <mxPoint x="1130" y="620" as="sourcePoint" />
            <mxPoint x="1110" y="620" as="targetPoint" />
          </mxGeometry>
        </mxCell>
        <mxCell id="nm2eo2nv4SzdI6bSQcPC-323" value="" style="endArrow=none;html=1;rounded=0;fillColor=light-dark(#FFFFFF,#FF0000);strokeColor=light-dark(#000000,#00FF00);movable=1;resizable=1;rotatable=1;deletable=1;editable=1;locked=0;connectable=1;" edge="1" parent="1">
          <mxGeometry width="50" height="50" relative="1" as="geometry">
            <mxPoint x="1130" y="630" as="sourcePoint" />
            <mxPoint x="1110" y="630" as="targetPoint" />
          </mxGeometry>
        </mxCell>
        <mxCell id="nm2eo2nv4SzdI6bSQcPC-324" value="" style="endArrow=none;html=1;rounded=0;fillColor=light-dark(#FFFFFF,#FF0000);strokeColor=light-dark(#000000,#00FF00);movable=1;resizable=1;rotatable=1;deletable=1;editable=1;locked=0;connectable=1;" edge="1" parent="1">
          <mxGeometry width="50" height="50" relative="1" as="geometry">
            <mxPoint x="1170" y="630" as="sourcePoint" />
            <mxPoint x="1170" y="610" as="targetPoint" />
          </mxGeometry>
        </mxCell>
        <mxCell id="nm2eo2nv4SzdI6bSQcPC-325" value="" style="endArrow=none;html=1;rounded=0;fillColor=light-dark(#FFFFFF,#FF0000);strokeColor=light-dark(#000000,#00FF00);movable=1;resizable=1;rotatable=1;deletable=1;editable=1;locked=0;connectable=1;" edge="1" parent="1">
          <mxGeometry width="50" height="50" relative="1" as="geometry">
            <mxPoint x="1180" y="630" as="sourcePoint" />
            <mxPoint x="1180" y="610" as="targetPoint" />
          </mxGeometry>
        </mxCell>
        <mxCell id="nm2eo2nv4SzdI6bSQcPC-328" value="" style="endArrow=none;html=1;rounded=0;strokeColor=light-dark(#000000,#00FF00);" edge="1" parent="1">
          <mxGeometry width="50" height="50" relative="1" as="geometry">
            <mxPoint x="1040" y="430" as="sourcePoint" />
            <mxPoint x="1080" y="410" as="targetPoint" />
            <Array as="points">
              <mxPoint x="1060" y="430" />
              <mxPoint x="1060" y="410" />
            </Array>
          </mxGeometry>
        </mxCell>
        <mxCell id="nm2eo2nv4SzdI6bSQcPC-329" value="" style="endArrow=none;html=1;rounded=0;strokeColor=light-dark(#000000,#00FF00);" edge="1" parent="1">
          <mxGeometry width="50" height="50" relative="1" as="geometry">
            <mxPoint x="1240" y="410" as="sourcePoint" />
            <mxPoint x="1280" y="430" as="targetPoint" />
            <Array as="points">
              <mxPoint x="1260" y="410" />
              <mxPoint x="1260" y="430" />
            </Array>
          </mxGeometry>
        </mxCell>
        <mxCell id="nm2eo2nv4SzdI6bSQcPC-330" value="" style="endArrow=none;html=1;rounded=0;strokeColor=light-dark(#000000,#FF0000);" edge="1" parent="1">
          <mxGeometry width="50" height="50" relative="1" as="geometry">
            <mxPoint x="1360" y="380" as="sourcePoint" />
            <mxPoint x="1400" y="360" as="targetPoint" />
            <Array as="points">
              <mxPoint x="1380" y="380" />
              <mxPoint x="1380" y="360" />
            </Array>
          </mxGeometry>
        </mxCell>
        <mxCell id="nm2eo2nv4SzdI6bSQcPC-331" value="" style="endArrow=none;html=1;rounded=0;strokeColor=light-dark(#000000,#00FF00);" edge="1" parent="1">
          <mxGeometry width="50" height="50" relative="1" as="geometry">
            <mxPoint x="1160" y="430" as="sourcePoint" />
            <mxPoint x="1200" y="410" as="targetPoint" />
            <Array as="points">
              <mxPoint x="1180" y="430" />
              <mxPoint x="1180" y="410" />
            </Array>
          </mxGeometry>
        </mxCell>
        <mxCell id="nm2eo2nv4SzdI6bSQcPC-332" value="" style="endArrow=none;html=1;rounded=0;strokeColor=light-dark(#000000,#00FF00);" edge="1" parent="1">
          <mxGeometry width="50" height="50" relative="1" as="geometry">
            <mxPoint x="1200" y="430" as="sourcePoint" />
            <mxPoint x="1240" y="410" as="targetPoint" />
            <Array as="points">
              <mxPoint x="1220" y="430" />
              <mxPoint x="1220" y="410" />
            </Array>
          </mxGeometry>
        </mxCell>
        <mxCell id="nm2eo2nv4SzdI6bSQcPC-333" value="" style="endArrow=none;html=1;rounded=0;strokeColor=light-dark(#000000,#00FF00);" edge="1" parent="1">
          <mxGeometry width="50" height="50" relative="1" as="geometry">
            <mxPoint x="1320" y="430" as="sourcePoint" />
            <mxPoint x="1360" y="410" as="targetPoint" />
            <Array as="points">
              <mxPoint x="1340" y="430" />
              <mxPoint x="1340" y="410" />
            </Array>
          </mxGeometry>
        </mxCell>
        <mxCell id="nm2eo2nv4SzdI6bSQcPC-334" value="" style="endArrow=none;html=1;rounded=0;strokeColor=light-dark(#000000,#00FF00);" edge="1" parent="1">
          <mxGeometry width="50" height="50" relative="1" as="geometry">
            <mxPoint x="1340" y="620" as="sourcePoint" />
            <mxPoint x="1380" y="600" as="targetPoint" />
            <Array as="points">
              <mxPoint x="1360" y="620" />
              <mxPoint x="1360" y="600" />
            </Array>
          </mxGeometry>
        </mxCell>
        <mxCell id="nm2eo2nv4SzdI6bSQcPC-335" value="" style="endArrow=none;html=1;rounded=0;strokeColor=light-dark(#000000,#00FF00);" edge="1" parent="1">
          <mxGeometry width="50" height="50" relative="1" as="geometry">
            <mxPoint x="1350" y="630" as="sourcePoint" />
            <mxPoint x="1390" y="610" as="targetPoint" />
            <Array as="points">
              <mxPoint x="1370" y="630" />
              <mxPoint x="1370" y="610" />
            </Array>
          </mxGeometry>
        </mxCell>
        <mxCell id="nm2eo2nv4SzdI6bSQcPC-336" value="" style="endArrow=none;html=1;rounded=0;strokeColor=light-dark(#000000,#00FF00);" edge="1" parent="1">
          <mxGeometry width="50" height="50" relative="1" as="geometry">
            <mxPoint x="1360" y="640" as="sourcePoint" />
            <mxPoint x="1400" y="620" as="targetPoint" />
            <Array as="points">
              <mxPoint x="1380" y="640" />
              <mxPoint x="1380" y="620" />
            </Array>
          </mxGeometry>
        </mxCell>
        <mxCell id="nm2eo2nv4SzdI6bSQcPC-337" value="" style="endArrow=none;html=1;rounded=0;strokeColor=light-dark(#000000,#00FF00);" edge="1" parent="1">
          <mxGeometry width="50" height="50" relative="1" as="geometry">
            <mxPoint x="1370" y="650" as="sourcePoint" />
            <mxPoint x="1410" y="630" as="targetPoint" />
            <Array as="points">
              <mxPoint x="1390" y="650" />
              <mxPoint x="1390" y="630" />
            </Array>
          </mxGeometry>
        </mxCell>
        <mxCell id="nm2eo2nv4SzdI6bSQcPC-338" value="" style="endArrow=none;html=1;rounded=0;strokeColor=light-dark(#000000,#00FF00);" edge="1" parent="1">
          <mxGeometry width="50" height="50" relative="1" as="geometry">
            <mxPoint x="1380" y="660" as="sourcePoint" />
            <mxPoint x="1420" y="640" as="targetPoint" />
            <Array as="points">
              <mxPoint x="1400" y="660" />
              <mxPoint x="1400" y="640" />
            </Array>
          </mxGeometry>
        </mxCell>
        <mxCell id="nm2eo2nv4SzdI6bSQcPC-339" value="" style="endArrow=none;html=1;rounded=0;strokeColor=light-dark(#000000,#00FF00);" edge="1" parent="1">
          <mxGeometry width="50" height="50" relative="1" as="geometry">
            <mxPoint x="1390" y="670" as="sourcePoint" />
            <mxPoint x="1430" y="650" as="targetPoint" />
            <Array as="points">
              <mxPoint x="1410" y="670" />
              <mxPoint x="1410" y="650" />
            </Array>
          </mxGeometry>
        </mxCell>
        <mxCell id="nm2eo2nv4SzdI6bSQcPC-340" value="" style="endArrow=none;html=1;rounded=0;strokeColor=light-dark(#000000,#00FF00);" edge="1" parent="1">
          <mxGeometry width="50" height="50" relative="1" as="geometry">
            <mxPoint x="1120" y="410" as="sourcePoint" />
            <mxPoint x="1160" y="430" as="targetPoint" />
            <Array as="points">
              <mxPoint x="1140" y="410" />
              <mxPoint x="1140" y="430" />
            </Array>
          </mxGeometry>
        </mxCell>
        <mxCell id="nm2eo2nv4SzdI6bSQcPC-341" value="" style="endArrow=none;html=1;rounded=0;strokeColor=light-dark(#000000,#00FF00);" edge="1" parent="1">
          <mxGeometry width="50" height="50" relative="1" as="geometry">
            <mxPoint x="1360" y="410" as="sourcePoint" />
            <mxPoint x="1400" y="430" as="targetPoint" />
            <Array as="points">
              <mxPoint x="1380" y="410" />
              <mxPoint x="1380" y="430" />
            </Array>
          </mxGeometry>
        </mxCell>
        <mxCell id="nm2eo2nv4SzdI6bSQcPC-342" value="" style="endArrow=none;html=1;rounded=0;strokeColor=light-dark(#000000,#00FF00);" edge="1" parent="1">
          <mxGeometry width="50" height="50" relative="1" as="geometry">
            <mxPoint x="1120" y="540" as="sourcePoint" />
            <mxPoint x="1160" y="560" as="targetPoint" />
            <Array as="points">
              <mxPoint x="1140" y="540" />
              <mxPoint x="1140" y="560" />
            </Array>
          </mxGeometry>
        </mxCell>
        <mxCell id="nm2eo2nv4SzdI6bSQcPC-343" value="" style="endArrow=none;html=1;rounded=0;strokeColor=light-dark(#000000,#00FF00);" edge="1" parent="1">
          <mxGeometry width="50" height="50" relative="1" as="geometry">
            <mxPoint x="1130" y="550" as="sourcePoint" />
            <mxPoint x="1170" y="570" as="targetPoint" />
            <Array as="points">
              <mxPoint x="1150" y="550" />
              <mxPoint x="1150" y="570" />
            </Array>
          </mxGeometry>
        </mxCell>
        <mxCell id="nm2eo2nv4SzdI6bSQcPC-344" value="" style="endArrow=none;html=1;rounded=0;strokeColor=light-dark(#000000,#00FF00);" edge="1" parent="1">
          <mxGeometry width="50" height="50" relative="1" as="geometry">
            <mxPoint x="1140" y="560" as="sourcePoint" />
            <mxPoint x="1180" y="580" as="targetPoint" />
            <Array as="points">
              <mxPoint x="1160" y="560" />
              <mxPoint x="1160" y="580" />
            </Array>
          </mxGeometry>
        </mxCell>
        <mxCell id="nm2eo2nv4SzdI6bSQcPC-345" value="" style="endArrow=none;html=1;rounded=0;strokeColor=light-dark(#000000,#00FF00);" edge="1" parent="1">
          <mxGeometry width="50" height="50" relative="1" as="geometry">
            <mxPoint x="1150" y="570" as="sourcePoint" />
            <mxPoint x="1190" y="590" as="targetPoint" />
            <Array as="points">
              <mxPoint x="1170" y="570" />
              <mxPoint x="1170" y="590" />
            </Array>
          </mxGeometry>
        </mxCell>
        <mxCell id="nm2eo2nv4SzdI6bSQcPC-346" value="" style="endArrow=none;html=1;rounded=0;strokeColor=light-dark(#000000,#00FF00);" edge="1" parent="1">
          <mxGeometry width="50" height="50" relative="1" as="geometry">
            <mxPoint x="1080" y="410" as="sourcePoint" />
            <mxPoint x="1120" y="430" as="targetPoint" />
            <Array as="points">
              <mxPoint x="1100" y="410" />
              <mxPoint x="1100" y="430" />
            </Array>
          </mxGeometry>
        </mxCell>
        <mxCell id="nm2eo2nv4SzdI6bSQcPC-347" value="" style="endArrow=none;html=1;rounded=0;strokeColor=light-dark(#000000,#00FF00);" edge="1" parent="1">
          <mxGeometry width="50" height="50" relative="1" as="geometry">
            <mxPoint x="1280" y="410" as="sourcePoint" />
            <mxPoint x="1320" y="430" as="targetPoint" />
            <Array as="points">
              <mxPoint x="1300" y="410" />
              <mxPoint x="1300" y="430" />
            </Array>
          </mxGeometry>
        </mxCell>
        <mxCell id="nm2eo2nv4SzdI6bSQcPC-348" value="" style="endArrow=none;html=1;rounded=0;strokeColor=light-dark(#000000,#00FF00);" edge="1" parent="1">
          <mxGeometry width="50" height="50" relative="1" as="geometry">
            <mxPoint x="1120" y="540" as="sourcePoint" />
            <mxPoint x="1160" y="560" as="targetPoint" />
            <Array as="points">
              <mxPoint x="1140" y="540" />
              <mxPoint x="1140" y="560" />
            </Array>
          </mxGeometry>
        </mxCell>
        <mxCell id="nm2eo2nv4SzdI6bSQcPC-349" value="" style="endArrow=none;html=1;rounded=0;strokeColor=light-dark(#000000,#00FF00);" edge="1" parent="1">
          <mxGeometry width="50" height="50" relative="1" as="geometry">
            <mxPoint x="1130" y="550" as="sourcePoint" />
            <mxPoint x="1170" y="570" as="targetPoint" />
            <Array as="points">
              <mxPoint x="1150" y="550" />
              <mxPoint x="1150" y="570" />
            </Array>
          </mxGeometry>
        </mxCell>
        <mxCell id="nm2eo2nv4SzdI6bSQcPC-350" value="" style="endArrow=none;html=1;rounded=0;strokeColor=light-dark(#000000,#00FF00);" edge="1" parent="1">
          <mxGeometry width="50" height="50" relative="1" as="geometry">
            <mxPoint x="1140" y="560" as="sourcePoint" />
            <mxPoint x="1180" y="580" as="targetPoint" />
            <Array as="points">
              <mxPoint x="1160" y="560" />
              <mxPoint x="1160" y="580" />
            </Array>
          </mxGeometry>
        </mxCell>
        <mxCell id="nm2eo2nv4SzdI6bSQcPC-351" value="" style="endArrow=none;html=1;rounded=0;strokeColor=light-dark(#000000,#00FF00);" edge="1" parent="1">
          <mxGeometry width="50" height="50" relative="1" as="geometry">
            <mxPoint x="1150" y="570" as="sourcePoint" />
            <mxPoint x="1190" y="590" as="targetPoint" />
            <Array as="points">
              <mxPoint x="1170" y="570" />
              <mxPoint x="1170" y="590" />
            </Array>
          </mxGeometry>
        </mxCell>
        <mxCell id="nm2eo2nv4SzdI6bSQcPC-352" value="" style="endArrow=none;html=1;rounded=0;strokeColor=light-dark(#000000,#00FF00);" edge="1" parent="1">
          <mxGeometry width="50" height="50" relative="1" as="geometry">
            <mxPoint x="1160" y="580" as="sourcePoint" />
            <mxPoint x="1200" y="600" as="targetPoint" />
            <Array as="points">
              <mxPoint x="1180" y="580" />
              <mxPoint x="1180" y="600" />
            </Array>
          </mxGeometry>
        </mxCell>
        <mxCell id="nm2eo2nv4SzdI6bSQcPC-353" value="" style="endArrow=none;html=1;rounded=0;strokeColor=light-dark(#000000,#00FF00);" edge="1" parent="1">
          <mxGeometry width="50" height="50" relative="1" as="geometry">
            <mxPoint x="1170" y="590" as="sourcePoint" />
            <mxPoint x="1210" y="610" as="targetPoint" />
            <Array as="points">
              <mxPoint x="1190" y="590" />
              <mxPoint x="1190" y="610" />
            </Array>
          </mxGeometry>
        </mxCell>
        <mxCell id="nm2eo2nv4SzdI6bSQcPC-354" value="" style="endArrow=none;html=1;rounded=0;strokeColor=light-dark(#000000,#00FF00);" edge="1" parent="1">
          <mxGeometry width="50" height="50" relative="1" as="geometry">
            <mxPoint x="1180" y="600" as="sourcePoint" />
            <mxPoint x="1220" y="620" as="targetPoint" />
            <Array as="points">
              <mxPoint x="1200" y="600" />
              <mxPoint x="1200" y="620" />
            </Array>
          </mxGeometry>
        </mxCell>
        <mxCell id="nm2eo2nv4SzdI6bSQcPC-355" value="" style="endArrow=none;html=1;rounded=0;strokeColor=light-dark(#000000,#00FF00);" edge="1" parent="1">
          <mxGeometry width="50" height="50" relative="1" as="geometry">
            <mxPoint x="1190" y="610" as="sourcePoint" />
            <mxPoint x="1230" y="630" as="targetPoint" />
            <Array as="points">
              <mxPoint x="1210" y="610" />
              <mxPoint x="1210" y="630" />
            </Array>
          </mxGeometry>
        </mxCell>
        <mxCell id="nm2eo2nv4SzdI6bSQcPC-356" value="" style="endArrow=none;html=1;rounded=0;strokeColor=light-dark(#000000,#00FF00);" edge="1" parent="1">
          <mxGeometry width="50" height="50" relative="1" as="geometry">
            <mxPoint x="1200" y="620" as="sourcePoint" />
            <mxPoint x="1240" y="640" as="targetPoint" />
            <Array as="points">
              <mxPoint x="1220" y="620" />
              <mxPoint x="1220" y="640" />
            </Array>
          </mxGeometry>
        </mxCell>
        <mxCell id="nm2eo2nv4SzdI6bSQcPC-357" value="" style="endArrow=none;html=1;rounded=0;strokeColor=light-dark(#000000,#00FF00);" edge="1" parent="1">
          <mxGeometry width="50" height="50" relative="1" as="geometry">
            <mxPoint x="1210" y="630" as="sourcePoint" />
            <mxPoint x="1250" y="650" as="targetPoint" />
            <Array as="points">
              <mxPoint x="1230" y="630" />
              <mxPoint x="1230" y="650" />
            </Array>
          </mxGeometry>
        </mxCell>
        <mxCell id="nm2eo2nv4SzdI6bSQcPC-358" value="" style="endArrow=none;html=1;rounded=0;strokeColor=light-dark(#000000,#00FF00);" edge="1" parent="1">
          <mxGeometry width="50" height="50" relative="1" as="geometry">
            <mxPoint x="1220" y="640" as="sourcePoint" />
            <mxPoint x="1260" y="660" as="targetPoint" />
            <Array as="points">
              <mxPoint x="1240" y="640" />
              <mxPoint x="1240" y="660" />
            </Array>
          </mxGeometry>
        </mxCell>
        <mxCell id="nm2eo2nv4SzdI6bSQcPC-359" value="" style="endArrow=none;html=1;rounded=0;strokeColor=light-dark(#000000,#00FF00);" edge="1" parent="1">
          <mxGeometry width="50" height="50" relative="1" as="geometry">
            <mxPoint x="1230" y="650" as="sourcePoint" />
            <mxPoint x="1270" y="670" as="targetPoint" />
            <Array as="points">
              <mxPoint x="1250" y="650" />
              <mxPoint x="1250" y="670" />
            </Array>
          </mxGeometry>
        </mxCell>
        <mxCell id="nm2eo2nv4SzdI6bSQcPC-360" value="" style="endArrow=none;html=1;rounded=0;strokeColor=light-dark(#000000,#00FF00);" edge="1" parent="1">
          <mxGeometry width="50" height="50" relative="1" as="geometry">
            <mxPoint x="1240" y="660" as="sourcePoint" />
            <mxPoint x="1280" y="680" as="targetPoint" />
            <Array as="points">
              <mxPoint x="1260" y="660" />
              <mxPoint x="1260" y="680" />
            </Array>
          </mxGeometry>
        </mxCell>
        <mxCell id="nm2eo2nv4SzdI6bSQcPC-361" value="&lt;b&gt;&lt;i&gt;Manchester&lt;/i&gt;&lt;/b&gt;" style="text;html=1;align=center;verticalAlign=middle;resizable=0;points=[];autosize=1;strokeColor=none;fillColor=none;" vertex="1" parent="1">
          <mxGeometry x="940" y="350" width="90" height="30" as="geometry" />
        </mxCell>
        <mxCell id="nm2eo2nv4SzdI6bSQcPC-362" value="&lt;i&gt;&lt;b&gt;Manchester&lt;br&gt;Diferencial&lt;/b&gt;&lt;/i&gt;&lt;div&gt;&lt;i&gt;&lt;b&gt;&lt;br&gt;&lt;/b&gt;&lt;/i&gt;&lt;/div&gt;" style="text;html=1;align=center;verticalAlign=middle;resizable=0;points=[];autosize=1;strokeColor=none;fillColor=none;" vertex="1" parent="1">
          <mxGeometry x="940" y="400" width="90" height="60" as="geometry" />
        </mxCell>
        <mxCell id="nm2eo2nv4SzdI6bSQcPC-363" value="" style="endArrow=classic;html=1;rounded=0;" edge="1" parent="1">
          <mxGeometry width="50" height="50" relative="1" as="geometry">
            <mxPoint x="1120" y="1110" as="sourcePoint" />
            <mxPoint x="1120" y="960" as="targetPoint" />
          </mxGeometry>
        </mxCell>
        <mxCell id="nm2eo2nv4SzdI6bSQcPC-364" value="" style="endArrow=classic;html=1;rounded=0;" edge="1" parent="1">
          <mxGeometry width="50" height="50" relative="1" as="geometry">
            <mxPoint x="1121" y="1060" as="sourcePoint" />
            <mxPoint x="1521" y="1060" as="targetPoint" />
          </mxGeometry>
        </mxCell>
        <mxCell id="nm2eo2nv4SzdI6bSQcPC-365" value="" style="endArrow=classic;html=1;rounded=0;" edge="1" parent="1">
          <mxGeometry width="50" height="50" relative="1" as="geometry">
            <mxPoint x="1121" y="1010" as="sourcePoint" />
            <mxPoint x="1521" y="1010" as="targetPoint" />
          </mxGeometry>
        </mxCell>
        <mxCell id="nm2eo2nv4SzdI6bSQcPC-366" value="" style="endArrow=none;dashed=1;html=1;rounded=0;" edge="1" parent="1">
          <mxGeometry width="50" height="50" relative="1" as="geometry">
            <mxPoint x="1160" y="1110" as="sourcePoint" />
            <mxPoint x="1160" y="960" as="targetPoint" />
          </mxGeometry>
        </mxCell>
        <mxCell id="nm2eo2nv4SzdI6bSQcPC-367" value="" style="endArrow=none;dashed=1;html=1;rounded=0;" edge="1" parent="1">
          <mxGeometry width="50" height="50" relative="1" as="geometry">
            <mxPoint x="1480" y="1110" as="sourcePoint" />
            <mxPoint x="1480" y="960" as="targetPoint" />
          </mxGeometry>
        </mxCell>
        <mxCell id="nm2eo2nv4SzdI6bSQcPC-368" value="" style="endArrow=none;dashed=1;html=1;rounded=0;" edge="1" parent="1">
          <mxGeometry width="50" height="50" relative="1" as="geometry">
            <mxPoint x="1360" y="1110" as="sourcePoint" />
            <mxPoint x="1360" y="960" as="targetPoint" />
          </mxGeometry>
        </mxCell>
        <mxCell id="nm2eo2nv4SzdI6bSQcPC-369" value="" style="endArrow=none;dashed=1;html=1;rounded=0;" edge="1" parent="1">
          <mxGeometry width="50" height="50" relative="1" as="geometry">
            <mxPoint x="1400" y="1110" as="sourcePoint" />
            <mxPoint x="1400" y="960" as="targetPoint" />
          </mxGeometry>
        </mxCell>
        <mxCell id="nm2eo2nv4SzdI6bSQcPC-370" value="" style="endArrow=none;dashed=1;html=1;rounded=0;" edge="1" parent="1">
          <mxGeometry width="50" height="50" relative="1" as="geometry">
            <mxPoint x="1320" y="1110" as="sourcePoint" />
            <mxPoint x="1320" y="960" as="targetPoint" />
          </mxGeometry>
        </mxCell>
        <mxCell id="nm2eo2nv4SzdI6bSQcPC-371" value="" style="endArrow=none;dashed=1;html=1;rounded=0;" edge="1" parent="1">
          <mxGeometry width="50" height="50" relative="1" as="geometry">
            <mxPoint x="1280" y="1110" as="sourcePoint" />
            <mxPoint x="1280" y="960" as="targetPoint" />
          </mxGeometry>
        </mxCell>
        <mxCell id="nm2eo2nv4SzdI6bSQcPC-372" value="" style="endArrow=none;dashed=1;html=1;rounded=0;" edge="1" parent="1">
          <mxGeometry width="50" height="50" relative="1" as="geometry">
            <mxPoint x="1440" y="1110" as="sourcePoint" />
            <mxPoint x="1440" y="960" as="targetPoint" />
          </mxGeometry>
        </mxCell>
        <mxCell id="nm2eo2nv4SzdI6bSQcPC-373" value="" style="endArrow=none;dashed=1;html=1;rounded=0;" edge="1" parent="1">
          <mxGeometry width="50" height="50" relative="1" as="geometry">
            <mxPoint x="1240" y="1110" as="sourcePoint" />
            <mxPoint x="1240" y="960" as="targetPoint" />
          </mxGeometry>
        </mxCell>
        <mxCell id="nm2eo2nv4SzdI6bSQcPC-374" value="" style="endArrow=none;dashed=1;html=1;rounded=0;" edge="1" parent="1">
          <mxGeometry width="50" height="50" relative="1" as="geometry">
            <mxPoint x="1200" y="1110" as="sourcePoint" />
            <mxPoint x="1200" y="960" as="targetPoint" />
          </mxGeometry>
        </mxCell>
        <mxCell id="nm2eo2nv4SzdI6bSQcPC-375" value="1" style="text;html=1;align=center;verticalAlign=middle;resizable=0;points=[];autosize=1;strokeColor=none;fillColor=none;" vertex="1" parent="1">
          <mxGeometry x="1450" y="920" width="30" height="30" as="geometry" />
        </mxCell>
        <mxCell id="nm2eo2nv4SzdI6bSQcPC-376" value="0" style="text;html=1;align=center;verticalAlign=middle;resizable=0;points=[];autosize=1;strokeColor=none;fillColor=none;" vertex="1" parent="1">
          <mxGeometry x="1370" y="920" width="30" height="30" as="geometry" />
        </mxCell>
        <mxCell id="nm2eo2nv4SzdI6bSQcPC-377" value="1" style="text;html=1;align=center;verticalAlign=middle;resizable=0;points=[];autosize=1;strokeColor=none;fillColor=none;" vertex="1" parent="1">
          <mxGeometry x="1330" y="920" width="30" height="30" as="geometry" />
        </mxCell>
        <mxCell id="nm2eo2nv4SzdI6bSQcPC-378" value="1" style="text;html=1;align=center;verticalAlign=middle;resizable=0;points=[];autosize=1;strokeColor=none;fillColor=none;" vertex="1" parent="1">
          <mxGeometry x="1290" y="920" width="30" height="30" as="geometry" />
        </mxCell>
        <mxCell id="nm2eo2nv4SzdI6bSQcPC-379" value="1" style="text;html=1;align=center;verticalAlign=middle;resizable=0;points=[];autosize=1;strokeColor=none;fillColor=none;" vertex="1" parent="1">
          <mxGeometry x="1130" y="920" width="30" height="30" as="geometry" />
        </mxCell>
        <mxCell id="nm2eo2nv4SzdI6bSQcPC-380" value="0" style="text;html=1;align=center;verticalAlign=middle;resizable=0;points=[];autosize=1;strokeColor=none;fillColor=none;" vertex="1" parent="1">
          <mxGeometry x="1250" y="920" width="30" height="30" as="geometry" />
        </mxCell>
        <mxCell id="nm2eo2nv4SzdI6bSQcPC-381" value="1" style="text;html=1;align=center;verticalAlign=middle;resizable=0;points=[];autosize=1;strokeColor=none;fillColor=none;" vertex="1" parent="1">
          <mxGeometry x="1210" y="920" width="30" height="30" as="geometry" />
        </mxCell>
        <mxCell id="nm2eo2nv4SzdI6bSQcPC-382" value="0" style="text;html=1;align=center;verticalAlign=middle;resizable=0;points=[];autosize=1;strokeColor=none;fillColor=none;" vertex="1" parent="1">
          <mxGeometry x="1170" y="920" width="30" height="30" as="geometry" />
        </mxCell>
        <mxCell id="nm2eo2nv4SzdI6bSQcPC-383" value="0" style="text;html=1;align=center;verticalAlign=middle;resizable=0;points=[];autosize=1;strokeColor=none;fillColor=none;" vertex="1" parent="1">
          <mxGeometry x="1410" y="920" width="30" height="30" as="geometry" />
        </mxCell>
        <mxCell id="nm2eo2nv4SzdI6bSQcPC-388" value="" style="endArrow=none;html=1;rounded=0;fillColor=light-dark(#FFFFFF,#FF0000);strokeColor=light-dark(#000000,#FF0000);movable=1;resizable=1;rotatable=1;deletable=1;editable=1;locked=0;connectable=1;" edge="1" parent="1">
          <mxGeometry width="50" height="50" relative="1" as="geometry">
            <mxPoint x="1160" y="1000" as="sourcePoint" />
            <mxPoint x="1140" y="1000" as="targetPoint" />
          </mxGeometry>
        </mxCell>
        <mxCell id="nm2eo2nv4SzdI6bSQcPC-391" value="" style="endArrow=none;html=1;rounded=0;fillColor=light-dark(#FFFFFF,#FF0000);strokeColor=light-dark(#000000,#FF0000);movable=1;resizable=1;rotatable=1;deletable=1;editable=1;locked=0;connectable=1;" edge="1" parent="1">
          <mxGeometry width="50" height="50" relative="1" as="geometry">
            <mxPoint x="1380" y="1020" as="sourcePoint" />
            <mxPoint x="1380" y="1000" as="targetPoint" />
          </mxGeometry>
        </mxCell>
        <mxCell id="nm2eo2nv4SzdI6bSQcPC-393" value="" style="endArrow=none;html=1;rounded=0;fillColor=light-dark(#FFFFFF,#FF0000);strokeColor=light-dark(#000000,#FF0000);movable=1;resizable=1;rotatable=1;deletable=1;editable=1;locked=0;connectable=1;" edge="1" parent="1">
          <mxGeometry width="50" height="50" relative="1" as="geometry">
            <mxPoint x="1380" y="1000" as="sourcePoint" />
            <mxPoint x="1360" y="1000" as="targetPoint" />
          </mxGeometry>
        </mxCell>
        <mxCell id="nm2eo2nv4SzdI6bSQcPC-394" value="" style="endArrow=none;html=1;rounded=0;fillColor=light-dark(#FFFFFF,#FF0000);strokeColor=light-dark(#000000,#FF0000);movable=1;resizable=1;rotatable=1;deletable=1;editable=1;locked=0;connectable=1;" edge="1" parent="1">
          <mxGeometry width="50" height="50" relative="1" as="geometry">
            <mxPoint x="1340" y="1020" as="sourcePoint" />
            <mxPoint x="1340" y="1000" as="targetPoint" />
          </mxGeometry>
        </mxCell>
        <mxCell id="nm2eo2nv4SzdI6bSQcPC-397" value="" style="endArrow=none;html=1;rounded=0;fillColor=light-dark(#FFFFFF,#FF0000);strokeColor=light-dark(#000000,#00FF00);movable=1;resizable=1;rotatable=1;deletable=1;editable=1;locked=0;connectable=1;" edge="1" parent="1">
          <mxGeometry width="50" height="50" relative="1" as="geometry">
            <mxPoint x="1140" y="1220" as="sourcePoint" />
            <mxPoint x="1120" y="1220" as="targetPoint" />
          </mxGeometry>
        </mxCell>
        <mxCell id="nm2eo2nv4SzdI6bSQcPC-400" value="" style="endArrow=none;html=1;rounded=0;fillColor=light-dark(#FFFFFF,#FF0000);strokeColor=light-dark(#000000,#FF0000);movable=1;resizable=1;rotatable=1;deletable=1;editable=1;locked=0;connectable=1;" edge="1" parent="1">
          <mxGeometry width="50" height="50" relative="1" as="geometry">
            <mxPoint x="1400" y="1019.72" as="sourcePoint" />
            <mxPoint x="1380" y="1019.72" as="targetPoint" />
          </mxGeometry>
        </mxCell>
        <mxCell id="nm2eo2nv4SzdI6bSQcPC-401" value="" style="endArrow=none;html=1;rounded=0;fillColor=light-dark(#FFFFFF,#FF0000);strokeColor=light-dark(#000000,#00FF00);movable=1;resizable=1;rotatable=1;deletable=1;editable=1;locked=0;connectable=1;" edge="1" parent="1">
          <mxGeometry width="50" height="50" relative="1" as="geometry">
            <mxPoint x="1150" y="1230" as="sourcePoint" />
            <mxPoint x="1130" y="1230" as="targetPoint" />
          </mxGeometry>
        </mxCell>
        <mxCell id="nm2eo2nv4SzdI6bSQcPC-402" value="" style="endArrow=none;html=1;rounded=0;fillColor=light-dark(#FFFFFF,#FF0000);strokeColor=light-dark(#000000,#FF0000);movable=1;resizable=1;rotatable=1;deletable=1;editable=1;locked=0;connectable=1;" edge="1" parent="1">
          <mxGeometry width="50" height="50" relative="1" as="geometry">
            <mxPoint x="1400" y="1020" as="sourcePoint" />
            <mxPoint x="1400" y="1000" as="targetPoint" />
          </mxGeometry>
        </mxCell>
        <mxCell id="nm2eo2nv4SzdI6bSQcPC-403" value="" style="endArrow=none;html=1;rounded=0;fillColor=light-dark(#FFFFFF,#FF0000);strokeColor=light-dark(#000000,#00FF00);movable=1;resizable=1;rotatable=1;deletable=1;editable=1;locked=0;connectable=1;" edge="1" parent="1">
          <mxGeometry width="50" height="50" relative="1" as="geometry">
            <mxPoint x="1160" y="1070" as="sourcePoint" />
            <mxPoint x="1160" y="1050" as="targetPoint" />
          </mxGeometry>
        </mxCell>
        <mxCell id="nm2eo2nv4SzdI6bSQcPC-405" value="" style="endArrow=none;html=1;rounded=0;fillColor=light-dark(#FFFFFF,#FF0000);strokeColor=light-dark(#000000,#00FF00);movable=1;resizable=1;rotatable=1;deletable=1;editable=1;locked=0;connectable=1;" edge="1" parent="1">
          <mxGeometry width="50" height="50" relative="1" as="geometry">
            <mxPoint x="1160" y="1240" as="sourcePoint" />
            <mxPoint x="1140" y="1240" as="targetPoint" />
          </mxGeometry>
        </mxCell>
        <mxCell id="nm2eo2nv4SzdI6bSQcPC-406" value="" style="endArrow=none;html=1;rounded=0;fillColor=light-dark(#FFFFFF,#FF0000);strokeColor=light-dark(#000000,#00FF00);movable=1;resizable=1;rotatable=1;deletable=1;editable=1;locked=0;connectable=1;" edge="1" parent="1">
          <mxGeometry width="50" height="50" relative="1" as="geometry">
            <mxPoint x="1359.52" y="1070" as="sourcePoint" />
            <mxPoint x="1359.52" y="1050" as="targetPoint" />
          </mxGeometry>
        </mxCell>
        <mxCell id="nm2eo2nv4SzdI6bSQcPC-407" value="" style="endArrow=none;html=1;rounded=0;fillColor=light-dark(#FFFFFF,#FF0000);strokeColor=light-dark(#000000,#00FF00);movable=1;resizable=1;rotatable=1;deletable=1;editable=1;locked=0;connectable=1;" edge="1" parent="1">
          <mxGeometry width="50" height="50" relative="1" as="geometry">
            <mxPoint x="1210" y="1240" as="sourcePoint" />
            <mxPoint x="1210" y="1220" as="targetPoint" />
          </mxGeometry>
        </mxCell>
        <mxCell id="nm2eo2nv4SzdI6bSQcPC-408" value="" style="endArrow=none;html=1;rounded=0;fillColor=light-dark(#FFFFFF,#FF0000);strokeColor=light-dark(#000000,#00FF00);movable=1;resizable=1;rotatable=1;deletable=1;editable=1;locked=0;connectable=1;" edge="1" parent="1">
          <mxGeometry width="50" height="50" relative="1" as="geometry">
            <mxPoint x="1170" y="1240" as="sourcePoint" />
            <mxPoint x="1150" y="1240" as="targetPoint" />
          </mxGeometry>
        </mxCell>
        <mxCell id="nm2eo2nv4SzdI6bSQcPC-409" value="" style="endArrow=none;html=1;rounded=0;fillColor=light-dark(#FFFFFF,#FF0000);strokeColor=light-dark(#000000,#00FF00);movable=1;resizable=1;rotatable=1;deletable=1;editable=1;locked=0;connectable=1;" edge="1" parent="1">
          <mxGeometry width="50" height="50" relative="1" as="geometry">
            <mxPoint x="1170" y="1250" as="sourcePoint" />
            <mxPoint x="1150" y="1250" as="targetPoint" />
          </mxGeometry>
        </mxCell>
        <mxCell id="nm2eo2nv4SzdI6bSQcPC-410" value="" style="endArrow=none;html=1;rounded=0;fillColor=light-dark(#FFFFFF,#FF0000);strokeColor=light-dark(#000000,#00FF00);movable=1;resizable=1;rotatable=1;deletable=1;editable=1;locked=0;connectable=1;" edge="1" parent="1">
          <mxGeometry width="50" height="50" relative="1" as="geometry">
            <mxPoint x="1210" y="1250" as="sourcePoint" />
            <mxPoint x="1210" y="1230" as="targetPoint" />
          </mxGeometry>
        </mxCell>
        <mxCell id="nm2eo2nv4SzdI6bSQcPC-411" value="" style="endArrow=none;html=1;rounded=0;fillColor=light-dark(#FFFFFF,#FF0000);strokeColor=light-dark(#000000,#00FF00);movable=1;resizable=1;rotatable=1;deletable=1;editable=1;locked=0;connectable=1;" edge="1" parent="1">
          <mxGeometry width="50" height="50" relative="1" as="geometry">
            <mxPoint x="1220" y="1250" as="sourcePoint" />
            <mxPoint x="1220" y="1230" as="targetPoint" />
          </mxGeometry>
        </mxCell>
        <mxCell id="nm2eo2nv4SzdI6bSQcPC-412" value="" style="endArrow=none;html=1;rounded=0;fillColor=light-dark(#FFFFFF,#FF0000);strokeColor=light-dark(#000000,#00FF00);movable=1;resizable=1;rotatable=1;deletable=1;editable=1;locked=0;connectable=1;" edge="1" parent="1">
          <mxGeometry width="50" height="50" relative="1" as="geometry">
            <mxPoint x="1180" y="1250" as="sourcePoint" />
            <mxPoint x="1160" y="1250" as="targetPoint" />
          </mxGeometry>
        </mxCell>
        <mxCell id="nm2eo2nv4SzdI6bSQcPC-413" value="" style="endArrow=none;html=1;rounded=0;fillColor=light-dark(#FFFFFF,#FF0000);strokeColor=light-dark(#000000,#00FF00);movable=1;resizable=1;rotatable=1;deletable=1;editable=1;locked=0;connectable=1;" edge="1" parent="1">
          <mxGeometry width="50" height="50" relative="1" as="geometry">
            <mxPoint x="1180" y="1260" as="sourcePoint" />
            <mxPoint x="1160" y="1260" as="targetPoint" />
          </mxGeometry>
        </mxCell>
        <mxCell id="nm2eo2nv4SzdI6bSQcPC-414" value="" style="endArrow=none;html=1;rounded=0;fillColor=light-dark(#FFFFFF,#FF0000);strokeColor=light-dark(#000000,#00FF00);movable=1;resizable=1;rotatable=1;deletable=1;editable=1;locked=0;connectable=1;" edge="1" parent="1">
          <mxGeometry width="50" height="50" relative="1" as="geometry">
            <mxPoint x="1220" y="1260" as="sourcePoint" />
            <mxPoint x="1220" y="1240" as="targetPoint" />
          </mxGeometry>
        </mxCell>
        <mxCell id="nm2eo2nv4SzdI6bSQcPC-415" value="" style="endArrow=none;html=1;rounded=0;fillColor=light-dark(#FFFFFF,#FF0000);strokeColor=light-dark(#000000,#00FF00);movable=1;resizable=1;rotatable=1;deletable=1;editable=1;locked=0;connectable=1;" edge="1" parent="1">
          <mxGeometry width="50" height="50" relative="1" as="geometry">
            <mxPoint x="1230" y="1260" as="sourcePoint" />
            <mxPoint x="1230" y="1240" as="targetPoint" />
          </mxGeometry>
        </mxCell>
        <mxCell id="nm2eo2nv4SzdI6bSQcPC-416" value="" style="endArrow=none;html=1;rounded=0;fillColor=light-dark(#FFFFFF,#FF0000);strokeColor=light-dark(#000000,#FF0000);movable=1;resizable=1;rotatable=1;deletable=1;editable=1;locked=0;connectable=1;" edge="1" parent="1">
          <mxGeometry width="50" height="50" relative="1" as="geometry">
            <mxPoint x="1140" y="1020" as="sourcePoint" />
            <mxPoint x="1120" y="1020" as="targetPoint" />
          </mxGeometry>
        </mxCell>
        <mxCell id="nm2eo2nv4SzdI6bSQcPC-418" value="" style="endArrow=none;html=1;rounded=0;fillColor=light-dark(#FFFFFF,#FF0000);strokeColor=light-dark(#000000,#FF0000);movable=1;resizable=1;rotatable=1;deletable=1;editable=1;locked=0;connectable=1;" edge="1" parent="1">
          <mxGeometry width="50" height="50" relative="1" as="geometry">
            <mxPoint x="1140" y="1020" as="sourcePoint" />
            <mxPoint x="1140" y="1000" as="targetPoint" />
          </mxGeometry>
        </mxCell>
        <mxCell id="nm2eo2nv4SzdI6bSQcPC-421" value="" style="endArrow=none;html=1;rounded=0;fillColor=light-dark(#FFFFFF,#FF0000);strokeColor=light-dark(#000000,#FF0000);movable=1;resizable=1;rotatable=1;deletable=1;editable=1;locked=0;connectable=1;" edge="1" parent="1">
          <mxGeometry width="50" height="50" relative="1" as="geometry">
            <mxPoint x="1341" y="1020" as="sourcePoint" />
            <mxPoint x="1321" y="1020" as="targetPoint" />
          </mxGeometry>
        </mxCell>
        <mxCell id="nm2eo2nv4SzdI6bSQcPC-424" value="" style="endArrow=none;html=1;rounded=0;fillColor=light-dark(#FFFFFF,#FF0000);strokeColor=light-dark(#000000,#00FF00);movable=1;resizable=1;rotatable=1;deletable=1;editable=1;locked=0;connectable=1;" edge="1" parent="1">
          <mxGeometry width="50" height="50" relative="1" as="geometry">
            <mxPoint x="1340" y="1160" as="sourcePoint" />
            <mxPoint x="1320" y="1160" as="targetPoint" />
          </mxGeometry>
        </mxCell>
        <mxCell id="nm2eo2nv4SzdI6bSQcPC-427" value="" style="endArrow=none;html=1;rounded=0;fillColor=light-dark(#FFFFFF,#FF0000);strokeColor=light-dark(#000000,#FF0000);movable=1;resizable=1;rotatable=1;deletable=1;editable=1;locked=0;connectable=1;" edge="1" parent="1">
          <mxGeometry width="50" height="50" relative="1" as="geometry">
            <mxPoint x="1360" y="1000" as="sourcePoint" />
            <mxPoint x="1340" y="1000" as="targetPoint" />
          </mxGeometry>
        </mxCell>
        <mxCell id="nm2eo2nv4SzdI6bSQcPC-428" value="" style="endArrow=none;html=1;rounded=0;fillColor=light-dark(#FFFFFF,#FF0000);strokeColor=light-dark(#000000,#00FF00);movable=1;resizable=1;rotatable=1;deletable=1;editable=1;locked=0;connectable=1;" edge="1" parent="1">
          <mxGeometry width="50" height="50" relative="1" as="geometry">
            <mxPoint x="1150" y="1230" as="sourcePoint" />
            <mxPoint x="1130" y="1230" as="targetPoint" />
          </mxGeometry>
        </mxCell>
        <mxCell id="nm2eo2nv4SzdI6bSQcPC-429" value="" style="endArrow=none;html=1;rounded=0;fillColor=light-dark(#FFFFFF,#FF0000);strokeColor=light-dark(#000000,#FF0000);movable=1;resizable=1;rotatable=1;deletable=1;editable=1;locked=0;connectable=1;" edge="1" parent="1">
          <mxGeometry width="50" height="50" relative="1" as="geometry">
            <mxPoint x="1320" y="1020" as="sourcePoint" />
            <mxPoint x="1320" y="1000" as="targetPoint" />
          </mxGeometry>
        </mxCell>
        <mxCell id="nm2eo2nv4SzdI6bSQcPC-432" value="" style="endArrow=none;html=1;rounded=0;fillColor=light-dark(#FFFFFF,#FF0000);strokeColor=light-dark(#000000,#00FF00);movable=1;resizable=1;rotatable=1;deletable=1;editable=1;locked=0;connectable=1;" edge="1" parent="1">
          <mxGeometry width="50" height="50" relative="1" as="geometry">
            <mxPoint x="1160" y="1240" as="sourcePoint" />
            <mxPoint x="1140" y="1240" as="targetPoint" />
          </mxGeometry>
        </mxCell>
        <mxCell id="nm2eo2nv4SzdI6bSQcPC-433" value="" style="endArrow=none;html=1;rounded=0;fillColor=light-dark(#FFFFFF,#FF0000);strokeColor=light-dark(#000000,#00FF00);movable=1;resizable=1;rotatable=1;deletable=1;editable=1;locked=0;connectable=1;" edge="1" parent="1">
          <mxGeometry width="50" height="50" relative="1" as="geometry">
            <mxPoint x="1240" y="1070" as="sourcePoint" />
            <mxPoint x="1240" y="1050" as="targetPoint" />
          </mxGeometry>
        </mxCell>
        <mxCell id="nm2eo2nv4SzdI6bSQcPC-434" value="" style="endArrow=none;html=1;rounded=0;fillColor=light-dark(#FFFFFF,#FF0000);strokeColor=light-dark(#000000,#00FF00);movable=1;resizable=1;rotatable=1;deletable=1;editable=1;locked=0;connectable=1;" edge="1" parent="1">
          <mxGeometry width="50" height="50" relative="1" as="geometry">
            <mxPoint x="1400" y="1070" as="sourcePoint" />
            <mxPoint x="1400" y="1050" as="targetPoint" />
          </mxGeometry>
        </mxCell>
        <mxCell id="nm2eo2nv4SzdI6bSQcPC-435" value="" style="endArrow=none;html=1;rounded=0;fillColor=light-dark(#FFFFFF,#FF0000);strokeColor=light-dark(#000000,#00FF00);movable=1;resizable=1;rotatable=1;deletable=1;editable=1;locked=0;connectable=1;" edge="1" parent="1">
          <mxGeometry width="50" height="50" relative="1" as="geometry">
            <mxPoint x="1170" y="1240" as="sourcePoint" />
            <mxPoint x="1150" y="1240" as="targetPoint" />
          </mxGeometry>
        </mxCell>
        <mxCell id="nm2eo2nv4SzdI6bSQcPC-436" value="" style="endArrow=none;html=1;rounded=0;fillColor=light-dark(#FFFFFF,#FF0000);strokeColor=light-dark(#000000,#00FF00);movable=1;resizable=1;rotatable=1;deletable=1;editable=1;locked=0;connectable=1;" edge="1" parent="1">
          <mxGeometry width="50" height="50" relative="1" as="geometry">
            <mxPoint x="1170" y="1250" as="sourcePoint" />
            <mxPoint x="1150" y="1250" as="targetPoint" />
          </mxGeometry>
        </mxCell>
        <mxCell id="nm2eo2nv4SzdI6bSQcPC-437" value="" style="endArrow=none;html=1;rounded=0;fillColor=light-dark(#FFFFFF,#FF0000);strokeColor=light-dark(#000000,#00FF00);movable=1;resizable=1;rotatable=1;deletable=1;editable=1;locked=0;connectable=1;" edge="1" parent="1">
          <mxGeometry width="50" height="50" relative="1" as="geometry">
            <mxPoint x="1210" y="1250" as="sourcePoint" />
            <mxPoint x="1210" y="1230" as="targetPoint" />
          </mxGeometry>
        </mxCell>
        <mxCell id="nm2eo2nv4SzdI6bSQcPC-438" value="" style="endArrow=none;html=1;rounded=0;fillColor=light-dark(#FFFFFF,#FF0000);strokeColor=light-dark(#000000,#00FF00);movable=1;resizable=1;rotatable=1;deletable=1;editable=1;locked=0;connectable=1;" edge="1" parent="1">
          <mxGeometry width="50" height="50" relative="1" as="geometry">
            <mxPoint x="1220" y="1250" as="sourcePoint" />
            <mxPoint x="1220" y="1230" as="targetPoint" />
          </mxGeometry>
        </mxCell>
        <mxCell id="nm2eo2nv4SzdI6bSQcPC-439" value="" style="endArrow=none;html=1;rounded=0;fillColor=light-dark(#FFFFFF,#FF0000);strokeColor=light-dark(#000000,#00FF00);movable=1;resizable=1;rotatable=1;deletable=1;editable=1;locked=0;connectable=1;" edge="1" parent="1">
          <mxGeometry width="50" height="50" relative="1" as="geometry">
            <mxPoint x="1180" y="1250" as="sourcePoint" />
            <mxPoint x="1160" y="1250" as="targetPoint" />
          </mxGeometry>
        </mxCell>
        <mxCell id="nm2eo2nv4SzdI6bSQcPC-440" value="" style="endArrow=none;html=1;rounded=0;fillColor=light-dark(#FFFFFF,#FF0000);strokeColor=light-dark(#000000,#00FF00);movable=1;resizable=1;rotatable=1;deletable=1;editable=1;locked=0;connectable=1;" edge="1" parent="1">
          <mxGeometry width="50" height="50" relative="1" as="geometry">
            <mxPoint x="1180" y="1260" as="sourcePoint" />
            <mxPoint x="1160" y="1260" as="targetPoint" />
          </mxGeometry>
        </mxCell>
        <mxCell id="nm2eo2nv4SzdI6bSQcPC-441" value="" style="endArrow=none;html=1;rounded=0;fillColor=light-dark(#FFFFFF,#FF0000);strokeColor=light-dark(#000000,#00FF00);movable=1;resizable=1;rotatable=1;deletable=1;editable=1;locked=0;connectable=1;" edge="1" parent="1">
          <mxGeometry width="50" height="50" relative="1" as="geometry">
            <mxPoint x="1220" y="1260" as="sourcePoint" />
            <mxPoint x="1220" y="1240" as="targetPoint" />
          </mxGeometry>
        </mxCell>
        <mxCell id="nm2eo2nv4SzdI6bSQcPC-442" value="" style="endArrow=none;html=1;rounded=0;fillColor=light-dark(#FFFFFF,#FF0000);strokeColor=light-dark(#000000,#00FF00);movable=1;resizable=1;rotatable=1;deletable=1;editable=1;locked=0;connectable=1;" edge="1" parent="1">
          <mxGeometry width="50" height="50" relative="1" as="geometry">
            <mxPoint x="1190" y="1260" as="sourcePoint" />
            <mxPoint x="1170" y="1260" as="targetPoint" />
          </mxGeometry>
        </mxCell>
        <mxCell id="nm2eo2nv4SzdI6bSQcPC-443" value="" style="endArrow=none;html=1;rounded=0;fillColor=light-dark(#FFFFFF,#FF0000);strokeColor=light-dark(#000000,#00FF00);movable=1;resizable=1;rotatable=1;deletable=1;editable=1;locked=0;connectable=1;" edge="1" parent="1">
          <mxGeometry width="50" height="50" relative="1" as="geometry">
            <mxPoint x="1190" y="1270" as="sourcePoint" />
            <mxPoint x="1170" y="1270" as="targetPoint" />
          </mxGeometry>
        </mxCell>
        <mxCell id="nm2eo2nv4SzdI6bSQcPC-444" value="" style="endArrow=none;html=1;rounded=0;fillColor=light-dark(#FFFFFF,#FF0000);strokeColor=light-dark(#000000,#00FF00);movable=1;resizable=1;rotatable=1;deletable=1;editable=1;locked=0;connectable=1;" edge="1" parent="1">
          <mxGeometry width="50" height="50" relative="1" as="geometry">
            <mxPoint x="1230" y="1270" as="sourcePoint" />
            <mxPoint x="1230" y="1250" as="targetPoint" />
          </mxGeometry>
        </mxCell>
        <mxCell id="nm2eo2nv4SzdI6bSQcPC-445" value="" style="endArrow=none;html=1;rounded=0;fillColor=light-dark(#FFFFFF,#FF0000);strokeColor=light-dark(#000000,#00FF00);movable=1;resizable=1;rotatable=1;deletable=1;editable=1;locked=0;connectable=1;" edge="1" parent="1">
          <mxGeometry width="50" height="50" relative="1" as="geometry">
            <mxPoint x="1240" y="1270" as="sourcePoint" />
            <mxPoint x="1240" y="1250" as="targetPoint" />
          </mxGeometry>
        </mxCell>
        <mxCell id="nm2eo2nv4SzdI6bSQcPC-446" value="" style="endArrow=none;html=1;rounded=0;strokeColor=light-dark(#000000,#00FF00);" edge="1" parent="1">
          <mxGeometry width="50" height="50" relative="1" as="geometry">
            <mxPoint x="1120" y="1070" as="sourcePoint" />
            <mxPoint x="1160" y="1050" as="targetPoint" />
            <Array as="points">
              <mxPoint x="1140" y="1070" />
              <mxPoint x="1140" y="1050" />
            </Array>
          </mxGeometry>
        </mxCell>
        <mxCell id="nm2eo2nv4SzdI6bSQcPC-448" value="" style="endArrow=none;html=1;rounded=0;strokeColor=light-dark(#000000,#FF0000);" edge="1" parent="1">
          <mxGeometry width="50" height="50" relative="1" as="geometry">
            <mxPoint x="1440" y="1020" as="sourcePoint" />
            <mxPoint x="1480" y="1000" as="targetPoint" />
            <Array as="points">
              <mxPoint x="1460" y="1020" />
              <mxPoint x="1460" y="1000" />
            </Array>
          </mxGeometry>
        </mxCell>
        <mxCell id="nm2eo2nv4SzdI6bSQcPC-452" value="" style="endArrow=none;html=1;rounded=0;strokeColor=light-dark(#000000,#FF0000);" edge="1" parent="1">
          <mxGeometry width="50" height="50" relative="1" as="geometry">
            <mxPoint x="1200" y="1020" as="sourcePoint" />
            <mxPoint x="1240" y="1000" as="targetPoint" />
            <Array as="points">
              <mxPoint x="1220" y="1020" />
              <mxPoint x="1220" y="1000" />
            </Array>
          </mxGeometry>
        </mxCell>
        <mxCell id="nm2eo2nv4SzdI6bSQcPC-453" value="" style="endArrow=none;html=1;rounded=0;strokeColor=light-dark(#000000,#FF0000);" edge="1" parent="1">
          <mxGeometry width="50" height="50" relative="1" as="geometry">
            <mxPoint x="1280" y="1020" as="sourcePoint" />
            <mxPoint x="1320" y="1000" as="targetPoint" />
            <Array as="points">
              <mxPoint x="1300" y="1020" />
              <mxPoint x="1300" y="1000" />
            </Array>
          </mxGeometry>
        </mxCell>
        <mxCell id="nm2eo2nv4SzdI6bSQcPC-454" value="" style="endArrow=none;html=1;rounded=0;strokeColor=light-dark(#000000,#00FF00);" edge="1" parent="1">
          <mxGeometry width="50" height="50" relative="1" as="geometry">
            <mxPoint x="1160" y="1070" as="sourcePoint" />
            <mxPoint x="1200" y="1050" as="targetPoint" />
            <Array as="points">
              <mxPoint x="1180" y="1070" />
              <mxPoint x="1180" y="1050" />
            </Array>
          </mxGeometry>
        </mxCell>
        <mxCell id="nm2eo2nv4SzdI6bSQcPC-455" value="" style="endArrow=none;html=1;rounded=0;strokeColor=light-dark(#000000,#00FF00);" edge="1" parent="1">
          <mxGeometry width="50" height="50" relative="1" as="geometry">
            <mxPoint x="1280" y="1070" as="sourcePoint" />
            <mxPoint x="1320" y="1050" as="targetPoint" />
            <Array as="points">
              <mxPoint x="1300" y="1070" />
              <mxPoint x="1300" y="1050" />
            </Array>
          </mxGeometry>
        </mxCell>
        <mxCell id="nm2eo2nv4SzdI6bSQcPC-456" value="" style="endArrow=none;html=1;rounded=0;strokeColor=light-dark(#000000,#00FF00);" edge="1" parent="1">
          <mxGeometry width="50" height="50" relative="1" as="geometry">
            <mxPoint x="1440" y="1070" as="sourcePoint" />
            <mxPoint x="1480" y="1050" as="targetPoint" />
            <Array as="points">
              <mxPoint x="1460" y="1070" />
              <mxPoint x="1460" y="1050" />
            </Array>
          </mxGeometry>
        </mxCell>
        <mxCell id="nm2eo2nv4SzdI6bSQcPC-457" value="" style="endArrow=none;html=1;rounded=0;strokeColor=light-dark(#000000,#00FF00);" edge="1" parent="1">
          <mxGeometry width="50" height="50" relative="1" as="geometry">
            <mxPoint x="1450" y="1310" as="sourcePoint" />
            <mxPoint x="1490" y="1290" as="targetPoint" />
            <Array as="points">
              <mxPoint x="1470" y="1310" />
              <mxPoint x="1470" y="1290" />
            </Array>
          </mxGeometry>
        </mxCell>
        <mxCell id="nm2eo2nv4SzdI6bSQcPC-460" value="" style="endArrow=none;html=1;rounded=0;strokeColor=light-dark(#000000,#FF0000);" edge="1" parent="1">
          <mxGeometry width="50" height="50" relative="1" as="geometry">
            <mxPoint x="1240" y="1000" as="sourcePoint" />
            <mxPoint x="1280" y="1020" as="targetPoint" />
            <Array as="points">
              <mxPoint x="1260" y="1000" />
              <mxPoint x="1260" y="1020" />
            </Array>
          </mxGeometry>
        </mxCell>
        <mxCell id="nm2eo2nv4SzdI6bSQcPC-461" value="" style="endArrow=none;html=1;rounded=0;strokeColor=light-dark(#000000,#00FF00);" edge="1" parent="1">
          <mxGeometry width="50" height="50" relative="1" as="geometry">
            <mxPoint x="1200" y="1050" as="sourcePoint" />
            <mxPoint x="1240" y="1070" as="targetPoint" />
            <Array as="points">
              <mxPoint x="1220" y="1050" />
              <mxPoint x="1220" y="1070" />
            </Array>
          </mxGeometry>
        </mxCell>
        <mxCell id="nm2eo2nv4SzdI6bSQcPC-462" value="" style="endArrow=none;html=1;rounded=0;strokeColor=light-dark(#000000,#00FF00);" edge="1" parent="1">
          <mxGeometry width="50" height="50" relative="1" as="geometry">
            <mxPoint x="1320" y="1050" as="sourcePoint" />
            <mxPoint x="1360" y="1070" as="targetPoint" />
            <Array as="points">
              <mxPoint x="1340" y="1050" />
              <mxPoint x="1340" y="1070" />
            </Array>
          </mxGeometry>
        </mxCell>
        <mxCell id="nm2eo2nv4SzdI6bSQcPC-463" value="" style="endArrow=none;html=1;rounded=0;strokeColor=light-dark(#000000,#00FF00);" edge="1" parent="1">
          <mxGeometry width="50" height="50" relative="1" as="geometry">
            <mxPoint x="1400" y="1050" as="sourcePoint" />
            <mxPoint x="1440" y="1070" as="targetPoint" />
            <Array as="points">
              <mxPoint x="1420" y="1050" />
              <mxPoint x="1420" y="1070" />
            </Array>
          </mxGeometry>
        </mxCell>
        <mxCell id="nm2eo2nv4SzdI6bSQcPC-466" value="" style="endArrow=none;html=1;rounded=0;strokeColor=light-dark(#000000,#FF0000);" edge="1" parent="1">
          <mxGeometry width="50" height="50" relative="1" as="geometry">
            <mxPoint x="1160" y="1000" as="sourcePoint" />
            <mxPoint x="1200" y="1020" as="targetPoint" />
            <Array as="points">
              <mxPoint x="1180" y="1000" />
              <mxPoint x="1180" y="1020" />
            </Array>
          </mxGeometry>
        </mxCell>
        <mxCell id="nm2eo2nv4SzdI6bSQcPC-467" value="" style="endArrow=none;html=1;rounded=0;strokeColor=light-dark(#000000,#FF0000);" edge="1" parent="1">
          <mxGeometry width="50" height="50" relative="1" as="geometry">
            <mxPoint x="1400" y="1000" as="sourcePoint" />
            <mxPoint x="1440" y="1020" as="targetPoint" />
            <Array as="points">
              <mxPoint x="1420" y="1000" />
              <mxPoint x="1420" y="1020" />
            </Array>
          </mxGeometry>
        </mxCell>
        <mxCell id="nm2eo2nv4SzdI6bSQcPC-468" value="" style="endArrow=none;html=1;rounded=0;strokeColor=light-dark(#000000,#00FF00);" edge="1" parent="1">
          <mxGeometry width="50" height="50" relative="1" as="geometry">
            <mxPoint x="1240" y="1050" as="sourcePoint" />
            <mxPoint x="1280" y="1070" as="targetPoint" />
            <Array as="points">
              <mxPoint x="1260" y="1050" />
              <mxPoint x="1260" y="1070" />
            </Array>
          </mxGeometry>
        </mxCell>
        <mxCell id="nm2eo2nv4SzdI6bSQcPC-469" value="" style="endArrow=none;html=1;rounded=0;strokeColor=light-dark(#000000,#00FF00);" edge="1" parent="1">
          <mxGeometry width="50" height="50" relative="1" as="geometry">
            <mxPoint x="1360" y="1050" as="sourcePoint" />
            <mxPoint x="1400" y="1070" as="targetPoint" />
            <Array as="points">
              <mxPoint x="1380" y="1050" />
              <mxPoint x="1380" y="1070" />
            </Array>
          </mxGeometry>
        </mxCell>
        <mxCell id="nm2eo2nv4SzdI6bSQcPC-470" value="" style="endArrow=none;html=1;rounded=0;strokeColor=light-dark(#000000,#00FF00);" edge="1" parent="1">
          <mxGeometry width="50" height="50" relative="1" as="geometry">
            <mxPoint x="1220" y="1220" as="sourcePoint" />
            <mxPoint x="1260" y="1240" as="targetPoint" />
            <Array as="points">
              <mxPoint x="1240" y="1220" />
              <mxPoint x="1240" y="1240" />
            </Array>
          </mxGeometry>
        </mxCell>
        <mxCell id="nm2eo2nv4SzdI6bSQcPC-471" value="" style="endArrow=none;html=1;rounded=0;strokeColor=light-dark(#000000,#00FF00);" edge="1" parent="1">
          <mxGeometry width="50" height="50" relative="1" as="geometry">
            <mxPoint x="1230" y="1230" as="sourcePoint" />
            <mxPoint x="1270" y="1250" as="targetPoint" />
            <Array as="points">
              <mxPoint x="1250" y="1230" />
              <mxPoint x="1250" y="1250" />
            </Array>
          </mxGeometry>
        </mxCell>
        <mxCell id="nm2eo2nv4SzdI6bSQcPC-472" value="" style="endArrow=none;html=1;rounded=0;strokeColor=light-dark(#000000,#00FF00);" edge="1" parent="1">
          <mxGeometry width="50" height="50" relative="1" as="geometry">
            <mxPoint x="1240" y="1240" as="sourcePoint" />
            <mxPoint x="1280" y="1260" as="targetPoint" />
            <Array as="points">
              <mxPoint x="1260" y="1240" />
              <mxPoint x="1260" y="1260" />
            </Array>
          </mxGeometry>
        </mxCell>
        <mxCell id="nm2eo2nv4SzdI6bSQcPC-473" value="" style="endArrow=none;html=1;rounded=0;strokeColor=light-dark(#000000,#00FF00);" edge="1" parent="1">
          <mxGeometry width="50" height="50" relative="1" as="geometry">
            <mxPoint x="1250" y="1250" as="sourcePoint" />
            <mxPoint x="1290" y="1270" as="targetPoint" />
            <Array as="points">
              <mxPoint x="1270" y="1250" />
              <mxPoint x="1270" y="1270" />
            </Array>
          </mxGeometry>
        </mxCell>
        <mxCell id="nm2eo2nv4SzdI6bSQcPC-474" value="" style="endArrow=none;html=1;rounded=0;strokeColor=light-dark(#000000,#00FF00);" edge="1" parent="1">
          <mxGeometry width="50" height="50" relative="1" as="geometry">
            <mxPoint x="1260" y="1260" as="sourcePoint" />
            <mxPoint x="1300" y="1280" as="targetPoint" />
            <Array as="points">
              <mxPoint x="1280" y="1260" />
              <mxPoint x="1280" y="1280" />
            </Array>
          </mxGeometry>
        </mxCell>
        <mxCell id="nm2eo2nv4SzdI6bSQcPC-475" value="" style="endArrow=none;html=1;rounded=0;strokeColor=light-dark(#000000,#00FF00);" edge="1" parent="1">
          <mxGeometry width="50" height="50" relative="1" as="geometry">
            <mxPoint x="1270" y="1270" as="sourcePoint" />
            <mxPoint x="1310" y="1290" as="targetPoint" />
            <Array as="points">
              <mxPoint x="1290" y="1270" />
              <mxPoint x="1290" y="1290" />
            </Array>
          </mxGeometry>
        </mxCell>
        <mxCell id="nm2eo2nv4SzdI6bSQcPC-476" value="" style="endArrow=none;html=1;rounded=0;strokeColor=light-dark(#000000,#00FF00);" edge="1" parent="1">
          <mxGeometry width="50" height="50" relative="1" as="geometry">
            <mxPoint x="1280" y="1280" as="sourcePoint" />
            <mxPoint x="1320" y="1300" as="targetPoint" />
            <Array as="points">
              <mxPoint x="1300" y="1280" />
              <mxPoint x="1300" y="1300" />
            </Array>
          </mxGeometry>
        </mxCell>
        <mxCell id="nm2eo2nv4SzdI6bSQcPC-477" value="" style="endArrow=none;html=1;rounded=0;strokeColor=light-dark(#000000,#00FF00);" edge="1" parent="1">
          <mxGeometry width="50" height="50" relative="1" as="geometry">
            <mxPoint x="1290" y="1290" as="sourcePoint" />
            <mxPoint x="1330" y="1310" as="targetPoint" />
            <Array as="points">
              <mxPoint x="1310" y="1290" />
              <mxPoint x="1310" y="1310" />
            </Array>
          </mxGeometry>
        </mxCell>
        <mxCell id="nm2eo2nv4SzdI6bSQcPC-478" value="" style="endArrow=none;html=1;rounded=0;strokeColor=light-dark(#000000,#00FF00);" edge="1" parent="1">
          <mxGeometry width="50" height="50" relative="1" as="geometry">
            <mxPoint x="1300" y="1300" as="sourcePoint" />
            <mxPoint x="1340" y="1320" as="targetPoint" />
            <Array as="points">
              <mxPoint x="1320" y="1300" />
              <mxPoint x="1320" y="1320" />
            </Array>
          </mxGeometry>
        </mxCell>
        <mxCell id="nm2eo2nv4SzdI6bSQcPC-479" value="&lt;b&gt;&lt;i&gt;Manchester&lt;/i&gt;&lt;/b&gt;" style="text;html=1;align=center;verticalAlign=middle;resizable=0;points=[];autosize=1;strokeColor=none;fillColor=none;" vertex="1" parent="1">
          <mxGeometry x="1020" y="990" width="90" height="30" as="geometry" />
        </mxCell>
        <mxCell id="nm2eo2nv4SzdI6bSQcPC-480" value="&lt;i&gt;&lt;b&gt;Manchester&lt;br&gt;Diferencial&lt;/b&gt;&lt;/i&gt;&lt;div&gt;&lt;i&gt;&lt;b&gt;&lt;br&gt;&lt;/b&gt;&lt;/i&gt;&lt;/div&gt;" style="text;html=1;align=center;verticalAlign=middle;resizable=0;points=[];autosize=1;strokeColor=none;fillColor=none;" vertex="1" parent="1">
          <mxGeometry x="1020" y="1040" width="90" height="60" as="geometry" />
        </mxCell>
      </root>
    </mxGraphModel>
  </diagram>
</mxfile>
